<svg width="760" height="356" viewBox="0 0 760 356" fill="none" xmlns="http://www.w3.org/2000/svg">
<g filter="url(#filter0_f_704_87724)">
<path d="M102.819 161.549V151.098H92.3676V88.3905H113.27V151.098H144.624V88.3905H165.526V151.098H155.075V161.549H102.819ZM175.977 161.549V88.3905H238.684V98.8417H249.135V130.195H228.233V140.646H238.684V151.098H249.135V161.549H217.782V151.098H207.331V140.646H196.879V161.549H175.977ZM196.879 130.195H217.782V119.744H228.233V98.8417H196.879V130.195ZM259.587 161.549V88.3905H332.745V98.8417H280.489V119.744H322.294V130.195H280.489V151.098H332.745V161.549H259.587ZM364.098 161.549V151.098H353.647V140.646H343.196V109.293H353.647V98.8417H364.098V88.3905H405.903V98.8417H416.354V109.293H395.452V98.8417H374.55V109.293H364.098V140.646H374.55V151.098H395.452V140.646H416.354V151.098H405.903V161.549H364.098ZM426.805 161.549V88.3905H447.708V119.744H458.159V109.293H468.61V98.8417H479.061V88.3905H499.964V98.8417H489.513V109.293H479.061V119.744H468.61V130.195H479.061V140.646H489.513V151.098H499.964V161.549H468.61V151.098H458.159V140.646H447.708V161.549H426.805ZM520.866 161.549V151.098H510.415V98.8417H520.866V88.3905H573.122V98.8417H583.573V151.098H573.122V161.549H520.866ZM531.317 151.098H562.671V98.8417H531.317V151.098ZM594.024 161.549V88.3905H614.927V98.8417H625.378V109.293H635.829V119.744H646.28V88.3905H667.183V161.549H646.28V140.646H635.829V130.195H625.378V119.744H614.927V161.549H594.024Z" fill="#7AD0E5"/>
</g>
<g filter="url(#filter1_f_704_87724)">
<path d="M102.819 161.549V151.098H92.3676V88.3905H113.27V151.098H144.624V88.3905H165.526V151.098H155.075V161.549H102.819ZM175.977 161.549V88.3905H238.684V98.8417H249.135V130.195H228.233V140.646H238.684V151.098H249.135V161.549H217.782V151.098H207.331V140.646H196.879V161.549H175.977ZM196.879 130.195H217.782V119.744H228.233V98.8417H196.879V130.195ZM259.587 161.549V88.3905H332.745V98.8417H280.489V119.744H322.294V130.195H280.489V151.098H332.745V161.549H259.587ZM364.098 161.549V151.098H353.647V140.646H343.196V109.293H353.647V98.8417H364.098V88.3905H405.903V98.8417H416.354V109.293H395.452V98.8417H374.55V109.293H364.098V140.646H374.55V151.098H395.452V140.646H416.354V151.098H405.903V161.549H364.098ZM426.805 161.549V88.3905H447.708V119.744H458.159V109.293H468.61V98.8417H479.061V88.3905H499.964V98.8417H489.513V109.293H479.061V119.744H468.61V130.195H479.061V140.646H489.513V151.098H499.964V161.549H468.61V151.098H458.159V140.646H447.708V161.549H426.805ZM520.866 161.549V151.098H510.415V98.8417H520.866V88.3905H573.122V98.8417H583.573V151.098H573.122V161.549H520.866ZM531.317 151.098H562.671V98.8417H531.317V151.098ZM594.024 161.549V88.3905H614.927V98.8417H625.378V109.293H635.829V119.744H646.28V88.3905H667.183V161.549H646.28V140.646H635.829V130.195H625.378V119.744H614.927V161.549H594.024Z" fill="#7AD0E5"/>
</g>
<g filter="url(#filter2_f_704_87724)">
<path d="M102.819 161.549V151.098H92.3676V88.3905H113.27V151.098H144.624V88.3905H165.526V151.098H155.075V161.549H102.819ZM175.977 161.549V88.3905H238.684V98.8417H249.135V130.195H228.233V140.646H238.684V151.098H249.135V161.549H217.782V151.098H207.331V140.646H196.879V161.549H175.977ZM196.879 130.195H217.782V119.744H228.233V98.8417H196.879V130.195ZM259.587 161.549V88.3905H332.745V98.8417H280.489V119.744H322.294V130.195H280.489V151.098H332.745V161.549H259.587ZM364.098 161.549V151.098H353.647V140.646H343.196V109.293H353.647V98.8417H364.098V88.3905H405.903V98.8417H416.354V109.293H395.452V98.8417H374.55V109.293H364.098V140.646H374.55V151.098H395.452V140.646H416.354V151.098H405.903V161.549H364.098ZM426.805 161.549V88.3905H447.708V119.744H458.159V109.293H468.61V98.8417H479.061V88.3905H499.964V98.8417H489.513V109.293H479.061V119.744H468.61V130.195H479.061V140.646H489.513V151.098H499.964V161.549H468.61V151.098H458.159V140.646H447.708V161.549H426.805ZM520.866 161.549V151.098H510.415V98.8417H520.866V88.3905H573.122V98.8417H583.573V151.098H573.122V161.549H520.866ZM531.317 151.098H562.671V98.8417H531.317V151.098ZM594.024 161.549V88.3905H614.927V98.8417H625.378V109.293H635.829V119.744H646.28V88.3905H667.183V161.549H646.28V140.646H635.829V130.195H625.378V119.744H614.927V161.549H594.024Z" fill="#7AD0E5"/>
</g>
<g filter="url(#filter3_f_704_87724)">
<path d="M102.819 161.549V151.098H92.3676V88.3905H113.27V151.098H144.624V88.3905H165.526V151.098H155.075V161.549H102.819ZM175.977 161.549V88.3905H238.684V98.8417H249.135V130.195H228.233V140.646H238.684V151.098H249.135V161.549H217.782V151.098H207.331V140.646H196.879V161.549H175.977ZM196.879 130.195H217.782V119.744H228.233V98.8417H196.879V130.195ZM259.587 161.549V88.3905H332.745V98.8417H280.489V119.744H322.294V130.195H280.489V151.098H332.745V161.549H259.587ZM364.098 161.549V151.098H353.647V140.646H343.196V109.293H353.647V98.8417H364.098V88.3905H405.903V98.8417H416.354V109.293H395.452V98.8417H374.55V109.293H364.098V140.646H374.55V151.098H395.452V140.646H416.354V151.098H405.903V161.549H364.098ZM426.805 161.549V88.3905H447.708V119.744H458.159V109.293H468.61V98.8417H479.061V88.3905H499.964V98.8417H489.513V109.293H479.061V119.744H468.61V130.195H479.061V140.646H489.513V151.098H499.964V161.549H468.61V151.098H458.159V140.646H447.708V161.549H426.805ZM520.866 161.549V151.098H510.415V98.8417H520.866V88.3905H573.122V98.8417H583.573V151.098H573.122V161.549H520.866ZM531.317 151.098H562.671V98.8417H531.317V151.098ZM594.024 161.549V88.3905H614.927V98.8417H625.378V109.293H635.829V119.744H646.28V88.3905H667.183V161.549H646.28V140.646H635.829V130.195H625.378V119.744H614.927V161.549H594.024Z" fill="#7AD0E5"/>
</g>
<g filter="url(#filter4_dddif_704_87724)">
<path d="M102.819 161.549V151.098H92.3676V88.3905H113.27V151.098H144.624V88.3905H165.526V151.098H155.075V161.549H102.819ZM175.977 161.549V88.3905H238.684V98.8417H249.135V130.195H228.233V140.646H238.684V151.098H249.135V161.549H217.782V151.098H207.331V140.646H196.879V161.549H175.977ZM196.879 130.195H217.782V119.744H228.233V98.8417H196.879V130.195ZM259.587 161.549V88.3905H332.745V98.8417H280.489V119.744H322.294V130.195H280.489V151.098H332.745V161.549H259.587ZM364.098 161.549V151.098H353.647V140.646H343.196V109.293H353.647V98.8417H364.098V88.3905H405.903V98.8417H416.354V109.293H395.452V98.8417H374.55V109.293H364.098V140.646H374.55V151.098H395.452V140.646H416.354V151.098H405.903V161.549H364.098ZM426.805 161.549V88.3905H447.708V119.744H458.159V109.293H468.61V98.8417H479.061V88.3905H499.964V98.8417H489.513V109.293H479.061V119.744H468.61V130.195H479.061V140.646H489.513V151.098H499.964V161.549H468.61V151.098H458.159V140.646H447.708V161.549H426.805ZM520.866 161.549V151.098H510.415V98.8417H520.866V88.3905H573.122V98.8417H583.573V151.098H573.122V161.549H520.866ZM531.317 151.098H562.671V98.8417H531.317V151.098ZM594.024 161.549V88.3905H614.927V98.8417H625.378V109.293H635.829V119.744H646.28V88.3905H667.183V161.549H646.28V140.646H635.829V130.195H625.378V119.744H614.927V161.549H594.024Z" fill="#7AD0E5"/>
</g>
<g filter="url(#filter5_f_704_87724)">
<path d="M159.696 284.618V225.947H176.459V276.237H209.986V284.618H159.696ZM226.749 284.618V276.237H218.367V234.328H226.749V225.947H268.657V234.328H277.039V276.237H268.657V284.618H226.749ZM235.13 276.237H260.275V234.328H235.13V276.237ZM285.42 284.618V242.71H293.802V234.328H302.184V225.947H327.328V234.328H335.71V242.71H344.092V284.618H327.328V267.855H302.184V284.618H285.42ZM302.184 259.473H327.328V242.71H318.947V234.328H310.565V242.71H302.184V259.473ZM352.473 284.618V225.947H394.382V234.328H402.763V242.71H411.145V267.855H402.763V276.237H394.382V284.618H352.473ZM369.237 276.237H386V267.855H394.382V242.71H386V234.328H369.237V276.237ZM427.908 284.618V276.237H444.671V234.328H427.908V225.947H478.198V234.328H461.435V276.237H478.198V284.618H427.908ZM486.58 284.618V225.947H503.343V234.328H511.725V242.71H520.106V251.092H528.488V225.947H545.251V284.618H528.488V267.855H520.106V259.473H511.725V251.092H503.343V284.618H486.58ZM570.396 284.618V276.237H562.015V267.855H553.633V242.71H562.015V234.328H570.396V225.947H612.304V234.328H578.778V242.71H570.396V267.855H578.778V276.237H595.541V259.473H587.159V251.092H612.304V284.618H570.396Z" fill="#DFA633"/>
</g>
<g filter="url(#filter6_f_704_87724)">
<path d="M159.696 284.618V225.947H176.459V276.237H209.986V284.618H159.696ZM226.749 284.618V276.237H218.367V234.328H226.749V225.947H268.657V234.328H277.039V276.237H268.657V284.618H226.749ZM235.13 276.237H260.275V234.328H235.13V276.237ZM285.42 284.618V242.71H293.802V234.328H302.184V225.947H327.328V234.328H335.71V242.71H344.092V284.618H327.328V267.855H302.184V284.618H285.42ZM302.184 259.473H327.328V242.71H318.947V234.328H310.565V242.71H302.184V259.473ZM352.473 284.618V225.947H394.382V234.328H402.763V242.71H411.145V267.855H402.763V276.237H394.382V284.618H352.473ZM369.237 276.237H386V267.855H394.382V242.71H386V234.328H369.237V276.237ZM427.908 284.618V276.237H444.671V234.328H427.908V225.947H478.198V234.328H461.435V276.237H478.198V284.618H427.908ZM486.58 284.618V225.947H503.343V234.328H511.725V242.71H520.106V251.092H528.488V225.947H545.251V284.618H528.488V267.855H520.106V259.473H511.725V251.092H503.343V284.618H486.58ZM570.396 284.618V276.237H562.015V267.855H553.633V242.71H562.015V234.328H570.396V225.947H612.304V234.328H578.778V242.71H570.396V267.855H578.778V276.237H595.541V259.473H587.159V251.092H612.304V284.618H570.396Z" fill="#DFA633"/>
</g>
<g filter="url(#filter7_f_704_87724)">
<path d="M159.696 289.618V230.947H176.459V281.237H209.986V289.618H159.696ZM226.749 289.618V281.237H218.367V239.328H226.749V230.947H268.657V239.328H277.039V281.237H268.657V289.618H226.749ZM235.13 281.237H260.275V239.328H235.13V281.237ZM285.42 289.618V247.71H293.802V239.328H302.184V230.947H327.328V239.328H335.71V247.71H344.092V289.618H327.328V272.855H302.184V289.618H285.42ZM302.184 264.473H327.328V247.71H318.947V239.328H310.565V247.71H302.184V264.473ZM352.473 289.618V230.947H394.382V239.328H402.763V247.71H411.145V272.855H402.763V281.237H394.382V289.618H352.473ZM369.237 281.237H386V272.855H394.382V247.71H386V239.328H369.237V281.237ZM427.908 289.618V281.237H444.671V239.328H427.908V230.947H478.198V239.328H461.435V281.237H478.198V289.618H427.908ZM486.58 289.618V230.947H503.343V239.328H511.725V247.71H520.106V256.092H528.488V230.947H545.251V289.618H528.488V272.855H520.106V264.473H511.725V256.092H503.343V289.618H486.58ZM570.396 289.618V281.237H562.015V272.855H553.633V247.71H562.015V239.328H570.396V230.947H612.304V239.328H578.778V247.71H570.396V272.855H578.778V281.237H595.541V264.473H587.159V256.092H612.304V289.618H570.396Z" fill="#DFA633"/>
</g>
<g filter="url(#filter8_f_704_87724)">
<path d="M159.696 278.618V219.947H176.459V270.237H209.986V278.618H159.696ZM226.749 278.618V270.237H218.367V228.328H226.749V219.947H268.657V228.328H277.039V270.237H268.657V278.618H226.749ZM235.13 270.237H260.275V228.328H235.13V270.237ZM285.42 278.618V236.71H293.802V228.328H302.184V219.947H327.328V228.328H335.71V236.71H344.092V278.618H327.328V261.855H302.184V278.618H285.42ZM302.184 253.473H327.328V236.71H318.947V228.328H310.565V236.71H302.184V253.473ZM352.473 278.618V219.947H394.382V228.328H402.763V236.71H411.145V261.855H402.763V270.237H394.382V278.618H352.473ZM369.237 270.237H386V261.855H394.382V236.71H386V228.328H369.237V270.237ZM427.908 278.618V270.237H444.671V228.328H427.908V219.947H478.198V228.328H461.435V270.237H478.198V278.618H427.908ZM486.58 278.618V219.947H503.343V228.328H511.725V236.71H520.106V245.092H528.488V219.947H545.251V278.618H528.488V261.855H520.106V253.473H511.725V245.092H503.343V278.618H486.58ZM570.396 278.618V270.237H562.015V261.855H553.633V236.71H562.015V228.328H570.396V219.947H612.304V228.328H578.778V236.71H570.396V261.855H578.778V270.237H595.541V253.473H587.159V245.092H612.304V278.618H570.396Z" fill="#DFA633"/>
</g>
<g filter="url(#filter9_ddif_704_87724)">
<path d="M159.696 278.618V219.947H176.459V270.237H209.986V278.618H159.696ZM226.749 278.618V270.237H218.367V228.328H226.749V219.947H268.657V228.328H277.039V270.237H268.657V278.618H226.749ZM235.13 270.237H260.275V228.328H235.13V270.237ZM285.42 278.618V236.71H293.802V228.328H302.184V219.947H327.328V228.328H335.71V236.71H344.092V278.618H327.328V261.855H302.184V278.618H285.42ZM302.184 253.473H327.328V236.71H318.947V228.328H310.565V236.71H302.184V253.473ZM352.473 278.618V219.947H394.382V228.328H402.763V236.71H411.145V261.855H402.763V270.237H394.382V278.618H352.473ZM369.237 270.237H386V261.855H394.382V236.71H386V228.328H369.237V270.237ZM427.908 278.618V270.237H444.671V228.328H427.908V219.947H478.198V228.328H461.435V270.237H478.198V278.618H427.908ZM486.58 278.618V219.947H503.343V228.328H511.725V236.71H520.106V245.092H528.488V219.947H545.251V278.618H528.488V261.855H520.106V253.473H511.725V245.092H503.343V278.618H486.58ZM570.396 278.618V270.237H562.015V261.855H553.633V236.71H562.015V228.328H570.396V219.947H612.304V228.328H578.778V236.71H570.396V261.855H578.778V270.237H595.541V253.473H587.159V245.092H612.304V278.618H570.396Z" fill="#DFA633"/>
</g>
<defs>
<filter id="filter0_f_704_87724" x="90.2773" y="86.3003" width="578.996" height="77.3388" filterUnits="userSpaceOnUse" color-interpolation-filters="sRGB">
<feFlood flood-opacity="0" result="BackgroundImageFix"/>
<feBlend mode="normal" in="SourceGraphic" in2="BackgroundImageFix" result="shape"/>
<feGaussianBlur stdDeviation="1.04512" result="effect1_foregroundBlur_704_87724"/>
</filter>
<filter id="filter1_f_704_87724" x="90.2773" y="86.3003" width="578.996" height="77.3388" filterUnits="userSpaceOnUse" color-interpolation-filters="sRGB">
<feFlood flood-opacity="0" result="BackgroundImageFix"/>
<feBlend mode="normal" in="SourceGraphic" in2="BackgroundImageFix" result="shape"/>
<feGaussianBlur stdDeviation="1.04512" result="effect1_foregroundBlur_704_87724"/>
</filter>
<filter id="filter2_f_704_87724" x="90.2773" y="86.3003" width="578.996" height="77.3388" filterUnits="userSpaceOnUse" color-interpolation-filters="sRGB">
<feFlood flood-opacity="0" result="BackgroundImageFix"/>
<feBlend mode="normal" in="SourceGraphic" in2="BackgroundImageFix" result="shape"/>
<feGaussianBlur stdDeviation="1.04512" result="effect1_foregroundBlur_704_87724"/>
</filter>
<filter id="filter3_f_704_87724" x="90.2773" y="86.3003" width="578.996" height="77.3388" filterUnits="userSpaceOnUse" color-interpolation-filters="sRGB">
<feFlood flood-opacity="0" result="BackgroundImageFix"/>
<feBlend mode="normal" in="SourceGraphic" in2="BackgroundImageFix" result="shape"/>
<feGaussianBlur stdDeviation="1.04512" result="effect1_foregroundBlur_704_87724"/>
</filter>
<filter id="filter4_dddif_704_87724" x="0.397171" y="0.600563" width="758.756" height="257.099" filterUnits="userSpaceOnUse" color-interpolation-filters="sRGB">
<feFlood flood-opacity="0" result="BackgroundImageFix"/>
<feColorMatrix in="SourceAlpha" type="matrix" values="0 0 0 0 0 0 0 0 0 0 0 0 0 0 0 0 0 0 127 0" result="hardAlpha"/>
<feOffset dy="4.18047"/>
<feGaussianBlur stdDeviation="12.5414"/>
<feComposite in2="hardAlpha" operator="out"/>
<feColorMatrix type="matrix" values="0 0 0 0 0.352941 0 0 0 0 0.815686 0 0 0 0 0.933333 0 0 0 1 0"/>
<feBlend mode="normal" in2="BackgroundImageFix" result="effect1_dropShadow_704_87724"/>
<feColorMatrix in="SourceAlpha" type="matrix" values="0 0 0 0 0 0 0 0 0 0 0 0 0 0 0 0 0 0 127 0" result="hardAlpha"/>
<feOffset dy="4.18047"/>
<feGaussianBlur stdDeviation="45.9852"/>
<feComposite in2="hardAlpha" operator="out"/>
<feColorMatrix type="matrix" values="0 0 0 0 0.0666667 0 0 0 0 0.145098 0 0 0 0 0.572549 0 0 0 1 0"/>
<feBlend mode="normal" in2="effect1_dropShadow_704_87724" result="effect2_dropShadow_704_87724"/>
<feColorMatrix in="SourceAlpha" type="matrix" values="0 0 0 0 0 0 0 0 0 0 0 0 0 0 0 0 0 0 127 0" result="hardAlpha"/>
<feOffset dy="4.18047"/>
<feGaussianBlur stdDeviation="45.9852"/>
<feComposite in2="hardAlpha" operator="out"/>
<feColorMatrix type="matrix" values="0 0 0 0 0.0682416 0 0 0 0 0.143836 0 0 0 0 0.572203 0 0 0 1 0"/>
<feBlend mode="normal" in2="effect2_dropShadow_704_87724" result="effect3_dropShadow_704_87724"/>
<feBlend mode="normal" in="SourceGraphic" in2="effect3_dropShadow_704_87724" result="shape"/>
<feColorMatrix in="SourceAlpha" type="matrix" values="0 0 0 0 0 0 0 0 0 0 0 0 0 0 0 0 0 0 127 0" result="hardAlpha"/>
<feOffset/>
<feGaussianBlur stdDeviation="25.0828"/>
<feComposite in2="hardAlpha" operator="arithmetic" k2="-1" k3="1"/>
<feColorMatrix type="matrix" values="0 0 0 0 0.352941 0 0 0 0 0.815686 0 0 0 0 0.933333 0 0 0 1 0"/>
<feBlend mode="normal" in2="shape" result="effect4_innerShadow_704_87724"/>
<feGaussianBlur stdDeviation="1.04512" result="effect5_foregroundBlur_704_87724"/>
</filter>
<filter id="filter5_f_704_87724" x="158.019" y="224.271" width="455.961" height="62.0242" filterUnits="userSpaceOnUse" color-interpolation-filters="sRGB">
<feFlood flood-opacity="0" result="BackgroundImageFix"/>
<feBlend mode="normal" in="SourceGraphic" in2="BackgroundImageFix" result="shape"/>
<feGaussianBlur stdDeviation="0.838164" result="effect1_foregroundBlur_704_87724"/>
</filter>
<filter id="filter6_f_704_87724" x="158.019" y="224.271" width="455.961" height="62.0242" filterUnits="userSpaceOnUse" color-interpolation-filters="sRGB">
<feFlood flood-opacity="0" result="BackgroundImageFix"/>
<feBlend mode="normal" in="SourceGraphic" in2="BackgroundImageFix" result="shape"/>
<feGaussianBlur stdDeviation="0.838164" result="effect1_foregroundBlur_704_87724"/>
</filter>
<filter id="filter7_f_704_87724" x="158.019" y="229.271" width="455.961" height="62.0242" filterUnits="userSpaceOnUse" color-interpolation-filters="sRGB">
<feFlood flood-opacity="0" result="BackgroundImageFix"/>
<feBlend mode="normal" in="SourceGraphic" in2="BackgroundImageFix" result="shape"/>
<feGaussianBlur stdDeviation="0.838164" result="effect1_foregroundBlur_704_87724"/>
</filter>
<filter id="filter8_f_704_87724" x="158.019" y="218.271" width="455.961" height="62.0242" filterUnits="userSpaceOnUse" color-interpolation-filters="sRGB">
<feFlood flood-opacity="0" result="BackgroundImageFix"/>
<feBlend mode="normal" in="SourceGraphic" in2="BackgroundImageFix" result="shape"/>
<feGaussianBlur stdDeviation="0.838164" result="effect1_foregroundBlur_704_87724"/>
</filter>
<filter id="filter9_ddif_704_87724" x="85.9372" y="149.541" width="600.126" height="206.188" filterUnits="userSpaceOnUse" color-interpolation-filters="sRGB">
<feFlood flood-opacity="0" result="BackgroundImageFix"/>
<feColorMatrix in="SourceAlpha" type="matrix" values="0 0 0 0 0 0 0 0 0 0 0 0 0 0 0 0 0 0 127 0" result="hardAlpha"/>
<feOffset dy="3.35266"/>
<feGaussianBlur stdDeviation="10.058"/>
<feComposite in2="hardAlpha" operator="out"/>
<feColorMatrix type="matrix" values="0 0 0 0 0.87451 0 0 0 0 0.65098 0 0 0 0 0.2 0 0 0 1 0"/>
<feBlend mode="normal" in2="BackgroundImageFix" result="effect1_dropShadow_704_87724"/>
<feColorMatrix in="SourceAlpha" type="matrix" values="0 0 0 0 0 0 0 0 0 0 0 0 0 0 0 0 0 0 127 0" result="hardAlpha"/>
<feOffset dy="3.35266"/>
<feGaussianBlur stdDeviation="36.8792"/>
<feComposite in2="hardAlpha" operator="out"/>
<feColorMatrix type="matrix" values="0 0 0 0 0.87451 0 0 0 0 0.65098 0 0 0 0 0.2 0 0 0 1 0"/>
<feBlend mode="normal" in2="effect1_dropShadow_704_87724" result="effect2_dropShadow_704_87724"/>
<feBlend mode="normal" in="SourceGraphic" in2="effect2_dropShadow_704_87724" result="shape"/>
<feColorMatrix in="SourceAlpha" type="matrix" values="0 0 0 0 0 0 0 0 0 0 0 0 0 0 0 0 0 0 127 0" result="hardAlpha"/>
<feOffset/>
<feGaussianBlur stdDeviation="20.1159"/>
<feComposite in2="hardAlpha" operator="arithmetic" k2="-1" k3="1"/>
<feColorMatrix type="matrix" values="0 0 0 0 0.68 0 0 0 0 1 0 0 0 0 0 0 0 0 1 0"/>
<feBlend mode="normal" in2="shape" result="effect3_innerShadow_704_87724"/>
<feGaussianBlur stdDeviation="0.838164" result="effect4_foregroundBlur_704_87724"/>
</filter>
</defs>
</svg>
