<svg width="48" height="54" viewBox="0 0 48 54" fill="none" xmlns="http://www.w3.org/2000/svg">
<g clip-path="url(#clip0_3015_33)">
<path d="M27.2271 51.8948H25.614V53.5008H27.2271V51.8948Z" fill="#337CFB"/>
<path d="M25.6153 51.8948H24.0022V53.5008H25.6153V51.8948Z" fill="#337CFB"/>
<path d="M23.9991 51.8948H22.386V53.5008H23.9991V51.8948Z" fill="#337CFB"/>
<path d="M22.387 51.8948H20.7739V53.5008H22.387V51.8948Z" fill="#337CFB"/>
<path d="M30.451 50.2887H28.8379V51.8947H30.451V50.2887Z" fill="#337CFB"/>
<path d="M28.8392 50.2887H27.2261V51.8947H28.8392V50.2887Z" fill="#337CFB"/>
<path d="M27.2271 50.2887H25.614V51.8947H27.2271V50.2887Z" fill="#337CFB"/>
<path d="M25.6153 50.2887H24.0022V51.8947H25.6153V50.2887Z" fill="#337CFB"/>
<path d="M23.9991 50.2887H22.386V51.8947H23.9991V50.2887Z" fill="#337CFB"/>
<path d="M22.387 50.2887H20.7739V51.8947H22.387V50.2887Z" fill="#337CFB"/>
<path d="M20.773 50.2887H19.1599V51.8947H20.773V50.2887Z" fill="#337CFB"/>
<path d="M19.1612 50.2887H17.5481V51.8947H19.1612V50.2887Z" fill="#337CFB"/>
<path d="M33.679 48.6825H32.0659V50.2885H33.679V48.6825Z" fill="#337CFB"/>
<path d="M32.065 48.6825H30.4519V50.2885H32.065V48.6825Z" fill="#337CFB"/>
<path d="M30.451 48.6825H28.8379V50.2885H30.451V48.6825Z" fill="#337CFB"/>
<path d="M28.8392 48.6825H27.2261V50.2885H28.8392V48.6825Z" fill="#337CFB"/>
<path d="M27.2271 48.6825H25.614V50.2885H27.2271V48.6825Z" fill="#337CFB"/>
<path d="M25.6153 48.6825H24.0022V50.2885H25.6153V48.6825Z" fill="#337CFB"/>
<path d="M23.9991 48.6825H22.386V50.2885H23.9991V48.6825Z" fill="#337CFB"/>
<path d="M22.387 48.6825H20.7739V50.2885H22.387V48.6825Z" fill="#337CFB"/>
<path d="M20.773 48.6825H19.1599V50.2885H20.773V48.6825Z" fill="#337CFB"/>
<path d="M19.1612 48.6825H17.5481V50.2885H19.1612V48.6825Z" fill="#337CFB"/>
<path d="M17.5491 48.6825H15.936V50.2885H17.5491V48.6825Z" fill="#337CFB"/>
<path d="M15.9332 48.6825H14.3201V50.2885H15.9332V48.6825Z" fill="#337CFB"/>
<path d="M36.9051 47.0763H35.292V48.6823H36.9051V47.0763Z" fill="#337CFB"/>
<path d="M35.2911 47.0763H33.678V48.6823H35.2911V47.0763Z" fill="#337CFB"/>
<path d="M33.679 47.0763H32.0659V48.6823H33.679V47.0763Z" fill="#337CFB"/>
<path d="M32.065 47.0763H30.4519V48.6823H32.065V47.0763Z" fill="#337CFB"/>
<path d="M30.451 47.0763H28.8379V48.6823H30.451V47.0763Z" fill="#337CFB"/>
<path d="M28.8392 47.0763H27.2261V48.6823H28.8392V47.0763Z" fill="#337CFB"/>
<path d="M27.2271 47.0763H25.614V48.6823H27.2271V47.0763Z" fill="#337CFB"/>
<path d="M25.6153 47.0763H24.0022V48.6823H25.6153V47.0763Z" fill="#337CFB"/>
<path d="M23.9991 47.0763H22.386V48.6823H23.9991V47.0763Z" fill="#337CFB"/>
<path d="M22.387 47.0763H20.7739V48.6823H22.387V47.0763Z" fill="#337CFB"/>
<path d="M20.773 47.0763H19.1599V48.6823H20.773V47.0763Z" fill="#337CFB"/>
<path d="M19.1612 47.0763H17.5481V48.6823H19.1612V47.0763Z" fill="#337CFB"/>
<path d="M17.5491 47.0763H15.936V48.6823H17.5491V47.0763Z" fill="#337CFB"/>
<path d="M15.9332 47.0763H14.3201V48.6823H15.9332V47.0763Z" fill="#337CFB"/>
<path d="M14.3211 47.0763H12.708V48.6823H14.3211V47.0763Z" fill="#337CFB"/>
<path d="M12.7093 47.0763H11.0962V48.6823H12.7093V47.0763Z" fill="#337CFB"/>
<path d="M38.5169 45.4707H36.9038V47.0767H38.5169V45.4707Z" fill="#337CFB"/>
<path d="M36.9051 45.4707H35.292V47.0767H36.9051V45.4707Z" fill="#337CFB"/>
<path d="M35.2911 45.4707H33.678V47.0767H35.2911V45.4707Z" fill="#337CFB"/>
<path d="M33.679 45.4707H32.0659V47.0767H33.679V45.4707Z" fill="#337CFB"/>
<path d="M32.065 45.4707H30.4519V47.0767H32.065V45.4707Z" fill="#337CFB"/>
<path d="M30.451 45.4707H28.8379V47.0767H30.451V45.4707Z" fill="#337CFB"/>
<path d="M28.8392 45.4707H27.2261V47.0767H28.8392V45.4707Z" fill="#337CFB"/>
<path d="M27.2271 45.4707H25.614V47.0767H27.2271V45.4707Z" fill="#337CFB"/>
<path d="M25.6153 45.4707H24.0022V47.0767H25.6153V45.4707Z" fill="#337CFB"/>
<path d="M23.9991 45.4707H22.386V47.0767H23.9991V45.4707Z" fill="#337CFB"/>
<path d="M22.387 45.4707H20.7739V47.0767H22.387V45.4707Z" fill="#337CFB"/>
<path d="M20.773 45.4707H19.1599V47.0767H20.773V45.4707Z" fill="#337CFB"/>
<path d="M19.1612 45.4707H17.5481V47.0767H19.1612V45.4707Z" fill="#337CFB"/>
<path d="M17.5491 45.4707H15.936V47.0767H17.5491V45.4707Z" fill="#337CFB"/>
<path d="M15.9332 45.4707H14.3201V47.0767H15.9332V45.4707Z" fill="#337CFB"/>
<path d="M14.3211 45.4707H12.708V47.0767H14.3211V45.4707Z" fill="#337CFB"/>
<path d="M12.7093 45.4707H11.0962V47.0767H12.7093V45.4707Z" fill="#337CFB"/>
<path d="M11.0972 45.4707H9.48413V47.0767H11.0972V45.4707Z" fill="#337CFB"/>
<path d="M41.7452 43.864H40.1321V45.47H41.7452V43.864Z" fill="#337CFB"/>
<path d="M40.129 43.864H38.5159V45.47H40.129V43.864Z" fill="#337CFB"/>
<path d="M38.5169 43.864H36.9038V45.47H38.5169V43.864Z" fill="#337CFB"/>
<path d="M36.9051 43.864H35.292V45.47H36.9051V43.864Z" fill="#337CFB"/>
<path d="M35.2911 43.864H33.678V45.47H35.2911V43.864Z" fill="#337CFB"/>
<path d="M33.679 43.864H32.0659V45.47H33.679V43.864Z" fill="#337CFB"/>
<path d="M32.065 43.864H30.4519V45.47H32.065V43.864Z" fill="#337CFB"/>
<path d="M30.451 43.864H28.8379V45.47H30.451V43.864Z" fill="#337CFB"/>
<path d="M28.8392 43.864H27.2261V45.47H28.8392V43.864Z" fill="#337CFB"/>
<path d="M27.2271 43.864H25.614V45.47H27.2271V43.864Z" fill="#337CFB"/>
<path d="M25.6153 43.864H24.0022V45.47H25.6153V43.864Z" fill="#337CFB"/>
<path d="M23.9991 43.864H22.386V45.47H23.9991V43.864Z" fill="#337CFB"/>
<path d="M22.387 43.864H20.7739V45.47H22.387V43.864Z" fill="#337CFB"/>
<path d="M20.773 43.864H19.1599V45.47H20.773V43.864Z" fill="#337CFB"/>
<path d="M19.1612 43.864H17.5481V45.47H19.1612V43.864Z" fill="#337CFB"/>
<path d="M17.5491 43.864H15.936V45.47H17.5491V43.864Z" fill="#337CFB"/>
<path d="M15.9332 43.864H14.3201V45.47H15.9332V43.864Z" fill="#337CFB"/>
<path d="M14.3211 43.864H12.708V45.47H14.3211V43.864Z" fill="#337CFB"/>
<path d="M12.7093 43.864H11.0962V45.47H12.7093V43.864Z" fill="#337CFB"/>
<path d="M11.0972 43.864H9.48413V45.47H11.0972V43.864Z" fill="#337CFB"/>
<path d="M9.48103 43.864H7.86792V45.47H9.48103V43.864Z" fill="#337CFB"/>
<path d="M7.86921 43.864H6.2561V45.47H7.86921V43.864Z" fill="#337CFB"/>
<path d="M44.9691 42.2581H43.356V43.8641H44.9691V42.2581Z" fill="#337CFB"/>
<path d="M43.357 42.2581H41.7439V43.8641H43.357V42.2581Z" fill="#337CFB"/>
<path d="M41.7452 42.2581H40.1321V43.8641H41.7452V42.2581Z" fill="#337CFB"/>
<path d="M40.129 42.2581H38.5159V43.8641H40.129V42.2581Z" fill="#337CFB"/>
<path d="M38.5169 42.2581H36.9038V43.8641H38.5169V42.2581Z" fill="#337CFB"/>
<path d="M36.9051 42.2581H35.292V43.8641H36.9051V42.2581Z" fill="#337CFB"/>
<path d="M35.2911 42.2581H33.678V43.8641H35.2911V42.2581Z" fill="#337CFB"/>
<path d="M33.679 42.2581H32.0659V43.8641H33.679V42.2581Z" fill="#337CFB"/>
<path d="M32.065 42.2581H30.4519V43.8641H32.065V42.2581Z" fill="#337CFB"/>
<path d="M30.451 42.2581H28.8379V43.8641H30.451V42.2581Z" fill="#337CFB"/>
<path d="M28.8392 42.2581H27.2261V43.8641H28.8392V42.2581Z" fill="#337CFB"/>
<path d="M27.2271 42.2581H25.614V43.8641H27.2271V42.2581Z" fill="#337CFB"/>
<path d="M25.6153 42.2581H24.0022V43.8641H25.6153V42.2581Z" fill="#337CFB"/>
<path d="M23.9991 42.2581H22.386V43.8641H23.9991V42.2581Z" fill="#337CFB"/>
<path d="M22.387 42.2581H20.7739V43.8641H22.387V42.2581Z" fill="#337CFB"/>
<path d="M20.773 42.2581H19.1599V43.8641H20.773V42.2581Z" fill="#337CFB"/>
<path d="M19.1612 42.2581H17.5481V43.8641H19.1612V42.2581Z" fill="#337CFB"/>
<path d="M17.5491 42.2581H15.936V43.8641H17.5491V42.2581Z" fill="#337CFB"/>
<path d="M15.9332 42.2581H14.3201V43.8641H15.9332V42.2581Z" fill="#337CFB"/>
<path d="M14.3211 42.2581H12.708V43.8641H14.3211V42.2581Z" fill="#337CFB"/>
<path d="M12.7093 42.2581H11.0962V43.8641H12.7093V42.2581Z" fill="#337CFB"/>
<path d="M11.0972 42.2581H9.48413V43.8641H11.0972V42.2581Z" fill="#337CFB"/>
<path d="M9.48103 42.2581H7.86792V43.8641H9.48103V42.2581Z" fill="#337CFB"/>
<path d="M7.86921 42.2581H6.2561V43.8641H7.86921V42.2581Z" fill="#337CFB"/>
<path d="M6.25715 42.2581H4.64404V43.8641H6.25715V42.2581Z" fill="#337CFB"/>
<path d="M4.64314 42.2581H3.03003V43.8641H4.64314V42.2581Z" fill="#337CFB"/>
<path d="M46.5809 40.6522H44.9678V42.2582H46.5809V40.6522Z" fill="#337CFB"/>
<path d="M44.9691 40.6522H43.356V42.2582H44.9691V40.6522Z" fill="#337CFB"/>
<path d="M43.357 40.6522H41.7439V42.2582H43.357V40.6522Z" fill="#337CFB"/>
<path d="M41.7452 40.6522H40.1321V42.2582H41.7452V40.6522Z" fill="#337CFB"/>
<path d="M40.129 40.6522H38.5159V42.2582H40.129V40.6522Z" fill="#337CFB"/>
<path d="M38.5169 40.6522H36.9038V42.2582H38.5169V40.6522Z" fill="#337CFB"/>
<path d="M36.9051 40.6522H35.292V42.2582H36.9051V40.6522Z" fill="#337CFB"/>
<path d="M35.2911 40.6522H33.678V42.2582H35.2911V40.6522Z" fill="#337CFB"/>
<path d="M33.679 40.6522H32.0659V42.2582H33.679V40.6522Z" fill="#337CFB"/>
<path d="M32.065 40.6522H30.4519V42.2582H32.065V40.6522Z" fill="#337CFB"/>
<path d="M30.451 40.6522H28.8379V42.2582H30.451V40.6522Z" fill="#337CFB"/>
<path d="M28.8392 40.6522H27.2261V42.2582H28.8392V40.6522Z" fill="#337CFB"/>
<path d="M27.2271 40.6522H25.614V42.2582H27.2271V40.6522Z" fill="#337CFB"/>
<path d="M25.6153 40.6522H24.0022V42.2582H25.6153V40.6522Z" fill="#337CFB"/>
<path d="M23.9991 40.6522H22.386V42.2582H23.9991V40.6522Z" fill="#337CFB"/>
<path d="M22.387 40.6522H20.7739V42.2582H22.387V40.6522Z" fill="#337CFB"/>
<path d="M20.773 40.6522H19.1599V42.2582H20.773V40.6522Z" fill="#337CFB"/>
<path d="M19.1612 40.6522H17.5481V42.2582H19.1612V40.6522Z" fill="#337CFB"/>
<path d="M17.5491 40.6522H15.936V42.2582H17.5491V40.6522Z" fill="#337CFB"/>
<path d="M15.9332 40.6522H14.3201V42.2582H15.9332V40.6522Z" fill="#337CFB"/>
<path d="M14.3211 40.6522H12.708V42.2582H14.3211V40.6522Z" fill="#337CFB"/>
<path d="M12.7093 40.6522H11.0962V42.2582H12.7093V40.6522Z" fill="#337CFB"/>
<path d="M11.0972 40.6522H9.48413V42.2582H11.0972V40.6522Z" fill="#337CFB"/>
<path d="M9.48103 40.6522H7.86792V42.2582H9.48103V40.6522Z" fill="#337CFB"/>
<path d="M7.86921 40.6522H6.2561V42.2582H7.86921V40.6522Z" fill="#337CFB"/>
<path d="M6.25715 40.6522H4.64404V42.2582H6.25715V40.6522Z" fill="#337CFB"/>
<path d="M4.64314 40.6522H3.03003V42.2582H4.64314V40.6522Z" fill="#337CFB"/>
<path d="M3.03132 40.6522H1.41821V42.2582H3.03132V40.6522Z" fill="#337CFB"/>
<path d="M46.5809 39.046H44.9678V40.652H46.5809V39.046Z" fill="#337CFB"/>
<path d="M44.9691 39.046H43.356V40.652H44.9691V39.046Z" fill="#337CFB"/>
<path d="M43.357 39.046H41.7439V40.652H43.357V39.046Z" fill="#337CFB"/>
<path d="M41.7452 39.046H40.1321V40.652H41.7452V39.046Z" fill="#337CFB"/>
<path d="M40.129 39.046H38.5159V40.652H40.129V39.046Z" fill="#337CFB"/>
<path d="M38.5169 39.046H36.9038V40.652H38.5169V39.046Z" fill="#337CFB"/>
<path d="M36.9051 39.046H35.292V40.652H36.9051V39.046Z" fill="#337CFB"/>
<path d="M35.2911 39.046H33.678V40.652H35.2911V39.046Z" fill="#337CFB"/>
<path d="M33.679 39.046H32.0659V40.652H33.679V39.046Z" fill="#337CFB"/>
<path d="M32.065 39.046H30.4519V40.652H32.065V39.046Z" fill="#337CFB"/>
<path d="M30.451 39.046H28.8379V40.652H30.451V39.046Z" fill="#337CFB"/>
<path d="M28.8392 39.046H27.2261V40.652H28.8392V39.046Z" fill="#337CFB"/>
<path d="M27.2271 39.046H25.614V40.652H27.2271V39.046Z" fill="#337CFB"/>
<path d="M25.6153 39.046H24.0022V40.652H25.6153V39.046Z" fill="#337CFB"/>
<path d="M23.9991 39.046H22.386V40.652H23.9991V39.046Z" fill="#337CFB"/>
<path d="M22.387 39.046H20.7739V40.652H22.387V39.046Z" fill="#337CFB"/>
<path d="M20.773 39.046H19.1599V40.652H20.773V39.046Z" fill="#337CFB"/>
<path d="M19.1612 39.046H17.5481V40.652H19.1612V39.046Z" fill="#337CFB"/>
<path d="M17.5491 39.046H15.936V40.652H17.5491V39.046Z" fill="#337CFB"/>
<path d="M15.9332 39.046H14.3201V40.652H15.9332V39.046Z" fill="#337CFB"/>
<path d="M14.3211 39.046H12.708V40.652H14.3211V39.046Z" fill="#337CFB"/>
<path d="M12.7093 39.046H11.0962V40.652H12.7093V39.046Z" fill="#337CFB"/>
<path d="M11.0972 39.046H9.48413V40.652H11.0972V39.046Z" fill="#337CFB"/>
<path d="M9.48103 39.046H7.86792V40.652H9.48103V39.046Z" fill="#337CFB"/>
<path d="M7.86921 39.046H6.2561V40.652H7.86921V39.046Z" fill="#337CFB"/>
<path d="M6.25715 39.046H4.64404V40.652H6.25715V39.046Z" fill="#337CFB"/>
<path d="M4.64314 39.046H3.03003V40.652H4.64314V39.046Z" fill="#337CFB"/>
<path d="M3.03132 39.046H1.41821V40.652H3.03132V39.046Z" fill="#337CFB"/>
<path d="M48.1949 37.4396H46.5818V39.0456H48.1949V37.4396Z" fill="#337CFB"/>
<path d="M46.5809 37.4396H44.9678V39.0456H46.5809V37.4396Z" fill="#337CFB"/>
<path d="M44.9691 37.4396H43.356V39.0456H44.9691V37.4396Z" fill="#337CFB"/>
<path d="M43.357 37.4396H41.7439V39.0456H43.357V37.4396Z" fill="#337CFB"/>
<path d="M41.7452 37.4396H40.1321V39.0456H41.7452V37.4396Z" fill="#337CFB"/>
<path d="M40.129 37.4396H38.5159V39.0456H40.129V37.4396Z" fill="#337CFB"/>
<path d="M38.5169 37.4396H36.9038V39.0456H38.5169V37.4396Z" fill="#337CFB"/>
<path d="M36.9051 37.4396H35.292V39.0456H36.9051V37.4396Z" fill="#337CFB"/>
<path d="M35.2911 37.4396H33.678V39.0456H35.2911V37.4396Z" fill="#337CFB"/>
<path d="M33.679 37.4396H32.0659V39.0456H33.679V37.4396Z" fill="#337CFB"/>
<path d="M32.065 37.4396H30.4519V39.0456H32.065V37.4396Z" fill="#337CFB"/>
<path d="M30.451 37.4396H28.8379V39.0456H30.451V37.4396Z" fill="#337CFB"/>
<path d="M28.8392 37.4396H27.2261V39.0456H28.8392V37.4396Z" fill="#337CFB"/>
<path d="M27.2271 37.4396H25.614V39.0456H27.2271V37.4396Z" fill="#337CFB"/>
<path d="M25.6153 37.4396H24.0022V39.0456H25.6153V37.4396Z" fill="#337CFB"/>
<path d="M23.9991 37.4396H22.386V39.0456H23.9991V37.4396Z" fill="#337CFB"/>
<path d="M22.387 37.4396H20.7739V39.0456H22.387V37.4396Z" fill="#337CFB"/>
<path d="M20.773 37.4396H19.1599V39.0456H20.773V37.4396Z" fill="#337CFB"/>
<path d="M19.1612 37.4396H17.5481V39.0456H19.1612V37.4396Z" fill="#337CFB"/>
<path d="M17.5491 37.4396H15.936V39.0456H17.5491V37.4396Z" fill="#337CFB"/>
<path d="M15.9332 37.4396H14.3201V39.0456H15.9332V37.4396Z" fill="#337CFB"/>
<path d="M14.3211 37.4396H12.708V39.0456H14.3211V37.4396Z" fill="#337CFB"/>
<path d="M12.7093 37.4396H11.0962V39.0456H12.7093V37.4396Z" fill="#337CFB"/>
<path d="M11.0972 37.4396H9.48413V39.0456H11.0972V37.4396Z" fill="#337CFB"/>
<path d="M9.48103 37.4396H7.86792V39.0456H9.48103V37.4396Z" fill="#337CFB"/>
<path d="M7.86921 37.4396H6.2561V39.0456H7.86921V37.4396Z" fill="#337CFB"/>
<path d="M6.25715 37.4396H4.64404V39.0456H6.25715V37.4396Z" fill="#337CFB"/>
<path d="M4.64314 37.4396H3.03003V39.0456H4.64314V37.4396Z" fill="#337CFB"/>
<path d="M3.03132 37.4396H1.41821V39.0456H3.03132V37.4396Z" fill="#337CFB"/>
<path d="M1.41926 37.4396H-0.193848V39.0456H1.41926V37.4396Z" fill="#337CFB"/>
<path d="M48.1949 35.8337H46.5818V37.4397H48.1949V35.8337Z" fill="#337CFB"/>
<path d="M46.5809 35.8337H44.9678V37.4397H46.5809V35.8337Z" fill="#337CFB"/>
<path d="M44.9691 35.8337H43.356V37.4397H44.9691V35.8337Z" fill="#337CFB"/>
<path d="M43.357 35.8337H41.7439V37.4397H43.357V35.8337Z" fill="#337CFB"/>
<path d="M41.7452 35.8337H40.1321V37.4397H41.7452V35.8337Z" fill="#337CFB"/>
<path d="M40.129 35.8337H38.5159V37.4397H40.129V35.8337Z" fill="#337CFB"/>
<path d="M38.5169 35.8337H36.9038V37.4397H38.5169V35.8337Z" fill="#337CFB"/>
<path d="M36.9051 35.8337H35.292V37.4397H36.9051V35.8337Z" fill="#337CFB"/>
<path d="M35.2911 35.8337H33.678V37.4397H35.2911V35.8337Z" fill="#337CFB"/>
<path d="M33.679 35.8337H32.0659V37.4397H33.679V35.8337Z" fill="#337CFB"/>
<path d="M32.065 35.8337H30.4519V37.4397H32.065V35.8337Z" fill="#337CFB"/>
<path d="M30.451 35.8337H28.8379V37.4397H30.451V35.8337Z" fill="#337CFB"/>
<path d="M28.8392 35.8337H27.2261V37.4397H28.8392V35.8337Z" fill="#337CFB"/>
<path d="M27.2271 35.8337H25.614V37.4397H27.2271V35.8337Z" fill="#337CFB"/>
<path d="M22.387 35.8337H20.7739V37.4397H22.387V35.8337Z" fill="#337CFB"/>
<path d="M20.773 35.8337H19.1599V37.4397H20.773V35.8337Z" fill="#337CFB"/>
<path d="M19.1612 35.8337H17.5481V37.4397H19.1612V35.8337Z" fill="#337CFB"/>
<path d="M17.5491 35.8337H15.936V37.4397H17.5491V35.8337Z" fill="#337CFB"/>
<path d="M15.9332 35.8337H14.3201V37.4397H15.9332V35.8337Z" fill="#337CFB"/>
<path d="M14.3211 35.8337H12.708V37.4397H14.3211V35.8337Z" fill="#337CFB"/>
<path d="M12.7093 35.8337H11.0962V37.4397H12.7093V35.8337Z" fill="#337CFB"/>
<path d="M11.0972 35.8337H9.48413V37.4397H11.0972V35.8337Z" fill="#337CFB"/>
<path d="M9.48103 35.8337H7.86792V37.4397H9.48103V35.8337Z" fill="#337CFB"/>
<path d="M7.86921 35.8337H6.2561V37.4397H7.86921V35.8337Z" fill="#337CFB"/>
<path d="M6.25715 35.8337H4.64404V37.4397H6.25715V35.8337Z" fill="#337CFB"/>
<path d="M4.64314 35.8337H3.03003V37.4397H4.64314V35.8337Z" fill="#337CFB"/>
<path d="M3.03132 35.8337H1.41821V37.4397H3.03132V35.8337Z" fill="#337CFB"/>
<path d="M1.41926 35.8337H-0.193848V37.4397H1.41926V35.8337Z" fill="#337CFB"/>
<path d="M48.1949 34.2275H46.5818V35.8335H48.1949V34.2275Z" fill="#337CFB"/>
<path d="M46.5809 34.2275H44.9678V35.8335H46.5809V34.2275Z" fill="#337CFB"/>
<path d="M44.9691 34.2275H43.356V35.8335H44.9691V34.2275Z" fill="#337CFB"/>
<path d="M43.357 34.2275H41.7439V35.8335H43.357V34.2275Z" fill="#337CFB"/>
<path d="M41.7452 34.2275H40.1321V35.8335H41.7452V34.2275Z" fill="#337CFB"/>
<path d="M40.129 34.2275H38.5159V35.8335H40.129V34.2275Z" fill="#337CFB"/>
<path d="M38.5169 34.2275H36.9038V35.8335H38.5169V34.2275Z" fill="#337CFB"/>
<path d="M36.9051 34.2275H35.292V35.8335H36.9051V34.2275Z" fill="#337CFB"/>
<path d="M35.2911 34.2275H33.678V35.8335H35.2911V34.2275Z" fill="#337CFB"/>
<path d="M33.679 34.2275H32.0659V35.8335H33.679V34.2275Z" fill="#337CFB"/>
<path d="M32.065 34.2275H30.4519V35.8335H32.065V34.2275Z" fill="#337CFB"/>
<path d="M30.451 34.2275H28.8379V35.8335H30.451V34.2275Z" fill="#337CFB"/>
<path d="M28.8392 34.2275H27.2261V35.8335H28.8392V34.2275Z" fill="#337CFB"/>
<path d="M27.2271 34.2275H25.614V35.8335H27.2271V34.2275Z" fill="#337CFB"/>
<path d="M22.387 34.2275H20.7739V35.8335H22.387V34.2275Z" fill="#337CFB"/>
<path d="M20.773 34.2275H19.1599V35.8335H20.773V34.2275Z" fill="#337CFB"/>
<path d="M19.1612 34.2275H17.5481V35.8335H19.1612V34.2275Z" fill="#337CFB"/>
<path d="M17.5491 34.2275H15.936V35.8335H17.5491V34.2275Z" fill="#337CFB"/>
<path d="M15.9332 34.2275H14.3201V35.8335H15.9332V34.2275Z" fill="#337CFB"/>
<path d="M14.3211 34.2275H12.708V35.8335H14.3211V34.2275Z" fill="#337CFB"/>
<path d="M12.7093 34.2275H11.0962V35.8335H12.7093V34.2275Z" fill="#337CFB"/>
<path d="M11.0972 34.2275H9.48413V35.8335H11.0972V34.2275Z" fill="#337CFB"/>
<path d="M9.48103 34.2275H7.86792V35.8335H9.48103V34.2275Z" fill="#337CFB"/>
<path d="M7.86921 34.2275H6.2561V35.8335H7.86921V34.2275Z" fill="#337CFB"/>
<path d="M6.25715 34.2275H4.64404V35.8335H6.25715V34.2275Z" fill="#337CFB"/>
<path d="M4.64314 34.2275H3.03003V35.8335H4.64314V34.2275Z" fill="#337CFB"/>
<path d="M3.03132 34.2275H1.41821V35.8335H3.03132V34.2275Z" fill="#337CFB"/>
<path d="M1.41926 34.2275H-0.193848V35.8335H1.41926V34.2275Z" fill="#337CFB"/>
<path d="M48.1949 32.6219H46.5818V34.2279H48.1949V32.6219Z" fill="#337CFB"/>
<path d="M46.5809 32.6219H44.9678V34.2279H46.5809V32.6219Z" fill="#337CFB"/>
<path d="M44.9691 32.6219H43.356V34.2279H44.9691V32.6219Z" fill="#337CFB"/>
<path d="M43.357 32.6219H41.7439V34.2279H43.357V32.6219Z" fill="#337CFB"/>
<path d="M41.7452 32.6219H40.1321V34.2279H41.7452V32.6219Z" fill="#337CFB"/>
<path d="M40.129 32.6219H38.5159V34.2279H40.129V32.6219Z" fill="#337CFB"/>
<path d="M38.5169 32.6219H36.9038V34.2279H38.5169V32.6219Z" fill="#337CFB"/>
<path d="M36.9051 32.6219H35.292V34.2279H36.9051V32.6219Z" fill="#337CFB"/>
<path d="M35.2911 32.6219H33.678V34.2279H35.2911V32.6219Z" fill="#337CFB"/>
<path d="M33.679 32.6219H32.0659V34.2279H33.679V32.6219Z" fill="#337CFB"/>
<path d="M32.065 32.6219H30.4519V34.2279H32.065V32.6219Z" fill="#337CFB"/>
<path d="M30.451 32.6219H28.8379V34.2279H30.451V32.6219Z" fill="#337CFB"/>
<path d="M28.8392 32.6219H27.2261V34.2279H28.8392V32.6219Z" fill="#337CFB"/>
<path d="M27.2271 32.6219H25.614V34.2279H27.2271V32.6219Z" fill="#337CFB"/>
<path d="M22.387 32.6219H20.7739V34.2279H22.387V32.6219Z" fill="#337CFB"/>
<path d="M20.773 32.6219H19.1599V34.2279H20.773V32.6219Z" fill="#337CFB"/>
<path d="M19.1612 32.6219H17.5481V34.2279H19.1612V32.6219Z" fill="#337CFB"/>
<path d="M17.5491 32.6219H15.936V34.2279H17.5491V32.6219Z" fill="#337CFB"/>
<path d="M15.9332 32.6219H14.3201V34.2279H15.9332V32.6219Z" fill="#337CFB"/>
<path d="M14.3211 32.6219H12.708V34.2279H14.3211V32.6219Z" fill="#337CFB"/>
<path d="M12.7093 32.6219H11.0962V34.2279H12.7093V32.6219Z" fill="#337CFB"/>
<path d="M11.0972 32.6219H9.48413V34.2279H11.0972V32.6219Z" fill="#337CFB"/>
<path d="M9.48103 32.6219H7.86792V34.2279H9.48103V32.6219Z" fill="#337CFB"/>
<path d="M7.86921 32.6219H6.2561V34.2279H7.86921V32.6219Z" fill="#337CFB"/>
<path d="M6.25715 32.6219H4.64404V34.2279H6.25715V32.6219Z" fill="#337CFB"/>
<path d="M4.64314 32.6219H3.03003V34.2279H4.64314V32.6219Z" fill="#337CFB"/>
<path d="M3.03132 32.6219H1.41821V34.2279H3.03132V32.6219Z" fill="#337CFB"/>
<path d="M1.41926 32.6219H-0.193848V34.2279H1.41926V32.6219Z" fill="#337CFB"/>
<path d="M48.1949 31.0152H46.5818V32.6212H48.1949V31.0152Z" fill="#337CFB"/>
<path d="M46.5809 31.0152H44.9678V32.6212H46.5809V31.0152Z" fill="#337CFB"/>
<path d="M44.9691 31.0152H43.356V32.6212H44.9691V31.0152Z" fill="#337CFB"/>
<path d="M43.357 31.0152H41.7439V32.6212H43.357V31.0152Z" fill="#337CFB"/>
<path d="M41.7452 31.0152H40.1321V32.6212H41.7452V31.0152Z" fill="#337CFB"/>
<path d="M40.129 31.0152H38.5159V32.6212H40.129V31.0152Z" fill="#337CFB"/>
<path d="M38.5169 31.0152H36.9038V32.6212H38.5169V31.0152Z" fill="#337CFB"/>
<path d="M36.9051 31.0152H35.292V32.6212H36.9051V31.0152Z" fill="#337CFB"/>
<path d="M35.2911 31.0152H33.678V32.6212H35.2911V31.0152Z" fill="#337CFB"/>
<path d="M33.679 31.0152H32.0659V32.6212H33.679V31.0152Z" fill="#337CFB"/>
<path d="M32.065 31.0152H30.4519V32.6212H32.065V31.0152Z" fill="#337CFB"/>
<path d="M30.451 31.0152H28.8379V32.6212H30.451V31.0152Z" fill="#337CFB"/>
<path d="M28.8392 31.0152H27.2261V32.6212H28.8392V31.0152Z" fill="#337CFB"/>
<path d="M20.773 31.0152H19.1599V32.6212H20.773V31.0152Z" fill="#337CFB"/>
<path d="M19.1612 31.0152H17.5481V32.6212H19.1612V31.0152Z" fill="#337CFB"/>
<path d="M17.5491 31.0152H15.936V32.6212H17.5491V31.0152Z" fill="#337CFB"/>
<path d="M15.9332 31.0152H14.3201V32.6212H15.9332V31.0152Z" fill="#337CFB"/>
<path d="M14.3211 31.0152H12.708V32.6212H14.3211V31.0152Z" fill="#337CFB"/>
<path d="M12.7093 31.0152H11.0962V32.6212H12.7093V31.0152Z" fill="#337CFB"/>
<path d="M11.0972 31.0152H9.48413V32.6212H11.0972V31.0152Z" fill="#337CFB"/>
<path d="M9.48103 31.0152H7.86792V32.6212H9.48103V31.0152Z" fill="#337CFB"/>
<path d="M7.86921 31.0152H6.2561V32.6212H7.86921V31.0152Z" fill="#337CFB"/>
<path d="M6.25715 31.0152H4.64404V32.6212H6.25715V31.0152Z" fill="#337CFB"/>
<path d="M4.64314 31.0152H3.03003V32.6212H4.64314V31.0152Z" fill="#337CFB"/>
<path d="M3.03132 31.0152H1.41821V32.6212H3.03132V31.0152Z" fill="#337CFB"/>
<path d="M1.41926 31.0152H-0.193848V32.6212H1.41926V31.0152Z" fill="#337CFB"/>
<path d="M48.1949 29.409H46.5818V31.015H48.1949V29.409Z" fill="#337CFB"/>
<path d="M46.5809 29.409H44.9678V31.015H46.5809V29.409Z" fill="#337CFB"/>
<path d="M44.9691 29.409H43.356V31.015H44.9691V29.409Z" fill="#337CFB"/>
<path d="M43.357 29.409H41.7439V31.015H43.357V29.409Z" fill="#337CFB"/>
<path d="M41.7452 29.409H40.1321V31.015H41.7452V29.409Z" fill="#337CFB"/>
<path d="M40.129 29.409H38.5159V31.015H40.129V29.409Z" fill="#337CFB"/>
<path d="M38.5169 29.409H36.9038V31.015H38.5169V29.409Z" fill="#337CFB"/>
<path d="M36.9051 29.409H35.292V31.015H36.9051V29.409Z" fill="#337CFB"/>
<path d="M35.2911 29.409H33.678V31.015H35.2911V29.409Z" fill="#337CFB"/>
<path d="M33.679 29.409H32.0659V31.015H33.679V29.409Z" fill="#337CFB"/>
<path d="M32.065 29.409H30.4519V31.015H32.065V29.409Z" fill="#337CFB"/>
<path d="M30.451 29.409H28.8379V31.015H30.451V29.409Z" fill="#337CFB"/>
<path d="M28.8392 29.409H27.2261V31.015H28.8392V29.409Z" fill="#337CFB"/>
<path d="M20.773 29.409H19.1599V31.015H20.773V29.409Z" fill="#337CFB"/>
<path d="M19.1612 29.409H17.5481V31.015H19.1612V29.409Z" fill="#337CFB"/>
<path d="M17.5491 29.409H15.936V31.015H17.5491V29.409Z" fill="#337CFB"/>
<path d="M15.9332 29.409H14.3201V31.015H15.9332V29.409Z" fill="#337CFB"/>
<path d="M14.3211 29.409H12.708V31.015H14.3211V29.409Z" fill="#337CFB"/>
<path d="M12.7093 29.409H11.0962V31.015H12.7093V29.409Z" fill="#337CFB"/>
<path d="M11.0972 29.409H9.48413V31.015H11.0972V29.409Z" fill="#337CFB"/>
<path d="M9.48103 29.409H7.86792V31.015H9.48103V29.409Z" fill="#337CFB"/>
<path d="M7.86921 29.409H6.2561V31.015H7.86921V29.409Z" fill="#337CFB"/>
<path d="M6.25715 29.409H4.64404V31.015H6.25715V29.409Z" fill="#337CFB"/>
<path d="M4.64314 29.409H3.03003V31.015H4.64314V29.409Z" fill="#337CFB"/>
<path d="M3.03132 29.409H1.41821V31.015H3.03132V29.409Z" fill="#337CFB"/>
<path d="M1.41926 29.409H-0.193848V31.015H1.41926V29.409Z" fill="#337CFB"/>
<path d="M48.1949 27.8033H46.5818V29.4094H48.1949V27.8033Z" fill="#337CFB"/>
<path d="M46.5809 27.8033H44.9678V29.4094H46.5809V27.8033Z" fill="#337CFB"/>
<path d="M44.9691 27.8033H43.356V29.4094H44.9691V27.8033Z" fill="#337CFB"/>
<path d="M43.357 27.8033H41.7439V29.4094H43.357V27.8033Z" fill="#337CFB"/>
<path d="M41.7452 27.8033H40.1321V29.4094H41.7452V27.8033Z" fill="#337CFB"/>
<path d="M40.129 27.8033H38.5159V29.4094H40.129V27.8033Z" fill="#337CFB"/>
<path d="M38.5169 27.8033H36.9038V29.4094H38.5169V27.8033Z" fill="#337CFB"/>
<path d="M36.9051 27.8033H35.292V29.4094H36.9051V27.8033Z" fill="#337CFB"/>
<path d="M35.2911 27.8033H33.678V29.4094H35.2911V27.8033Z" fill="#337CFB"/>
<path d="M33.679 27.8033H32.0659V29.4094H33.679V27.8033Z" fill="#337CFB"/>
<path d="M32.065 27.8033H30.4519V29.4094H32.065V27.8033Z" fill="#337CFB"/>
<path d="M30.451 27.8033H28.8379V29.4094H30.451V27.8033Z" fill="#337CFB"/>
<path d="M19.1612 27.8033H17.5481V29.4094H19.1612V27.8033Z" fill="#337CFB"/>
<path d="M17.5491 27.8033H15.936V29.4094H17.5491V27.8033Z" fill="#337CFB"/>
<path d="M15.9332 27.8033H14.3201V29.4094H15.9332V27.8033Z" fill="#337CFB"/>
<path d="M14.3211 27.8033H12.708V29.4094H14.3211V27.8033Z" fill="#337CFB"/>
<path d="M12.7093 27.8033H11.0962V29.4094H12.7093V27.8033Z" fill="#337CFB"/>
<path d="M11.0972 27.8033H9.48413V29.4094H11.0972V27.8033Z" fill="#337CFB"/>
<path d="M9.48103 27.8033H7.86792V29.4094H9.48103V27.8033Z" fill="#337CFB"/>
<path d="M7.86921 27.8033H6.2561V29.4094H7.86921V27.8033Z" fill="#337CFB"/>
<path d="M6.25715 27.8033H4.64404V29.4094H6.25715V27.8033Z" fill="#337CFB"/>
<path d="M4.64314 27.8033H3.03003V29.4094H4.64314V27.8033Z" fill="#337CFB"/>
<path d="M3.03132 27.8033H1.41821V29.4094H3.03132V27.8033Z" fill="#337CFB"/>
<path d="M1.41926 27.8033H-0.193848V29.4094H1.41926V27.8033Z" fill="#337CFB"/>
<path d="M48.1949 26.1969H46.5818V27.8029H48.1949V26.1969Z" fill="#337CFB"/>
<path d="M46.5809 26.1969H44.9678V27.8029H46.5809V26.1969Z" fill="#337CFB"/>
<path d="M44.9691 26.1969H43.356V27.8029H44.9691V26.1969Z" fill="#337CFB"/>
<path d="M43.357 26.1969H41.7439V27.8029H43.357V26.1969Z" fill="#337CFB"/>
<path d="M41.7452 26.1969H40.1321V27.8029H41.7452V26.1969Z" fill="#337CFB"/>
<path d="M40.129 26.1969H38.5159V27.8029H40.129V26.1969Z" fill="#337CFB"/>
<path d="M38.5169 26.1969H36.9038V27.8029H38.5169V26.1969Z" fill="#337CFB"/>
<path d="M36.9051 26.1969H35.292V27.8029H36.9051V26.1969Z" fill="#337CFB"/>
<path d="M35.2911 26.1969H33.678V27.8029H35.2911V26.1969Z" fill="#337CFB"/>
<path d="M33.679 26.1969H32.0659V27.8029H33.679V26.1969Z" fill="#337CFB"/>
<path d="M32.065 26.1969H30.4519V27.8029H32.065V26.1969Z" fill="#337CFB"/>
<path d="M30.451 26.1969H28.8379V27.8029H30.451V26.1969Z" fill="#337CFB"/>
<path d="M19.1612 26.1969H17.5481V27.8029H19.1612V26.1969Z" fill="#337CFB"/>
<path d="M17.5491 26.1969H15.936V27.8029H17.5491V26.1969Z" fill="#337CFB"/>
<path d="M15.9332 26.1969H14.3201V27.8029H15.9332V26.1969Z" fill="#337CFB"/>
<path d="M14.3211 26.1969H12.708V27.8029H14.3211V26.1969Z" fill="#337CFB"/>
<path d="M12.7093 26.1969H11.0962V27.8029H12.7093V26.1969Z" fill="#337CFB"/>
<path d="M11.0972 26.1969H9.48413V27.8029H11.0972V26.1969Z" fill="#337CFB"/>
<path d="M9.48103 26.1969H7.86792V27.8029H9.48103V26.1969Z" fill="#337CFB"/>
<path d="M7.86921 26.1969H6.2561V27.8029H7.86921V26.1969Z" fill="#337CFB"/>
<path d="M6.25715 26.1969H4.64404V27.8029H6.25715V26.1969Z" fill="#337CFB"/>
<path d="M4.64314 26.1969H3.03003V27.8029H4.64314V26.1969Z" fill="#337CFB"/>
<path d="M3.03132 26.1969H1.41821V27.8029H3.03132V26.1969Z" fill="#337CFB"/>
<path d="M1.41926 26.1969H-0.193848V27.8029H1.41926V26.1969Z" fill="#337CFB"/>
<path d="M48.1949 24.5907H46.5818V26.1968H48.1949V24.5907Z" fill="#337CFB"/>
<path d="M46.5809 24.5907H44.9678V26.1968H46.5809V24.5907Z" fill="#337CFB"/>
<path d="M44.9691 24.5907H43.356V26.1968H44.9691V24.5907Z" fill="#337CFB"/>
<path d="M43.357 24.5907H41.7439V26.1968H43.357V24.5907Z" fill="#337CFB"/>
<path d="M41.7452 24.5907H40.1321V26.1968H41.7452V24.5907Z" fill="#337CFB"/>
<path d="M40.129 24.5907H38.5159V26.1968H40.129V24.5907Z" fill="#337CFB"/>
<path d="M38.5169 24.5907H36.9038V26.1968H38.5169V24.5907Z" fill="#337CFB"/>
<path d="M36.9051 24.5907H35.292V26.1968H36.9051V24.5907Z" fill="#337CFB"/>
<path d="M35.2911 24.5907H33.678V26.1968H35.2911V24.5907Z" fill="#337CFB"/>
<path d="M33.679 24.5907H32.0659V26.1968H33.679V24.5907Z" fill="#337CFB"/>
<path d="M32.065 24.5907H30.4519V26.1968H32.065V24.5907Z" fill="#337CFB"/>
<path d="M17.5491 24.5907H15.936V26.1968H17.5491V24.5907Z" fill="#337CFB"/>
<path d="M15.9332 24.5907H14.3201V26.1968H15.9332V24.5907Z" fill="#337CFB"/>
<path d="M14.3211 24.5907H12.708V26.1968H14.3211V24.5907Z" fill="#337CFB"/>
<path d="M12.7093 24.5907H11.0962V26.1968H12.7093V24.5907Z" fill="#337CFB"/>
<path d="M11.0972 24.5907H9.48413V26.1968H11.0972V24.5907Z" fill="#337CFB"/>
<path d="M9.48103 24.5907H7.86792V26.1968H9.48103V24.5907Z" fill="#337CFB"/>
<path d="M7.86921 24.5907H6.2561V26.1968H7.86921V24.5907Z" fill="#337CFB"/>
<path d="M6.25715 24.5907H4.64404V26.1968H6.25715V24.5907Z" fill="#337CFB"/>
<path d="M4.64314 24.5907H3.03003V26.1968H4.64314V24.5907Z" fill="#337CFB"/>
<path d="M3.03132 24.5907H1.41821V26.1968H3.03132V24.5907Z" fill="#337CFB"/>
<path d="M1.41926 24.5907H-0.193848V26.1968H1.41926V24.5907Z" fill="#337CFB"/>
<path d="M48.1949 22.9848H46.5818V24.5909H48.1949V22.9848Z" fill="#337CFB"/>
<path d="M46.5809 22.9848H44.9678V24.5909H46.5809V22.9848Z" fill="#337CFB"/>
<path d="M44.9691 22.9848H43.356V24.5909H44.9691V22.9848Z" fill="#337CFB"/>
<path d="M43.357 22.9848H41.7439V24.5909H43.357V22.9848Z" fill="#337CFB"/>
<path d="M41.7452 22.9848H40.1321V24.5909H41.7452V22.9848Z" fill="#337CFB"/>
<path d="M40.129 22.9848H38.5159V24.5909H40.129V22.9848Z" fill="#337CFB"/>
<path d="M38.5169 22.9848H36.9038V24.5909H38.5169V22.9848Z" fill="#337CFB"/>
<path d="M36.9051 22.9848H35.292V24.5909H36.9051V22.9848Z" fill="#337CFB"/>
<path d="M35.2911 22.9848H33.678V24.5909H35.2911V22.9848Z" fill="#337CFB"/>
<path d="M33.679 22.9848H32.0659V24.5909H33.679V22.9848Z" fill="#337CFB"/>
<path d="M15.9332 22.9848H14.3201V24.5909H15.9332V22.9848Z" fill="#337CFB"/>
<path d="M14.3211 22.9848H12.708V24.5909H14.3211V22.9848Z" fill="#337CFB"/>
<path d="M12.7093 22.9848H11.0962V24.5909H12.7093V22.9848Z" fill="#337CFB"/>
<path d="M11.0972 22.9848H9.48413V24.5909H11.0972V22.9848Z" fill="#337CFB"/>
<path d="M9.48103 22.9848H7.86792V24.5909H9.48103V22.9848Z" fill="#337CFB"/>
<path d="M7.86921 22.9848H6.2561V24.5909H7.86921V22.9848Z" fill="#337CFB"/>
<path d="M6.25715 22.9848H4.64404V24.5909H6.25715V22.9848Z" fill="#337CFB"/>
<path d="M4.64314 22.9848H3.03003V24.5909H4.64314V22.9848Z" fill="#337CFB"/>
<path d="M3.03132 22.9848H1.41821V24.5909H3.03132V22.9848Z" fill="#337CFB"/>
<path d="M1.41926 22.9848H-0.193848V24.5909H1.41926V22.9848Z" fill="#337CFB"/>
<path d="M48.1949 21.3787H46.5818V22.9847H48.1949V21.3787Z" fill="#337CFB"/>
<path d="M46.5809 21.3787H44.9678V22.9847H46.5809V21.3787Z" fill="#337CFB"/>
<path d="M44.9691 21.3787H43.356V22.9847H44.9691V21.3787Z" fill="#337CFB"/>
<path d="M43.357 21.3787H41.7439V22.9847H43.357V21.3787Z" fill="#337CFB"/>
<path d="M41.7452 21.3787H40.1321V22.9847H41.7452V21.3787Z" fill="#337CFB"/>
<path d="M40.129 21.3787H38.5159V22.9847H40.129V21.3787Z" fill="#337CFB"/>
<path d="M38.5169 21.3787H36.9038V22.9847H38.5169V21.3787Z" fill="#337CFB"/>
<path d="M36.9051 21.3787H35.292V22.9847H36.9051V21.3787Z" fill="#337CFB"/>
<path d="M35.2911 21.3787H33.678V22.9847H35.2911V21.3787Z" fill="#337CFB"/>
<path d="M14.3211 21.3787H12.708V22.9847H14.3211V21.3787Z" fill="#337CFB"/>
<path d="M12.7093 21.3787H11.0962V22.9847H12.7093V21.3787Z" fill="#337CFB"/>
<path d="M11.0972 21.3787H9.48413V22.9847H11.0972V21.3787Z" fill="#337CFB"/>
<path d="M9.48103 21.3787H7.86792V22.9847H9.48103V21.3787Z" fill="#337CFB"/>
<path d="M7.86921 21.3787H6.2561V22.9847H7.86921V21.3787Z" fill="#337CFB"/>
<path d="M6.25715 21.3787H4.64404V22.9847H6.25715V21.3787Z" fill="#337CFB"/>
<path d="M4.64314 21.3787H3.03003V22.9847H4.64314V21.3787Z" fill="#337CFB"/>
<path d="M3.03132 21.3787H1.41821V22.9847H3.03132V21.3787Z" fill="#337CFB"/>
<path d="M1.41926 21.3787H-0.193848V22.9847H1.41926V21.3787Z" fill="#337CFB"/>
<path d="M48.1949 19.7725H46.5818V21.3785H48.1949V19.7725Z" fill="#337CFB"/>
<path d="M46.5809 19.7725H44.9678V21.3785H46.5809V19.7725Z" fill="#337CFB"/>
<path d="M44.9691 19.7725H43.356V21.3785H44.9691V19.7725Z" fill="#337CFB"/>
<path d="M43.357 19.7725H41.7439V21.3785H43.357V19.7725Z" fill="#337CFB"/>
<path d="M41.7452 19.7725H40.1321V21.3785H41.7452V19.7725Z" fill="#337CFB"/>
<path d="M40.129 19.7725H38.5159V21.3785H40.129V19.7725Z" fill="#337CFB"/>
<path d="M38.5169 19.7725H36.9038V21.3785H38.5169V19.7725Z" fill="#337CFB"/>
<path d="M36.9051 19.7725H35.292V21.3785H36.9051V19.7725Z" fill="#337CFB"/>
<path d="M35.2911 19.7725H33.678V21.3785H35.2911V19.7725Z" fill="#337CFB"/>
<path d="M33.679 19.7725H32.0659V21.3785H33.679V19.7725Z" fill="#337CFB"/>
<path d="M33.679 21.3787H32.0659V22.9847H33.679V21.3787Z" fill="#337CFB"/>
<path d="M32.065 19.7725H30.4519V21.3785H32.065V19.7725Z" fill="#337CFB"/>
<path d="M30.451 19.7725H28.8379V21.3785H30.451V19.7725Z" fill="#337CFB"/>
<path d="M28.8392 19.7725H27.2261V21.3785H28.8392V19.7725Z" fill="#337CFB"/>
<path d="M27.2271 19.7725H25.614V21.3785H27.2271V19.7725Z" fill="#337CFB"/>
<path d="M25.6153 19.7725H24.0022V21.3785H25.6153V19.7725Z" fill="#337CFB"/>
<path d="M25.6153 21.3787H24.0022V22.9847H25.6153V21.3787Z" fill="#337CFB"/>
<path d="M23.9991 19.7725H22.386V21.3785H23.9991V19.7725Z" fill="#337CFB"/>
<path d="M23.9991 35.8337H22.386V37.4397H23.9991V35.8337Z" fill="#337CFB"/>
<path d="M25.6153 35.8337H24.0022V37.4397H25.6153V35.8337Z" fill="#337CFB"/>
<path d="M23.9991 34.2275H22.386V35.8335H23.9991V34.2275Z" fill="#337CFB"/>
<path d="M25.6153 34.2275H24.0022V35.8335H25.6153V34.2275Z" fill="#337CFB"/>
<path d="M22.387 19.7725H20.7739V21.3785H22.387V19.7725Z" fill="#337CFB"/>
<path d="M20.773 19.7725H19.1599V21.3785H20.773V19.7725Z" fill="#337CFB"/>
<path d="M19.1612 19.7725H17.5481V21.3785H19.1612V19.7725Z" fill="#337CFB"/>
<path d="M30.451 21.3787H28.8379V22.9847H30.451V21.3787Z" fill="#337CFB"/>
<path d="M28.8392 21.3787H27.2261V22.9847H28.8392V21.3787Z" fill="#337CFB"/>
<path d="M27.2271 21.3787H25.614V22.9847H27.2271V21.3787Z" fill="#337CFB"/>
<path d="M23.9991 21.3787H22.386V22.9847H23.9991V21.3787Z" fill="#337CFB"/>
<path d="M22.387 21.3787H20.7739V22.9847H22.387V21.3787Z" fill="#337CFB"/>
<path d="M20.773 21.3787H19.1599V22.9847H20.773V21.3787Z" fill="#337CFB"/>
<path d="M19.1612 21.3787H17.5481V22.9847H19.1612V21.3787Z" fill="#337CFB"/>
<path d="M17.5491 19.7725H15.936V21.3785H17.5491V19.7725Z" fill="#337CFB"/>
<path d="M15.9332 19.7725H14.3201V21.3785H15.9332V19.7725Z" fill="#337CFB"/>
<path d="M15.9332 21.3787H14.3201V22.9847H15.9332V21.3787Z" fill="#337CFB"/>
<path d="M14.3211 19.7725H12.708V21.3785H14.3211V19.7725Z" fill="#337CFB"/>
<path d="M12.7093 19.7725H11.0962V21.3785H12.7093V19.7725Z" fill="#337CFB"/>
<path d="M11.0972 19.7725H9.48413V21.3785H11.0972V19.7725Z" fill="#337CFB"/>
<path d="M9.48103 19.7725H7.86792V21.3785H9.48103V19.7725Z" fill="#337CFB"/>
<path d="M7.86921 19.7725H6.2561V21.3785H7.86921V19.7725Z" fill="#337CFB"/>
<path d="M6.25715 19.7725H4.64404V21.3785H6.25715V19.7725Z" fill="#337CFB"/>
<path d="M4.64314 19.7725H3.03003V21.3785H4.64314V19.7725Z" fill="#337CFB"/>
<path d="M3.03132 19.7725H1.41821V21.3785H3.03132V19.7725Z" fill="#337CFB"/>
<path d="M1.41926 19.7725H-0.193848V21.3785H1.41926V19.7725Z" fill="#337CFB"/>
<path d="M48.1949 18.1663H46.5818V19.7724H48.1949V18.1663Z" fill="#337CFB"/>
<path d="M46.5809 18.1663H44.9678V19.7724H46.5809V18.1663Z" fill="#337CFB"/>
<path d="M44.9691 18.1663H43.356V19.7724H44.9691V18.1663Z" fill="#337CFB"/>
<path d="M43.357 18.1663H41.7439V19.7724H43.357V18.1663Z" fill="#337CFB"/>
<path d="M41.7452 18.1663H40.1321V19.7724H41.7452V18.1663Z" fill="#337CFB"/>
<path d="M40.129 18.1663H38.5159V19.7724H40.129V18.1663Z" fill="#337CFB"/>
<path d="M38.5169 18.1663H36.9038V19.7724H38.5169V18.1663Z" fill="#337CFB"/>
<path d="M36.9051 18.1663H35.292V19.7724H36.9051V18.1663Z" fill="#337CFB"/>
<path d="M35.2911 18.1663H33.678V19.7724H35.2911V18.1663Z" fill="#337CFB"/>
<path d="M33.679 18.1663H32.0659V19.7724H33.679V18.1663Z" fill="#337CFB"/>
<path d="M32.065 18.1663H30.4519V19.7724H32.065V18.1663Z" fill="#337CFB"/>
<path d="M30.451 18.1663H28.8379V19.7724H30.451V18.1663Z" fill="#337CFB"/>
<path d="M28.8392 18.1663H27.2261V19.7724H28.8392V18.1663Z" fill="#337CFB"/>
<path d="M27.2271 18.1663H25.614V19.7724H27.2271V18.1663Z" fill="#337CFB"/>
<path d="M25.6153 18.1663H24.0022V19.7724H25.6153V18.1663Z" fill="#337CFB"/>
<path d="M23.9991 18.1663H22.386V19.7724H23.9991V18.1663Z" fill="#337CFB"/>
<path d="M22.387 18.1663H20.7739V19.7724H22.387V18.1663Z" fill="#337CFB"/>
<path d="M20.773 18.1663H19.1599V19.7724H20.773V18.1663Z" fill="#337CFB"/>
<path d="M19.1612 18.1663H17.5481V19.7724H19.1612V18.1663Z" fill="#337CFB"/>
<path d="M17.5491 18.1663H15.936V19.7724H17.5491V18.1663Z" fill="#337CFB"/>
<path d="M15.9332 18.1663H14.3201V19.7724H15.9332V18.1663Z" fill="#337CFB"/>
<path d="M14.3211 18.1663H12.708V19.7724H14.3211V18.1663Z" fill="#337CFB"/>
<path d="M12.7093 18.1663H11.0962V19.7724H12.7093V18.1663Z" fill="#337CFB"/>
<path d="M11.0972 18.1663H9.48413V19.7724H11.0972V18.1663Z" fill="#337CFB"/>
<path d="M9.48103 18.1663H7.86792V19.7724H9.48103V18.1663Z" fill="#337CFB"/>
<path d="M7.86921 18.1663H6.2561V19.7724H7.86921V18.1663Z" fill="#337CFB"/>
<path d="M6.25715 18.1663H4.64404V19.7724H6.25715V18.1663Z" fill="#337CFB"/>
<path d="M4.64314 18.1663H3.03003V19.7724H4.64314V18.1663Z" fill="#337CFB"/>
<path d="M3.03132 18.1663H1.41821V19.7724H3.03132V18.1663Z" fill="#337CFB"/>
<path d="M1.41926 18.1663H-0.193848V19.7724H1.41926V18.1663Z" fill="#337CFB"/>
<path d="M48.1949 16.5602H46.5818V18.1662H48.1949V16.5602Z" fill="#337CFB"/>
<path d="M46.5809 16.5602H44.9678V18.1662H46.5809V16.5602Z" fill="#337CFB"/>
<path d="M44.9691 16.5602H43.356V18.1662H44.9691V16.5602Z" fill="#337CFB"/>
<path d="M43.357 16.5602H41.7439V18.1662H43.357V16.5602Z" fill="#337CFB"/>
<path d="M41.7452 16.5602H40.1321V18.1662H41.7452V16.5602Z" fill="#337CFB"/>
<path d="M40.129 16.5602H38.5159V18.1662H40.129V16.5602Z" fill="#337CFB"/>
<path d="M38.5169 16.5602H36.9038V18.1662H38.5169V16.5602Z" fill="#337CFB"/>
<path d="M36.9051 16.5602H35.292V18.1662H36.9051V16.5602Z" fill="#337CFB"/>
<path d="M35.2911 16.5602H33.678V18.1662H35.2911V16.5602Z" fill="#337CFB"/>
<path d="M33.679 16.5602H32.0659V18.1662H33.679V16.5602Z" fill="#337CFB"/>
<path d="M32.065 16.5602H30.4519V18.1662H32.065V16.5602Z" fill="#337CFB"/>
<path d="M30.451 16.5602H28.8379V18.1662H30.451V16.5602Z" fill="#337CFB"/>
<path d="M28.8392 16.5602H27.2261V18.1662H28.8392V16.5602Z" fill="#337CFB"/>
<path d="M27.2271 16.5602H25.614V18.1662H27.2271V16.5602Z" fill="#337CFB"/>
<path d="M25.6153 16.5602H24.0022V18.1662H25.6153V16.5602Z" fill="#337CFB"/>
<path d="M23.9991 16.5602H22.386V18.1662H23.9991V16.5602Z" fill="#337CFB"/>
<path d="M22.387 16.5602H20.7739V18.1662H22.387V16.5602Z" fill="#337CFB"/>
<path d="M20.773 16.5602H19.1599V18.1662H20.773V16.5602Z" fill="#337CFB"/>
<path d="M19.1612 16.5602H17.5481V18.1662H19.1612V16.5602Z" fill="#337CFB"/>
<path d="M17.5491 16.5602H15.936V18.1662H17.5491V16.5602Z" fill="#337CFB"/>
<path d="M15.9332 16.5602H14.3201V18.1662H15.9332V16.5602Z" fill="#337CFB"/>
<path d="M14.3211 16.5602H12.708V18.1662H14.3211V16.5602Z" fill="#337CFB"/>
<path d="M12.7093 16.5602H11.0962V18.1662H12.7093V16.5602Z" fill="#337CFB"/>
<path d="M11.0972 16.5602H9.48413V18.1662H11.0972V16.5602Z" fill="#337CFB"/>
<path d="M9.48103 16.5602H7.86792V18.1662H9.48103V16.5602Z" fill="#337CFB"/>
<path d="M7.86921 16.5602H6.2561V18.1662H7.86921V16.5602Z" fill="#337CFB"/>
<path d="M6.25715 16.5602H4.64404V18.1662H6.25715V16.5602Z" fill="#337CFB"/>
<path d="M4.64314 16.5602H3.03003V18.1662H4.64314V16.5602Z" fill="#337CFB"/>
<path d="M3.03132 16.5602H1.41821V18.1662H3.03132V16.5602Z" fill="#337CFB"/>
<path d="M1.41926 16.5602H-0.193848V18.1662H1.41926V16.5602Z" fill="#337CFB"/>
<path d="M48.1949 14.9545H46.5818V16.5605H48.1949V14.9545Z" fill="#337CFB"/>
<path d="M46.5809 14.9545H44.9678V16.5605H46.5809V14.9545Z" fill="#337CFB"/>
<path d="M44.9691 14.9545H43.356V16.5605H44.9691V14.9545Z" fill="#337CFB"/>
<path d="M43.357 14.9545H41.7439V16.5605H43.357V14.9545Z" fill="#337CFB"/>
<path d="M41.7452 14.9545H40.1321V16.5605H41.7452V14.9545Z" fill="#337CFB"/>
<path d="M40.129 14.9545H38.5159V16.5605H40.129V14.9545Z" fill="#337CFB"/>
<path d="M38.5169 14.9545H36.9038V16.5605H38.5169V14.9545Z" fill="#337CFB"/>
<path d="M36.9051 14.9545H35.292V16.5605H36.9051V14.9545Z" fill="#337CFB"/>
<path d="M35.2911 14.9545H33.678V16.5605H35.2911V14.9545Z" fill="#337CFB"/>
<path d="M33.679 14.9545H32.0659V16.5605H33.679V14.9545Z" fill="#337CFB"/>
<path d="M32.065 14.9545H30.4519V16.5605H32.065V14.9545Z" fill="#337CFB"/>
<path d="M30.451 14.9545H28.8379V16.5605H30.451V14.9545Z" fill="#337CFB"/>
<path d="M28.8392 14.9545H27.2261V16.5605H28.8392V14.9545Z" fill="#337CFB"/>
<path d="M27.2271 14.9545H25.614V16.5605H27.2271V14.9545Z" fill="#337CFB"/>
<path d="M25.6153 14.9545H24.0022V16.5605H25.6153V14.9545Z" fill="#337CFB"/>
<path d="M23.9991 14.9545H22.386V16.5605H23.9991V14.9545Z" fill="#337CFB"/>
<path d="M22.387 14.9545H20.7739V16.5605H22.387V14.9545Z" fill="#337CFB"/>
<path d="M20.773 14.9545H19.1599V16.5605H20.773V14.9545Z" fill="#337CFB"/>
<path d="M19.1612 14.9545H17.5481V16.5605H19.1612V14.9545Z" fill="#337CFB"/>
<path d="M17.5491 14.9545H15.936V16.5605H17.5491V14.9545Z" fill="#337CFB"/>
<path d="M15.9332 14.9545H14.3201V16.5605H15.9332V14.9545Z" fill="#337CFB"/>
<path d="M14.3211 14.9545H12.708V16.5605H14.3211V14.9545Z" fill="#337CFB"/>
<path d="M12.7093 14.9545H11.0962V16.5605H12.7093V14.9545Z" fill="#337CFB"/>
<path d="M11.0972 14.9545H9.48413V16.5605H11.0972V14.9545Z" fill="#337CFB"/>
<path d="M9.48103 14.9545H7.86792V16.5605H9.48103V14.9545Z" fill="#337CFB"/>
<path d="M7.86921 14.9545H6.2561V16.5605H7.86921V14.9545Z" fill="#337CFB"/>
<path d="M6.25715 14.9545H4.64404V16.5605H6.25715V14.9545Z" fill="#337CFB"/>
<path d="M4.64314 14.9545H3.03003V16.5605H4.64314V14.9545Z" fill="#337CFB"/>
<path d="M3.03132 14.9545H1.41821V16.5605H3.03132V14.9545Z" fill="#337CFB"/>
<path d="M1.41926 14.9545H-0.193848V16.5605H1.41926V14.9545Z" fill="#337CFB"/>
<path d="M46.5809 13.3481H44.9678V14.9541H46.5809V13.3481Z" fill="#337CFB"/>
<path d="M44.9691 13.3481H43.356V14.9541H44.9691V13.3481Z" fill="#337CFB"/>
<path d="M43.357 13.3481H41.7439V14.9541H43.357V13.3481Z" fill="#337CFB"/>
<path d="M41.7452 13.3481H40.1321V14.9541H41.7452V13.3481Z" fill="#337CFB"/>
<path d="M40.129 13.3481H38.5159V14.9541H40.129V13.3481Z" fill="#337CFB"/>
<path d="M38.5169 13.3481H36.9038V14.9541H38.5169V13.3481Z" fill="#337CFB"/>
<path d="M36.9051 13.3481H35.292V14.9541H36.9051V13.3481Z" fill="#337CFB"/>
<path d="M35.2911 13.3481H33.678V14.9541H35.2911V13.3481Z" fill="#337CFB"/>
<path d="M33.679 13.3481H32.0659V14.9541H33.679V13.3481Z" fill="#337CFB"/>
<path d="M32.065 13.3481H30.4519V14.9541H32.065V13.3481Z" fill="#337CFB"/>
<path d="M30.451 13.3481H28.8379V14.9541H30.451V13.3481Z" fill="#337CFB"/>
<path d="M28.8392 13.3481H27.2261V14.9541H28.8392V13.3481Z" fill="#337CFB"/>
<path d="M27.2271 13.3481H25.614V14.9541H27.2271V13.3481Z" fill="#337CFB"/>
<path d="M25.6153 13.3481H24.0022V14.9541H25.6153V13.3481Z" fill="#337CFB"/>
<path d="M23.9991 13.3481H22.386V14.9541H23.9991V13.3481Z" fill="#337CFB"/>
<path d="M22.387 13.3481H20.7739V14.9541H22.387V13.3481Z" fill="#337CFB"/>
<path d="M20.773 13.3481H19.1599V14.9541H20.773V13.3481Z" fill="#337CFB"/>
<path d="M19.1612 13.3481H17.5481V14.9541H19.1612V13.3481Z" fill="#337CFB"/>
<path d="M17.5491 13.3481H15.936V14.9541H17.5491V13.3481Z" fill="#337CFB"/>
<path d="M15.9332 13.3481H14.3201V14.9541H15.9332V13.3481Z" fill="#337CFB"/>
<path d="M14.3211 13.3481H12.708V14.9541H14.3211V13.3481Z" fill="#337CFB"/>
<path d="M12.7093 13.3481H11.0962V14.9541H12.7093V13.3481Z" fill="#337CFB"/>
<path d="M11.0972 13.3481H9.48413V14.9541H11.0972V13.3481Z" fill="#337CFB"/>
<path d="M9.48103 13.3481H7.86792V14.9541H9.48103V13.3481Z" fill="#337CFB"/>
<path d="M7.86921 13.3481H6.2561V14.9541H7.86921V13.3481Z" fill="#337CFB"/>
<path d="M6.25715 13.3481H4.64404V14.9541H6.25715V13.3481Z" fill="#337CFB"/>
<path d="M4.64314 13.3481H3.03003V14.9541H4.64314V13.3481Z" fill="#337CFB"/>
<path d="M3.03132 13.3481H1.41821V14.9541H3.03132V13.3481Z" fill="#337CFB"/>
<path d="M46.5809 11.7419H44.9678V13.3479H46.5809V11.7419Z" fill="#337CFB"/>
<path d="M44.9691 11.7419H43.356V13.3479H44.9691V11.7419Z" fill="#337CFB"/>
<path d="M43.357 11.7419H41.7439V13.3479H43.357V11.7419Z" fill="#337CFB"/>
<path d="M41.7452 11.7419H40.1321V13.3479H41.7452V11.7419Z" fill="#337CFB"/>
<path d="M40.129 11.7419H38.5159V13.3479H40.129V11.7419Z" fill="#337CFB"/>
<path d="M38.5169 11.7419H36.9038V13.3479H38.5169V11.7419Z" fill="#337CFB"/>
<path d="M36.9051 11.7419H35.292V13.3479H36.9051V11.7419Z" fill="#337CFB"/>
<path d="M35.2911 11.7419H33.678V13.3479H35.2911V11.7419Z" fill="#337CFB"/>
<path d="M33.679 11.7419H32.0659V13.3479H33.679V11.7419Z" fill="#337CFB"/>
<path d="M32.065 11.7419H30.4519V13.3479H32.065V11.7419Z" fill="#337CFB"/>
<path d="M30.451 11.7419H28.8379V13.3479H30.451V11.7419Z" fill="#337CFB"/>
<path d="M28.8392 11.7419H27.2261V13.3479H28.8392V11.7419Z" fill="#337CFB"/>
<path d="M27.2271 11.7419H25.614V13.3479H27.2271V11.7419Z" fill="#337CFB"/>
<path d="M25.6153 11.7419H24.0022V13.3479H25.6153V11.7419Z" fill="#337CFB"/>
<path d="M23.9991 11.7419H22.386V13.3479H23.9991V11.7419Z" fill="#337CFB"/>
<path d="M22.387 11.7419H20.7739V13.3479H22.387V11.7419Z" fill="#337CFB"/>
<path d="M20.773 11.7419H19.1599V13.3479H20.773V11.7419Z" fill="#337CFB"/>
<path d="M19.1612 11.7419H17.5481V13.3479H19.1612V11.7419Z" fill="#337CFB"/>
<path d="M17.5491 11.7419H15.936V13.3479H17.5491V11.7419Z" fill="#337CFB"/>
<path d="M15.9332 11.7419H14.3201V13.3479H15.9332V11.7419Z" fill="#337CFB"/>
<path d="M14.3211 11.7419H12.708V13.3479H14.3211V11.7419Z" fill="#337CFB"/>
<path d="M12.7093 11.7419H11.0962V13.3479H12.7093V11.7419Z" fill="#337CFB"/>
<path d="M11.0972 11.7419H9.48413V13.3479H11.0972V11.7419Z" fill="#337CFB"/>
<path d="M9.48103 11.7419H7.86792V13.3479H9.48103V11.7419Z" fill="#337CFB"/>
<path d="M7.86921 11.7419H6.2561V13.3479H7.86921V11.7419Z" fill="#337CFB"/>
<path d="M6.25715 11.7419H4.64404V13.3479H6.25715V11.7419Z" fill="#337CFB"/>
<path d="M4.64314 11.7419H3.03003V13.3479H4.64314V11.7419Z" fill="#337CFB"/>
<path d="M3.03132 11.7419H1.41821V13.3479H3.03132V11.7419Z" fill="#337CFB"/>
<path d="M44.9691 10.136H43.356V11.742H44.9691V10.136Z" fill="#337CFB"/>
<path d="M43.357 10.136H41.7439V11.742H43.357V10.136Z" fill="#337CFB"/>
<path d="M41.7452 10.136H40.1321V11.742H41.7452V10.136Z" fill="#337CFB"/>
<path d="M40.129 10.136H38.5159V11.742H40.129V10.136Z" fill="#337CFB"/>
<path d="M38.5169 10.136H36.9038V11.742H38.5169V10.136Z" fill="#337CFB"/>
<path d="M36.9051 10.136H35.292V11.742H36.9051V10.136Z" fill="#337CFB"/>
<path d="M35.2911 10.136H33.678V11.742H35.2911V10.136Z" fill="#337CFB"/>
<path d="M33.679 10.136H32.0659V11.742H33.679V10.136Z" fill="#337CFB"/>
<path d="M32.065 10.136H30.4519V11.742H32.065V10.136Z" fill="#337CFB"/>
<path d="M30.451 10.136H28.8379V11.742H30.451V10.136Z" fill="#337CFB"/>
<path d="M28.8392 10.136H27.2261V11.742H28.8392V10.136Z" fill="#337CFB"/>
<path d="M27.2271 10.136H25.614V11.742H27.2271V10.136Z" fill="#337CFB"/>
<path d="M25.6153 10.136H24.0022V11.742H25.6153V10.136Z" fill="#337CFB"/>
<path d="M23.9991 10.136H22.386V11.742H23.9991V10.136Z" fill="#337CFB"/>
<path d="M22.387 10.136H20.7739V11.742H22.387V10.136Z" fill="#337CFB"/>
<path d="M20.773 10.136H19.1599V11.742H20.773V10.136Z" fill="#337CFB"/>
<path d="M19.1612 10.136H17.5481V11.742H19.1612V10.136Z" fill="#337CFB"/>
<path d="M17.5491 10.136H15.936V11.742H17.5491V10.136Z" fill="#337CFB"/>
<path d="M15.9332 10.136H14.3201V11.742H15.9332V10.136Z" fill="#337CFB"/>
<path d="M14.3211 10.136H12.708V11.742H14.3211V10.136Z" fill="#337CFB"/>
<path d="M12.7093 10.136H11.0962V11.742H12.7093V10.136Z" fill="#337CFB"/>
<path d="M11.0972 10.136H9.48413V11.742H11.0972V10.136Z" fill="#337CFB"/>
<path d="M9.48103 10.136H7.86792V11.742H9.48103V10.136Z" fill="#337CFB"/>
<path d="M7.86921 10.136H6.2561V11.742H7.86921V10.136Z" fill="#337CFB"/>
<path d="M6.25715 10.136H4.64404V11.742H6.25715V10.136Z" fill="#337CFB"/>
<path d="M41.7452 8.52959H40.1321V10.1356H41.7452V8.52959Z" fill="#337CFB"/>
<path d="M40.129 8.52959H38.5159V10.1356H40.129V8.52959Z" fill="#337CFB"/>
<path d="M38.5169 8.52959H36.9038V10.1356H38.5169V8.52959Z" fill="#337CFB"/>
<path d="M36.9051 8.52959H35.292V10.1356H36.9051V8.52959Z" fill="#337CFB"/>
<path d="M35.2911 8.52959H33.678V10.1356H35.2911V8.52959Z" fill="#337CFB"/>
<path d="M33.679 8.52959H32.0659V10.1356H33.679V8.52959Z" fill="#337CFB"/>
<path d="M32.065 8.52959H30.4519V10.1356H32.065V8.52959Z" fill="#337CFB"/>
<path d="M30.451 8.52959H28.8379V10.1356H30.451V8.52959Z" fill="#337CFB"/>
<path d="M28.8392 8.52959H27.2261V10.1356H28.8392V8.52959Z" fill="#337CFB"/>
<path d="M27.2271 8.52959H25.614V10.1356H27.2271V8.52959Z" fill="#337CFB"/>
<path d="M25.6153 8.52959H24.0022V10.1356H25.6153V8.52959Z" fill="#337CFB"/>
<path d="M23.9991 8.52959H22.386V10.1356H23.9991V8.52959Z" fill="#337CFB"/>
<path d="M22.387 8.52959H20.7739V10.1356H22.387V8.52959Z" fill="#337CFB"/>
<path d="M20.773 8.52959H19.1599V10.1356H20.773V8.52959Z" fill="#337CFB"/>
<path d="M19.1612 8.52959H17.5481V10.1356H19.1612V8.52959Z" fill="#337CFB"/>
<path d="M17.5491 8.52959H15.936V10.1356H17.5491V8.52959Z" fill="#337CFB"/>
<path d="M15.9332 8.52959H14.3201V10.1356H15.9332V8.52959Z" fill="#337CFB"/>
<path d="M14.3211 8.52959H12.708V10.1356H14.3211V8.52959Z" fill="#337CFB"/>
<path d="M12.7093 8.52959H11.0962V10.1356H12.7093V8.52959Z" fill="#337CFB"/>
<path d="M11.0972 8.52959H9.48413V10.1356H11.0972V8.52959Z" fill="#337CFB"/>
<path d="M9.48103 8.52959H7.86792V10.1356H9.48103V8.52959Z" fill="#337CFB"/>
<path d="M7.86921 8.52959H6.2561V10.1356H7.86921V8.52959Z" fill="#337CFB"/>
<path d="M38.5169 6.92368H36.9038V8.52969H38.5169V6.92368Z" fill="#337CFB"/>
<path d="M36.9051 6.92368H35.292V8.52969H36.9051V6.92368Z" fill="#337CFB"/>
<path d="M35.2911 6.92368H33.678V8.52969H35.2911V6.92368Z" fill="#337CFB"/>
<path d="M33.679 6.92368H32.0659V8.52969H33.679V6.92368Z" fill="#337CFB"/>
<path d="M32.065 6.92368H30.4519V8.52969H32.065V6.92368Z" fill="#337CFB"/>
<path d="M30.451 6.92368H28.8379V8.52969H30.451V6.92368Z" fill="#337CFB"/>
<path d="M28.8392 6.92368H27.2261V8.52969H28.8392V6.92368Z" fill="#337CFB"/>
<path d="M27.2271 6.92368H25.614V8.52969H27.2271V6.92368Z" fill="#337CFB"/>
<path d="M25.6153 6.92368H24.0022V8.52969H25.6153V6.92368Z" fill="#337CFB"/>
<path d="M23.9991 6.92368H22.386V8.52969H23.9991V6.92368Z" fill="#337CFB"/>
<path d="M22.387 6.92368H20.7739V8.52969H22.387V6.92368Z" fill="#337CFB"/>
<path d="M20.773 6.92368H19.1599V8.52969H20.773V6.92368Z" fill="#337CFB"/>
<path d="M19.1612 6.92368H17.5481V8.52969H19.1612V6.92368Z" fill="#337CFB"/>
<path d="M17.5491 6.92368H15.936V8.52969H17.5491V6.92368Z" fill="#337CFB"/>
<path d="M15.9332 6.92368H14.3201V8.52969H15.9332V6.92368Z" fill="#337CFB"/>
<path d="M14.3211 6.92368H12.708V8.52969H14.3211V6.92368Z" fill="#337CFB"/>
<path d="M12.7093 6.92368H11.0962V8.52969H12.7093V6.92368Z" fill="#337CFB"/>
<path d="M11.0972 6.92368H9.48413V8.52969H11.0972V6.92368Z" fill="#337CFB"/>
<path d="M36.9051 5.31752H35.292V6.92354H36.9051V5.31752Z" fill="#337CFB"/>
<path d="M35.2911 5.31752H33.678V6.92354H35.2911V5.31752Z" fill="#337CFB"/>
<path d="M33.679 5.31752H32.0659V6.92354H33.679V5.31752Z" fill="#337CFB"/>
<path d="M32.065 5.31752H30.4519V6.92354H32.065V5.31752Z" fill="#337CFB"/>
<path d="M30.451 5.31752H28.8379V6.92354H30.451V5.31752Z" fill="#337CFB"/>
<path d="M28.8392 5.31752H27.2261V6.92354H28.8392V5.31752Z" fill="#337CFB"/>
<path d="M27.2271 5.31752H25.614V6.92354H27.2271V5.31752Z" fill="#337CFB"/>
<path d="M25.6153 5.31752H24.0022V6.92354H25.6153V5.31752Z" fill="#337CFB"/>
<path d="M23.9991 5.31752H22.386V6.92354H23.9991V5.31752Z" fill="#337CFB"/>
<path d="M22.387 5.31752H20.7739V6.92354H22.387V5.31752Z" fill="#337CFB"/>
<path d="M20.773 5.31752H19.1599V6.92354H20.773V5.31752Z" fill="#337CFB"/>
<path d="M19.1612 5.31752H17.5481V6.92354H19.1612V5.31752Z" fill="#337CFB"/>
<path d="M17.5491 5.31752H15.936V6.92354H17.5491V5.31752Z" fill="#337CFB"/>
<path d="M15.9332 5.31752H14.3201V6.92354H15.9332V5.31752Z" fill="#337CFB"/>
<path d="M14.3211 5.31752H12.708V6.92354H14.3211V5.31752Z" fill="#337CFB"/>
<path d="M33.679 3.71135H32.0659V5.31736H33.679V3.71135Z" fill="#337CFB"/>
<path d="M32.065 3.71135H30.4519V5.31736H32.065V3.71135Z" fill="#337CFB"/>
<path d="M30.451 3.71135H28.8379V5.31736H30.451V3.71135Z" fill="#337CFB"/>
<path d="M28.8392 3.71135H27.2261V5.31736H28.8392V3.71135Z" fill="#337CFB"/>
<path d="M27.2271 3.71135H25.614V5.31736H27.2271V3.71135Z" fill="#337CFB"/>
<path d="M25.6153 3.71135H24.0022V5.31736H25.6153V3.71135Z" fill="#337CFB"/>
<path d="M23.9991 3.71135H22.386V5.31736H23.9991V3.71135Z" fill="#337CFB"/>
<path d="M22.387 3.71135H20.7739V5.31736H22.387V3.71135Z" fill="#337CFB"/>
<path d="M20.773 3.71135H19.1599V5.31736H20.773V3.71135Z" fill="#337CFB"/>
<path d="M19.1612 3.71135H17.5481V5.31736H19.1612V3.71135Z" fill="#337CFB"/>
<path d="M17.5491 3.71135H15.936V5.31736H17.5491V3.71135Z" fill="#337CFB"/>
<path d="M15.9332 3.71135H14.3201V5.31736H15.9332V3.71135Z" fill="#337CFB"/>
<path d="M30.451 2.10544H28.8379V3.71145H30.451V2.10544Z" fill="#337CFB"/>
<path d="M28.8392 2.10544H27.2261V3.71145H28.8392V2.10544Z" fill="#337CFB"/>
<path d="M27.2271 2.10544H25.614V3.71145H27.2271V2.10544Z" fill="#337CFB"/>
<path d="M25.6153 2.10544H24.0022V3.71145H25.6153V2.10544Z" fill="#337CFB"/>
<path d="M23.9991 2.10544H22.386V3.71145H23.9991V2.10544Z" fill="#337CFB"/>
<path d="M22.387 2.10544H20.7739V3.71145H22.387V2.10544Z" fill="#337CFB"/>
<path d="M20.773 2.10544H19.1599V3.71145H20.773V2.10544Z" fill="#337CFB"/>
<path d="M19.1612 2.10544H17.5481V3.71145H19.1612V2.10544Z" fill="#337CFB"/>
<path d="M27.2271 0.499268H25.614V2.10528H27.2271V0.499268Z" fill="#337CFB"/>
<path d="M25.6153 0.499268H24.0022V2.10528H25.6153V0.499268Z" fill="#337CFB"/>
<path d="M23.9991 0.499268H22.386V2.10528H23.9991V0.499268Z" fill="#337CFB"/>
<path d="M22.387 0.499268H20.7739V2.10528H22.387V0.499268Z" fill="#337CFB"/>
</g>
<defs>
<clipPath id="clip0_3015_33">
<rect width="48" height="54" fill="white"/>
</clipPath>
</defs>
</svg>
