<svg width="13" height="13" viewBox="0 0 13 13" fill="none" xmlns="http://www.w3.org/2000/svg">
<g clip-path="url(#clip0_704_52673)">
<path d="M3.73367 2.78186H1.86133V3.70421H3.73367V2.78186Z" fill="#FDFDFD"/>
<path d="M4.6561 3.70435H0.958496V4.6267H4.6561V3.70435Z" fill="#FDFDFD"/>
<path d="M4.65623 4.56458H2.79736V6.50678H4.65623V4.56458Z" fill="#FDFDFD"/>
<path d="M3.7267 6.50214H1.85645V7.42949H3.7267V6.50214Z" fill="#FDFDFD"/>
<path d="M9.30736 2.75122H7.41016V3.68579H9.30736V2.75122Z" fill="#FDFDFD"/>
<path d="M10.2281 3.68579H6.48145V4.62036H10.2281V3.68579Z" fill="#FDFDFD"/>
<path d="M10.214 4.55743H8.33057V6.52533H10.214V4.55743Z" fill="#FDFDFD"/>
<path d="M9.31393 6.52075H7.41895V7.46046H9.31393V6.52075Z" fill="#FDFDFD"/>
<path d="M1.84526 6.49299L1.84456 7.38853C1.84151 7.4027 1.85456 7.43645 1.86609 7.43645H3.69746C3.69899 7.43645 3.71829 7.41714 3.71829 7.41561V6.52771C3.71829 6.52618 3.7376 6.50687 3.73913 6.50687H4.62703C4.62856 6.50687 4.64787 6.48757 4.64787 6.48604V3.7251C4.64787 3.72357 4.62856 3.70427 4.62703 3.70427H3.73913C3.7376 3.70427 3.71829 3.68496 3.71829 3.68343V2.79553C3.71829 2.794 3.69899 2.77469 3.69746 2.77469H1.85915V1.87984C1.85915 1.87831 1.87845 1.85901 1.87998 1.85901H2.76789C2.76941 1.85901 2.78872 1.8397 2.78872 1.83817V0.950268C2.78872 0.94874 2.80803 0.929434 2.80955 0.929434H4.62703C4.62856 0.929434 4.64787 0.910129 4.64787 0.908601V0.0208331C4.64787 0.0193053 4.66717 0 4.6687 0H8.33144C8.33297 0 8.35227 0.0193053 8.35227 0.0208331V0.90874C8.35227 0.910268 8.37158 0.929573 8.37311 0.929573H10.2114V1.82442C10.2114 1.82692 10.2436 1.85915 10.2461 1.85915H11.141V2.754C11.141 2.7565 11.1732 2.78872 11.1757 2.78872H12.0706V5.54272C12.0706 5.54522 12.1028 5.57744 12.1053 5.57744H13.0001V13H12.0845V12.1051C12.0845 12.1026 12.0522 12.0704 12.0497 12.0704H11.1549V11.1756C11.1549 11.1732 11.1335 11.1511 11.127 11.1481H10.2395C10.2329 11.1511 10.2116 11.1732 10.2116 11.1756V12.0704H9.31671C9.31421 12.0704 9.28198 12.1026 9.28198 12.1051V13H7.43673V11.1756C7.43673 11.1732 7.41534 11.1511 7.40881 11.1481H5.59175C5.58522 11.1511 5.56383 11.1732 5.56383 11.1756V13H3.71857V12.1051C3.71857 12.1026 3.68635 12.0704 3.68385 12.0704H2.789V11.1756C2.789 11.1732 2.76761 11.1511 2.76108 11.1481H1.87359C1.86706 11.1511 1.84567 11.1732 1.84567 11.1756V12.0704H0.950823C0.948323 12.0704 0.916101 12.1026 0.916101 12.1051V13H0V5.5773H0.929573C0.929712 5.83508 0.899574 6.20202 0.928879 6.44507C0.930685 6.45993 0.928323 6.47701 0.94249 6.48688C0.979573 6.51271 1.73081 6.49285 1.84512 6.49299H1.84526ZM7.42256 6.50687L7.42187 7.37464L7.4502 7.4295L9.26754 7.42923C9.27407 7.42617 9.29546 7.40409 9.29546 7.40173V6.50687H10.1903C10.1927 6.50687 10.2148 6.48549 10.2178 6.47896V3.73232C10.2148 3.72579 10.1927 3.7044 10.1903 3.7044H9.29546V2.80955C9.29546 2.80719 9.27407 2.78511 9.26754 2.78205H7.45048C7.44395 2.78511 7.42256 2.80719 7.42256 2.80955V3.7044H6.52771C6.51007 3.7044 6.49479 3.74788 6.49229 3.76621C6.46076 3.99982 6.49368 4.38231 6.49299 4.63398C6.49132 5.24883 6.48854 5.86452 6.49979 6.47924C6.51257 6.50229 6.53104 6.50451 6.55465 6.50757C6.79173 6.53812 7.16867 6.50674 7.42242 6.50687H7.42256Z" fill="#FE0101"/>
<path d="M1.85923 6.49296C1.74479 6.49296 0.993548 6.51268 0.956604 6.48685C0.942437 6.47699 0.944798 6.45991 0.942993 6.44505C0.913687 6.20199 0.943826 5.83505 0.943687 5.57728C0.943548 5.31464 0.913826 4.94395 0.942993 4.69562C0.944659 4.68159 0.949381 4.64771 0.96452 4.64771H2.76811C2.76964 4.64771 2.78895 4.66701 2.78895 4.66854V6.47213C2.78895 6.48727 2.75506 6.49199 2.74103 6.49366C2.4927 6.52282 2.12201 6.4931 1.85937 6.49296H1.85923Z" fill="#1F1DDC"/>
<path d="M1.85883 2.80261V3.68358C1.85883 3.6851 1.83952 3.70441 1.83799 3.70441H0.957031V2.80261H1.85883Z" fill="#FE0101"/>
<path d="M7.43647 6.50689C7.18273 6.50675 6.80579 6.53814 6.56871 6.50759C6.54509 6.50453 6.52662 6.50245 6.51384 6.47925C6.50246 5.86454 6.50523 5.24871 6.50704 4.634L8.31827 4.6333L8.37313 4.66163V6.47925C8.36035 6.50231 8.34188 6.50453 8.31827 6.50759C8.07799 6.53856 7.69383 6.50717 7.43661 6.50689H7.43647Z" fill="#1F1DDC"/>
</g>
<defs>
<clipPath id="clip0_704_52673">
<rect width="13" height="13" fill="white"/>
</clipPath>
</defs>
</svg>
