<svg width="134" height="138" viewBox="0 0 134 138" fill="none" xmlns="http://www.w3.org/2000/svg">
<mask id="path-1-outside-1_306_15" maskUnits="userSpaceOnUse" x="0" y="0" width="134" height="138" fill="black">
<rect fill="white" width="134" height="138"/>
<path d="M130.172 92.1043C125.743 104.758 117.609 115.107 105.769 123.151C94.019 131.195 81.4558 135.172 68.0792 135.081C55.968 135.081 44.6702 131.827 34.1858 125.32C23.7014 118.903 15.5218 110.181 9.64695 99.1541C5.03744 90.4774 2.73269 80.3997 2.73269 68.9212C2.73269 58.1656 4.81148 48.7659 8.96908 40.7218C14.8439 29.1529 23.1139 20.0694 33.7791 13.4715C44.5346 6.7832 56.2391 3.43905 68.8927 3.43905C72.508 3.43905 76.1233 3.71019 79.7386 4.25249C89.4999 5.78899 98.6285 9.63024 107.124 15.7763C115.982 22.1934 122.535 29.9211 126.783 38.9594C115.304 45.9188 98.0862 56.3128 75.1291 70.1413C95.0132 78.9084 113.361 86.2294 130.172 92.1043ZM123.122 94.5446C102.153 86.6813 83.0827 78.818 65.9101 70.9548C72.9599 66.8876 82.2241 61.2838 93.7027 54.1436C107.441 45.4669 116.524 39.7728 120.953 37.0613C116.705 29.2884 110.559 22.8261 102.515 17.6743C95.194 12.9744 87.0144 9.76582 77.9761 8.04855C75.5358 7.86779 73.1406 7.77741 70.7907 7.77741C58.8602 7.77741 48.0143 10.3985 38.253 15.6407C27.9494 21.2444 19.9506 29.1981 14.2565 39.5017C9.3758 48.2688 6.93547 58.1656 6.93547 69.1923C6.93547 84.1958 11.1383 96.6686 19.5438 106.611C25.961 114.203 33.4175 120.123 41.9135 124.371C50.4998 128.709 59.4477 130.878 68.7571 130.878C75.2646 130.878 81.6366 129.794 87.873 127.625C96.0978 124.823 103.419 120.62 109.836 115.016C117.157 108.689 121.586 101.866 123.122 94.5446ZM110.378 99.1541C110.378 101.504 108.887 104.08 105.904 106.882C103.554 109.051 100.843 110.904 97.7699 112.44L96.5497 111.491C98.4477 109.955 100.346 108.373 102.244 106.746C104.594 104.758 106.175 102.769 106.989 100.781C102.741 98.7022 96.9112 96.2619 89.4999 93.46C80.552 90.0255 74.632 87.6755 71.7397 86.4102V84.241L110.378 99.1541ZM65.0966 36.1123C65.0966 31.322 65.6389 27.2548 66.7235 23.9107C67.8081 20.5665 69.1186 18.8944 70.6551 18.8944C72.1916 18.8944 73.5022 20.5665 74.5868 23.9107C75.6714 27.2548 76.2137 31.322 76.2137 36.1123C76.2137 40.9026 75.6714 44.9698 74.5868 48.314C73.5022 51.6581 72.1916 53.3302 70.6551 53.3302C69.1186 53.3302 67.8081 51.6581 66.7235 48.314C65.6389 44.9698 65.0966 40.9026 65.0966 36.1123ZM80.1453 35.57C80.1453 30.7797 80.6876 26.7125 81.7722 23.3684C82.8568 20.0242 84.1673 18.3522 85.7038 18.3522C87.2403 18.3522 88.5509 20.0242 89.6355 23.3684C90.72 26.7125 91.2623 30.7797 91.2623 35.57C91.2623 40.3603 90.72 44.4275 89.6355 47.7717C88.5509 51.1158 87.2403 52.7879 85.7038 52.7879C84.1673 52.7879 82.8568 51.1158 81.7722 47.7717C80.6876 44.4275 80.1453 40.3603 80.1453 35.57Z"/>
</mask>
<path d="M130.172 92.1043C125.743 104.758 117.609 115.107 105.769 123.151C94.019 131.195 81.4558 135.172 68.0792 135.081C55.968 135.081 44.6702 131.827 34.1858 125.32C23.7014 118.903 15.5218 110.181 9.64695 99.1541C5.03744 90.4774 2.73269 80.3997 2.73269 68.9212C2.73269 58.1656 4.81148 48.7659 8.96908 40.7218C14.8439 29.1529 23.1139 20.0694 33.7791 13.4715C44.5346 6.7832 56.2391 3.43905 68.8927 3.43905C72.508 3.43905 76.1233 3.71019 79.7386 4.25249C89.4999 5.78899 98.6285 9.63024 107.124 15.7763C115.982 22.1934 122.535 29.9211 126.783 38.9594C115.304 45.9188 98.0862 56.3128 75.1291 70.1413C95.0132 78.9084 113.361 86.2294 130.172 92.1043ZM123.122 94.5446C102.153 86.6813 83.0827 78.818 65.9101 70.9548C72.9599 66.8876 82.2241 61.2838 93.7027 54.1436C107.441 45.4669 116.524 39.7728 120.953 37.0613C116.705 29.2884 110.559 22.8261 102.515 17.6743C95.194 12.9744 87.0144 9.76582 77.9761 8.04855C75.5358 7.86779 73.1406 7.77741 70.7907 7.77741C58.8602 7.77741 48.0143 10.3985 38.253 15.6407C27.9494 21.2444 19.9506 29.1981 14.2565 39.5017C9.3758 48.2688 6.93547 58.1656 6.93547 69.1923C6.93547 84.1958 11.1383 96.6686 19.5438 106.611C25.961 114.203 33.4175 120.123 41.9135 124.371C50.4998 128.709 59.4477 130.878 68.7571 130.878C75.2646 130.878 81.6366 129.794 87.873 127.625C96.0978 124.823 103.419 120.62 109.836 115.016C117.157 108.689 121.586 101.866 123.122 94.5446ZM110.378 99.1541C110.378 101.504 108.887 104.08 105.904 106.882C103.554 109.051 100.843 110.904 97.7699 112.44L96.5497 111.491C98.4477 109.955 100.346 108.373 102.244 106.746C104.594 104.758 106.175 102.769 106.989 100.781C102.741 98.7022 96.9112 96.2619 89.4999 93.46C80.552 90.0255 74.632 87.6755 71.7397 86.4102V84.241L110.378 99.1541ZM65.0966 36.1123C65.0966 31.322 65.6389 27.2548 66.7235 23.9107C67.8081 20.5665 69.1186 18.8944 70.6551 18.8944C72.1916 18.8944 73.5022 20.5665 74.5868 23.9107C75.6714 27.2548 76.2137 31.322 76.2137 36.1123C76.2137 40.9026 75.6714 44.9698 74.5868 48.314C73.5022 51.6581 72.1916 53.3302 70.6551 53.3302C69.1186 53.3302 67.8081 51.6581 66.7235 48.314C65.6389 44.9698 65.0966 40.9026 65.0966 36.1123ZM80.1453 35.57C80.1453 30.7797 80.6876 26.7125 81.7722 23.3684C82.8568 20.0242 84.1673 18.3522 85.7038 18.3522C87.2403 18.3522 88.5509 20.0242 89.6355 23.3684C90.72 26.7125 91.2623 30.7797 91.2623 35.57C91.2623 40.3603 90.72 44.4275 89.6355 47.7717C88.5509 51.1158 87.2403 52.7879 85.7038 52.7879C84.1673 52.7879 82.8568 51.1158 81.7722 47.7717C80.6876 44.4275 80.1453 40.3603 80.1453 35.57Z" fill="url(#paint0_linear_306_15)"/>
<path d="M130.172 92.1043L132.731 93L133.627 90.4395L131.067 89.5446L130.172 92.1043ZM105.769 123.151L104.245 120.908L104.237 120.913L105.769 123.151ZM68.0792 135.081L68.0975 132.37L68.0884 132.37H68.0792V135.081ZM34.1858 125.32L35.6157 123.016L35.6085 123.012L35.6013 123.007L34.1858 125.32ZM9.64695 99.1541L7.2524 100.426L7.25393 100.429L9.64695 99.1541ZM8.96908 40.7218L11.3778 41.9668L11.3823 41.9582L11.3867 41.9495L8.96908 40.7218ZM33.7791 13.4715L35.2056 15.7774L35.2109 15.7741L33.7791 13.4715ZM79.7386 4.25249L80.1602 1.57399L80.1505 1.57247L80.1408 1.57101L79.7386 4.25249ZM107.124 15.7762L108.715 13.5805L108.714 13.5793L107.124 15.7762ZM126.783 38.9594L128.188 41.278L130.274 40.0134L129.237 37.806L126.783 38.9594ZM75.1291 70.1413L73.73 67.8187L69.2545 70.5145L74.0352 72.6223L75.1291 70.1413ZM123.122 94.5446L125.776 95.1015L126.254 92.8232L124.074 92.0058L123.122 94.5446ZM65.91 70.9548L64.5551 68.6061L60.0031 71.2322L64.7812 73.4201L65.91 70.9548ZM93.7027 54.1436L95.1349 56.446L95.1427 56.4411L95.1506 56.4361L93.7027 54.1436ZM120.953 37.0613L122.369 39.3738L124.57 38.026L123.332 35.761L120.953 37.0613ZM102.515 17.6743L101.05 19.956L101.053 19.9576L102.515 17.6743ZM77.9761 8.04855L78.4822 5.38473L78.3305 5.3559L78.1764 5.34448L77.9761 8.04855ZM38.253 15.6407L36.9701 13.2519L36.9638 13.2553L36.9575 13.2587L38.253 15.6407ZM14.2565 39.5017L16.6256 40.8205L16.6297 40.8132L14.2565 39.5017ZM19.5438 106.611L21.6147 104.86L21.6144 104.86L19.5438 106.611ZM41.9135 124.371L43.1363 121.951L43.1261 121.946L41.9135 124.371ZM87.873 127.625L86.9986 125.058L86.9904 125.061L86.9822 125.064L87.873 127.625ZM109.836 115.016L108.063 112.965L108.052 112.974L109.836 115.016ZM110.378 99.1541H113.09V97.2942L111.355 96.6245L110.378 99.1541ZM105.904 106.882L107.743 108.874L107.752 108.866L107.761 108.858L105.904 106.882ZM97.7699 112.44L96.1052 114.581L97.4541 115.63L98.9825 114.866L97.7699 112.44ZM96.5497 111.491L94.8437 109.384L92.1878 111.534L94.885 113.632L96.5497 111.491ZM102.244 106.746L100.492 104.676L100.486 104.682L100.479 104.688L102.244 106.746ZM106.989 100.781L109.498 101.808L110.459 99.4603L108.181 98.3455L106.989 100.781ZM89.4999 93.46L88.5282 95.9914L88.541 95.9963L89.4999 93.46ZM71.7397 86.4102H69.0283V88.1835L70.6529 88.8943L71.7397 86.4102ZM71.7397 84.241L72.7161 81.7114L69.0283 80.288V84.241H71.7397ZM74.5868 23.9107L72.0076 24.7472V24.7472L74.5868 23.9107ZM74.5868 48.3139L72.0076 47.4774L74.5868 48.3139ZM81.7722 23.3684L84.3514 24.2049V24.2049L81.7722 23.3684ZM89.6355 23.3684L87.0562 24.2049V24.2049L89.6355 23.3684ZM89.6355 47.7717L87.0562 46.9352V46.9352L89.6355 47.7717ZM81.7722 47.7717L84.3514 46.9352V46.9352L81.7722 47.7717ZM127.613 91.2085C123.389 103.276 115.639 113.167 104.245 120.908L107.292 125.393C119.579 117.046 128.097 106.24 132.731 93L127.613 91.2085ZM104.237 120.913C92.9125 128.666 80.8847 132.456 68.0975 132.37L68.0609 137.793C82.0269 137.887 95.1255 133.723 107.3 125.388L104.237 120.913ZM68.0792 132.37C56.4833 132.37 45.6793 129.262 35.6157 123.016L32.7559 127.624C43.661 134.392 55.4527 137.793 68.0792 137.793V132.37ZM35.6013 123.007C25.5366 116.847 17.6913 108.486 12.04 97.8791L7.25393 100.429C13.3523 111.875 21.8663 120.959 32.7703 127.632L35.6013 123.007ZM12.0415 97.882C7.67257 89.6581 5.44416 80.031 5.44416 68.9212H0.0212126C0.0212126 80.7685 2.40231 91.2966 7.2524 100.426L12.0415 97.882ZM5.44416 68.9212C5.44416 58.5179 7.45328 49.56 11.3778 41.9668L6.56032 39.4768C2.16969 47.9717 0.0212126 57.8134 0.0212126 68.9212H5.44416ZM11.3867 41.9495C17.0445 30.8079 24.9786 22.1043 35.2056 15.7774L32.3526 11.1656C21.2493 18.0346 12.6434 27.4978 6.55147 39.4941L11.3867 41.9495ZM35.2109 15.7741C45.5371 9.35277 56.7457 6.15052 68.8927 6.15052V0.727571C55.7325 0.727571 43.5321 4.21363 32.3472 11.1689L35.2109 15.7741ZM68.8927 6.15052C72.3718 6.15052 75.8527 6.41142 79.3363 6.93396L80.1408 1.57101C76.3938 1.00897 72.6441 0.727571 68.8927 0.727571V6.15052ZM79.3169 6.93098C88.6309 8.39706 97.3634 12.0616 105.535 17.9732L108.714 13.5793C99.8936 7.19885 90.3689 3.18092 80.1602 1.57399L79.3169 6.93098ZM105.534 17.972C114.056 24.1465 120.294 31.528 124.329 40.1127L129.237 37.806C124.775 28.3142 117.908 20.2403 108.715 13.5805L105.534 17.972ZM125.377 36.6408C113.902 43.5981 96.6866 53.9905 73.73 67.8187L76.5281 72.464C99.4858 58.6351 116.706 48.2395 128.188 41.278L125.377 36.6408ZM74.0352 72.6223C93.9711 81.4123 112.386 88.761 129.277 94.6639L131.067 89.5446C114.336 83.6978 96.0554 76.4046 76.223 67.6603L74.0352 72.6223ZM124.074 92.0058C103.155 84.1609 84.1441 76.3218 67.0389 68.4894L64.7812 73.4201C82.0214 81.3143 101.152 89.2017 122.17 97.0834L124.074 92.0058ZM67.265 73.3034C74.3522 69.2147 83.645 63.5932 95.1349 56.446L92.2705 51.8412C80.8031 58.9745 71.5676 64.5604 64.5551 68.6061L67.265 73.3034ZM95.1506 56.4361C108.892 47.7574 117.959 42.0737 122.369 39.3738L119.537 34.7488C115.089 37.4719 105.99 43.1764 92.2548 51.8511L95.1506 56.4361ZM123.332 35.761C118.849 27.5577 112.374 20.7685 103.977 15.391L101.053 19.9576C108.744 24.8837 114.561 31.0192 118.574 38.3617L123.332 35.761ZM103.98 15.3925C96.3501 10.4945 87.8417 7.16303 78.4822 5.38473L77.47 10.7124C86.187 12.3686 94.0379 15.4543 101.05 19.956L103.98 15.3925ZM78.1764 5.34448C75.6722 5.15899 73.2102 5.06593 70.7907 5.06593V10.4889C73.0711 10.4889 75.3994 10.5766 77.7758 10.7526L78.1764 5.34448ZM70.7907 5.06593C58.4478 5.06593 47.1558 7.78179 36.9701 13.2519L39.5359 18.0295C48.8728 13.0152 59.2726 10.4889 70.7907 10.4889V5.06593ZM36.9575 13.2587C26.1983 19.1102 17.8263 27.4361 11.8833 38.1902L16.6297 40.8132C22.0748 30.96 29.7006 23.3786 39.5485 18.0227L36.9575 13.2587ZM11.8874 38.1828C6.76047 47.3922 4.224 57.7508 4.224 69.1923H9.64695C9.64695 58.5805 11.9911 49.1453 16.6256 40.8205L11.8874 38.1828ZM4.224 69.1923C4.224 84.7334 8.5917 97.8563 17.4732 108.361L21.6144 104.86C13.6848 95.4809 9.64695 83.6582 9.64695 69.1923H4.224ZM17.473 108.361C24.1162 116.221 31.8608 122.376 40.7009 126.796L43.1261 121.946C34.9743 117.87 27.8057 112.185 21.6147 104.86L17.473 108.361ZM40.6907 126.791C49.6431 131.314 59.0085 133.59 68.7571 133.59V128.167C59.8869 128.167 51.3566 126.104 43.1363 121.951L40.6907 126.791ZM68.7571 133.59C75.5724 133.59 82.2452 132.453 88.7638 130.186L86.9822 125.064C81.028 127.135 74.9569 128.167 68.7571 128.167V133.59ZM88.7473 130.191C97.2996 127.278 104.931 122.899 111.619 117.059L108.052 112.974C101.907 118.341 94.896 122.368 86.9986 125.058L88.7473 130.191ZM111.609 117.068C119.247 110.467 124.086 103.155 125.776 95.1015L120.469 93.9877C119.086 100.577 115.067 106.912 108.063 112.965L111.609 117.068ZM107.667 99.1541C107.667 100.359 106.863 102.261 104.048 104.906L107.761 108.858C110.91 105.899 113.09 102.649 113.09 99.1541H107.667ZM104.065 104.889C101.916 106.873 99.419 108.584 96.5573 110.015L98.9825 114.866C102.267 113.223 105.193 111.229 107.743 108.874L104.065 104.889ZM99.4346 110.3L98.2144 109.351L94.885 113.632L96.1052 114.581L99.4346 110.3ZM98.2558 113.599C100.174 112.046 102.092 110.448 104.008 108.805L100.479 104.688C98.6 106.298 96.7215 107.864 94.8437 109.384L98.2558 113.599ZM103.995 108.816C106.543 106.66 108.464 104.336 109.498 101.808L104.479 99.7543C103.887 101.202 102.644 102.856 100.492 104.676L103.995 108.816ZM108.181 98.3455C103.823 96.213 97.9042 93.7385 90.4587 90.9237L88.541 95.9963C95.9183 98.7853 101.659 101.191 105.797 103.216L108.181 98.3455ZM90.4715 90.9286C81.5134 87.4901 75.6521 85.1622 72.8265 83.926L70.6529 88.8943C73.6119 90.1889 79.5906 92.5608 88.5282 95.9914L90.4715 90.9286ZM74.4512 86.4102V84.241H69.0283V86.4102H74.4512ZM70.7634 86.7706L109.402 101.684L111.355 96.6245L72.7161 81.7114L70.7634 86.7706ZM67.8081 36.1123C67.8081 31.5105 68.331 27.7432 69.3027 24.7472L64.1443 23.0742C62.9468 26.7665 62.3851 31.1336 62.3851 36.1123H67.8081ZM69.3027 24.7472C69.8025 23.2063 70.2818 22.296 70.6539 21.8212C71.004 21.3745 71.0083 21.6059 70.6551 21.6059V16.183C68.7654 16.183 67.3462 17.2505 66.3858 18.4758C65.4474 19.6731 64.7291 21.2709 64.1443 23.0742L69.3027 24.7472ZM70.6551 21.6059C70.3019 21.6059 70.3062 21.3745 70.6563 21.8212C71.0285 22.296 71.5078 23.2063 72.0076 24.7472L77.166 23.0742C76.5811 21.2709 75.8629 19.6731 74.9245 18.4758C73.9641 17.2505 72.5448 16.183 70.6551 16.183V21.6059ZM72.0076 24.7472C72.9792 27.7432 73.5022 31.5105 73.5022 36.1123H78.9251C78.9251 31.1336 78.3635 26.7665 77.166 23.0742L72.0076 24.7472ZM73.5022 36.1123C73.5022 40.7141 72.9792 44.4815 72.0076 47.4774L77.166 49.1505C78.3635 45.4581 78.9251 41.091 78.9251 36.1123H73.5022ZM72.0076 47.4774C71.5078 49.0184 71.0285 49.9286 70.6563 50.4035C70.3062 50.8502 70.3019 50.6187 70.6551 50.6187V56.0417C72.5448 56.0417 73.9641 54.9742 74.9245 53.7488C75.8629 52.5515 76.5811 50.9537 77.166 49.1505L72.0076 47.4774ZM70.6551 50.6187C71.0083 50.6187 71.004 50.8502 70.6539 50.4035C70.2818 49.9286 69.8025 49.0183 69.3027 47.4774L64.1443 49.1505C64.7291 50.9537 65.4474 52.5515 66.3858 53.7488C67.3462 54.9742 68.7654 56.0417 70.6551 56.0417V50.6187ZM69.3027 47.4774C68.331 44.4815 67.8081 40.7141 67.8081 36.1123H62.3851C62.3851 41.091 62.9468 45.4581 64.1443 49.1505L69.3027 47.4774ZM82.8568 35.57C82.8568 30.9682 83.3797 27.2009 84.3514 24.2049L79.193 22.5319C77.9955 26.2242 77.4338 30.5913 77.4338 35.57H82.8568ZM84.3514 24.2049C84.8512 22.664 85.3304 21.7537 85.7026 21.2789C86.0527 20.8322 86.057 21.0636 85.7038 21.0636V15.6407C83.8141 15.6407 82.3949 16.7082 81.4344 17.9335C80.4961 19.1308 79.7778 20.7286 79.193 22.5319L84.3514 24.2049ZM85.7038 21.0636C85.3506 21.0636 85.3549 20.8322 85.705 21.2789C86.0772 21.7537 86.5565 22.664 87.0562 24.2049L92.2147 22.5319C91.6298 20.7286 90.9116 19.1308 89.9732 17.9335C89.0128 16.7082 87.5935 15.6407 85.7038 15.6407V21.0636ZM87.0562 24.2049C88.0279 27.2009 88.5509 30.9682 88.5509 35.57H93.9738C93.9738 30.5913 93.4122 26.2242 92.2147 22.5319L87.0562 24.2049ZM88.5509 35.57C88.5509 40.1718 88.0279 43.9392 87.0562 46.9352L92.2147 48.6082C93.4122 44.9158 93.9738 40.5487 93.9738 35.57H88.5509ZM87.0562 46.9352C86.5565 48.4761 86.0772 49.3863 85.705 49.8612C85.3549 50.3079 85.3506 50.0764 85.7038 50.0764V55.4994C87.5935 55.4994 89.0128 54.4319 89.9732 53.2065C90.9116 52.0092 91.6298 50.4114 92.2147 48.6082L87.0562 46.9352ZM85.7038 50.0764C86.057 50.0764 86.0527 50.3079 85.7026 49.8612C85.3304 49.3863 84.8512 48.4761 84.3514 46.9352L79.193 48.6082C79.7778 50.4114 80.4961 52.0092 81.4344 53.2065C82.3949 54.4319 83.8141 55.4994 85.7038 55.4994V50.0764ZM84.3514 46.9352C83.3797 43.9392 82.8568 40.1718 82.8568 35.57H77.4338C77.4338 40.5487 77.9955 44.9158 79.193 48.6082L84.3514 46.9352Z" fill="black" mask="url(#path-1-outside-1_306_15)"/>
<defs>
<linearGradient id="paint0_linear_306_15" x1="66.4439" y1="-18" x2="68.7459" y2="154.895" gradientUnits="userSpaceOnUse">
<stop stop-color="#FBD60E"/>
<stop offset="0.554" stop-color="#DD903D"/>
</linearGradient>
</defs>
</svg>
