<svg width="385" height="385" viewBox="0 0 385 385" fill="none" xmlns="http://www.w3.org/2000/svg">
<path d="M209.752 325.618H201.126V334.206H209.752V325.618Z" fill="#337CFB"/>
<path d="M201.126 325.618H192.5V334.206H201.126V325.618Z" fill="#337CFB"/>
<path d="M192.5 325.618H183.874V334.206H192.5V325.618Z" fill="#337CFB"/>
<path d="M183.877 325.618H175.251V334.206H183.877V325.618Z" fill="#337CFB"/>
<path d="M227.001 317.03H218.375V325.618H227.001V317.03Z" fill="#337CFB"/>
<path d="M218.375 317.03H209.749V325.618H218.375V317.03Z" fill="#337CFB"/>
<path d="M209.752 317.03H201.126V325.618H209.752V317.03Z" fill="#337CFB"/>
<path d="M201.126 317.03H192.5V325.618H201.126V317.03Z" fill="#337CFB"/>
<path d="M192.5 317.03H183.874V325.618H192.5V317.03Z" fill="#337CFB"/>
<path d="M183.877 317.03H175.251V325.618H183.877V317.03Z" fill="#337CFB"/>
<path d="M175.251 317.03H166.625V325.618H175.251V317.03Z" fill="#337CFB"/>
<path d="M166.625 317.03H157.999V325.618H166.625V317.03Z" fill="#337CFB"/>
<path d="M244.251 308.44H235.625V317.028H244.251V308.44Z" fill="#337CFB"/>
<path d="M235.627 308.44H227.001V317.028H235.627V308.44Z" fill="#337CFB"/>
<path d="M227.001 308.44H218.375V317.028H227.001V308.44Z" fill="#337CFB"/>
<path d="M218.375 308.44H209.749V317.028H218.375V308.44Z" fill="#337CFB"/>
<path d="M209.752 308.44H201.126V317.028H209.752V308.44Z" fill="#337CFB"/>
<path d="M201.126 308.44H192.5V317.028H201.126V308.44Z" fill="#337CFB"/>
<path d="M192.5 308.44H183.874V317.028H192.5V308.44Z" fill="#337CFB"/>
<path d="M183.877 308.44H175.251V317.028H183.877V308.44Z" fill="#337CFB"/>
<path d="M175.251 308.44H166.625V317.028H175.251V308.44Z" fill="#337CFB"/>
<path d="M166.625 308.44H157.999V317.028H166.625V308.44Z" fill="#337CFB"/>
<path d="M158.001 308.44H149.375V317.028H158.001V308.44Z" fill="#337CFB"/>
<path d="M149.376 308.44H140.75V317.028H149.376V308.44Z" fill="#337CFB"/>
<path d="M261.502 299.854H252.876V308.441H261.502V299.854Z" fill="#337CFB"/>
<path d="M252.876 299.854H244.25V308.441H252.876V299.854Z" fill="#337CFB"/>
<path d="M244.251 299.854H235.625V308.441H244.251V299.854Z" fill="#337CFB"/>
<path d="M235.627 299.854H227.001V308.441H235.627V299.854Z" fill="#337CFB"/>
<path d="M227.001 299.854H218.375V308.441H227.001V299.854Z" fill="#337CFB"/>
<path d="M218.375 299.854H209.749V308.441H218.375V299.854Z" fill="#337CFB"/>
<path d="M209.752 299.854H201.126V308.441H209.752V299.854Z" fill="#337CFB"/>
<path d="M201.126 299.854H192.5V308.441H201.126V299.854Z" fill="#337CFB"/>
<path d="M192.5 299.854H183.874V308.441H192.5V299.854Z" fill="#337CFB"/>
<path d="M183.877 299.854H175.251V308.441H183.877V299.854Z" fill="#337CFB"/>
<path d="M175.251 299.854H166.625V308.441H175.251V299.854Z" fill="#337CFB"/>
<path d="M166.625 299.854H157.999V308.441H166.625V299.854Z" fill="#337CFB"/>
<path d="M158.001 299.854H149.375V308.441H158.001V299.854Z" fill="#337CFB"/>
<path d="M149.376 299.854H140.75V308.441H149.376V299.854Z" fill="#337CFB"/>
<path d="M140.75 299.854H132.124V308.441H140.75V299.854Z" fill="#337CFB"/>
<path d="M132.127 299.854H123.501V308.441H132.127V299.854Z" fill="#337CFB"/>
<path d="M270.126 291.266H261.5V299.853H270.126V291.266Z" fill="#337CFB"/>
<path d="M261.502 291.266H252.876V299.853H261.502V291.266Z" fill="#337CFB"/>
<path d="M252.876 291.266H244.25V299.853H252.876V291.266Z" fill="#337CFB"/>
<path d="M244.251 291.266H235.625V299.853H244.251V291.266Z" fill="#337CFB"/>
<path d="M235.627 291.266H227.001V299.853H235.627V291.266Z" fill="#337CFB"/>
<path d="M227.001 291.266H218.375V299.853H227.001V291.266Z" fill="#337CFB"/>
<path d="M218.375 291.266H209.749V299.853H218.375V291.266Z" fill="#337CFB"/>
<path d="M209.752 291.266H201.126V299.853H209.752V291.266Z" fill="#337CFB"/>
<path d="M201.126 291.266H192.5V299.853H201.126V291.266Z" fill="#337CFB"/>
<path d="M192.5 291.266H183.874V299.853H192.5V291.266Z" fill="#337CFB"/>
<path d="M183.877 291.266H175.251V299.853H183.877V291.266Z" fill="#337CFB"/>
<path d="M175.251 291.266H166.625V299.853H175.251V291.266Z" fill="#337CFB"/>
<path d="M166.625 291.266H157.999V299.853H166.625V291.266Z" fill="#337CFB"/>
<path d="M158.001 291.266H149.375V299.853H158.001V291.266Z" fill="#337CFB"/>
<path d="M149.376 291.266H140.75V299.853H149.376V291.266Z" fill="#337CFB"/>
<path d="M140.75 291.266H132.124V299.853H140.75V291.266Z" fill="#337CFB"/>
<path d="M132.127 291.266H123.501V299.853H132.127V291.266Z" fill="#337CFB"/>
<path d="M123.501 291.266H114.875V299.853H123.501V291.266Z" fill="#337CFB"/>
<path d="M287.377 282.676H278.751V291.264H287.377V282.676Z" fill="#337CFB"/>
<path d="M278.751 282.676H270.125V291.264H278.751V282.676Z" fill="#337CFB"/>
<path d="M270.126 282.676H261.5V291.264H270.126V282.676Z" fill="#337CFB"/>
<path d="M261.502 282.676H252.876V291.264H261.502V282.676Z" fill="#337CFB"/>
<path d="M252.876 282.676H244.25V291.264H252.876V282.676Z" fill="#337CFB"/>
<path d="M244.251 282.676H235.625V291.264H244.251V282.676Z" fill="#337CFB"/>
<path d="M235.627 282.676H227.001V291.264H235.627V282.676Z" fill="#337CFB"/>
<path d="M227.001 282.676H218.375V291.264H227.001V282.676Z" fill="#337CFB"/>
<path d="M218.375 282.676H209.749V291.264H218.375V282.676Z" fill="#337CFB"/>
<path d="M209.752 282.676H201.126V291.264H209.752V282.676Z" fill="#337CFB"/>
<path d="M201.126 282.676H192.5V291.264H201.126V282.676Z" fill="#337CFB"/>
<path d="M192.5 282.676H183.874V291.264H192.5V282.676Z" fill="#337CFB"/>
<path d="M183.877 282.676H175.251V291.264H183.877V282.676Z" fill="#337CFB"/>
<path d="M175.251 282.676H166.625V291.264H175.251V282.676Z" fill="#337CFB"/>
<path d="M166.625 282.676H157.999V291.264H166.625V282.676Z" fill="#337CFB"/>
<path d="M158.001 282.676H149.375V291.264H158.001V282.676Z" fill="#337CFB"/>
<path d="M149.376 282.676H140.75V291.264H149.376V282.676Z" fill="#337CFB"/>
<path d="M140.75 282.676H132.124V291.264H140.75V282.676Z" fill="#337CFB"/>
<path d="M132.127 282.676H123.501V291.264H132.127V282.676Z" fill="#337CFB"/>
<path d="M123.501 282.676H114.875V291.264H123.501V282.676Z" fill="#337CFB"/>
<path d="M114.875 282.676H106.249V291.264H114.875V282.676Z" fill="#337CFB"/>
<path d="M106.251 282.676H97.625V291.264H106.251V282.676Z" fill="#337CFB"/>
<path d="M304.626 274.088H296V282.676H304.626V274.088Z" fill="#337CFB"/>
<path d="M296.001 274.088H287.375V282.676H296.001V274.088Z" fill="#337CFB"/>
<path d="M287.377 274.088H278.751V282.676H287.377V274.088Z" fill="#337CFB"/>
<path d="M278.751 274.088H270.125V282.676H278.751V274.088Z" fill="#337CFB"/>
<path d="M270.126 274.088H261.5V282.676H270.126V274.088Z" fill="#337CFB"/>
<path d="M261.502 274.088H252.876V282.676H261.502V274.088Z" fill="#337CFB"/>
<path d="M252.876 274.088H244.25V282.676H252.876V274.088Z" fill="#337CFB"/>
<path d="M244.251 274.088H235.625V282.676H244.251V274.088Z" fill="#337CFB"/>
<path d="M235.627 274.088H227.001V282.676H235.627V274.088Z" fill="#337CFB"/>
<path d="M227.001 274.088H218.375V282.676H227.001V274.088Z" fill="#337CFB"/>
<path d="M218.375 274.088H209.749V282.676H218.375V274.088Z" fill="#337CFB"/>
<path d="M209.752 274.088H201.126V282.676H209.752V274.088Z" fill="#337CFB"/>
<path d="M201.126 274.088H192.5V282.676H201.126V274.088Z" fill="#337CFB"/>
<path d="M192.5 274.088H183.874V282.676H192.5V274.088Z" fill="#337CFB"/>
<path d="M183.877 274.088H175.251V282.676H183.877V274.088Z" fill="#337CFB"/>
<path d="M175.251 274.088H166.625V282.676H175.251V274.088Z" fill="#337CFB"/>
<path d="M166.625 274.088H157.999V282.676H166.625V274.088Z" fill="#337CFB"/>
<path d="M158.001 274.088H149.375V282.676H158.001V274.088Z" fill="#337CFB"/>
<path d="M149.376 274.088H140.75V282.676H149.376V274.088Z" fill="#337CFB"/>
<path d="M140.75 274.088H132.124V282.676H140.75V274.088Z" fill="#337CFB"/>
<path d="M132.127 274.088H123.501V282.676H132.127V274.088Z" fill="#337CFB"/>
<path d="M123.501 274.088H114.875V282.676H123.501V274.088Z" fill="#337CFB"/>
<path d="M114.875 274.088H106.249V282.676H114.875V274.088Z" fill="#337CFB"/>
<path d="M106.251 274.088H97.625V282.676H106.251V274.088Z" fill="#337CFB"/>
<path d="M97.6257 274.088H89V282.676H97.6257V274.088Z" fill="#337CFB"/>
<path d="M88.9997 274.088H80.374V282.676H88.9997V274.088Z" fill="#337CFB"/>
<path d="M313.252 265.5H304.626V274.088H313.252V265.5Z" fill="#337CFB"/>
<path d="M304.626 265.5H296V274.088H304.626V265.5Z" fill="#337CFB"/>
<path d="M296.001 265.5H287.375V274.088H296.001V265.5Z" fill="#337CFB"/>
<path d="M287.377 265.5H278.751V274.088H287.377V265.5Z" fill="#337CFB"/>
<path d="M278.751 265.5H270.125V274.088H278.751V265.5Z" fill="#337CFB"/>
<path d="M270.126 265.5H261.5V274.088H270.126V265.5Z" fill="#337CFB"/>
<path d="M261.502 265.5H252.876V274.088H261.502V265.5Z" fill="#337CFB"/>
<path d="M252.876 265.5H244.25V274.088H252.876V265.5Z" fill="#337CFB"/>
<path d="M244.251 265.5H235.625V274.088H244.251V265.5Z" fill="#337CFB"/>
<path d="M235.627 265.5H227.001V274.088H235.627V265.5Z" fill="#337CFB"/>
<path d="M227.001 265.5H218.375V274.088H227.001V265.5Z" fill="#337CFB"/>
<path d="M218.375 265.5H209.749V274.088H218.375V265.5Z" fill="#337CFB"/>
<path d="M209.752 265.5H201.126V274.088H209.752V265.5Z" fill="#337CFB"/>
<path d="M201.126 265.5H192.5V274.088H201.126V265.5Z" fill="#337CFB"/>
<path d="M192.5 265.5H183.874V274.088H192.5V265.5Z" fill="#337CFB"/>
<path d="M183.877 265.5H175.251V274.088H183.877V265.5Z" fill="#337CFB"/>
<path d="M175.251 265.5H166.625V274.088H175.251V265.5Z" fill="#337CFB"/>
<path d="M166.625 265.5H157.999V274.088H166.625V265.5Z" fill="#337CFB"/>
<path d="M158.001 265.5H149.375V274.088H158.001V265.5Z" fill="#337CFB"/>
<path d="M149.376 265.5H140.75V274.088H149.376V265.5Z" fill="#337CFB"/>
<path d="M140.75 265.5H132.124V274.088H140.75V265.5Z" fill="#337CFB"/>
<path d="M132.127 265.5H123.501V274.088H132.127V265.5Z" fill="#337CFB"/>
<path d="M123.501 265.5H114.875V274.088H123.501V265.5Z" fill="#337CFB"/>
<path d="M114.875 265.5H106.249V274.088H114.875V265.5Z" fill="#337CFB"/>
<path d="M106.251 265.5H97.625V274.088H106.251V265.5Z" fill="#337CFB"/>
<path d="M97.6257 265.5H89V274.088H97.6257V265.5Z" fill="#337CFB"/>
<path d="M88.9997 265.5H80.374V274.088H88.9997V265.5Z" fill="#337CFB"/>
<path d="M80.3757 265.5H71.75V274.088H80.3757V265.5Z" fill="#337CFB"/>
<path d="M313.252 256.913H304.626V265.501H313.252V256.913Z" fill="#337CFB"/>
<path d="M304.626 256.913H296V265.501H304.626V256.913Z" fill="#337CFB"/>
<path d="M296.001 256.913H287.375V265.501H296.001V256.913Z" fill="#337CFB"/>
<path d="M287.377 256.913H278.751V265.501H287.377V256.913Z" fill="#337CFB"/>
<path d="M278.751 256.913H270.125V265.501H278.751V256.913Z" fill="#337CFB"/>
<path d="M270.126 256.913H261.5V265.501H270.126V256.913Z" fill="#337CFB"/>
<path d="M261.502 256.913H252.876V265.501H261.502V256.913Z" fill="#337CFB"/>
<path d="M252.876 256.913H244.25V265.501H252.876V256.913Z" fill="#337CFB"/>
<path d="M244.251 256.913H235.625V265.501H244.251V256.913Z" fill="#337CFB"/>
<path d="M235.627 256.913H227.001V265.501H235.627V256.913Z" fill="#337CFB"/>
<path d="M227.001 256.913H218.375V265.501H227.001V256.913Z" fill="#337CFB"/>
<path d="M218.375 256.913H209.749V265.501H218.375V256.913Z" fill="#337CFB"/>
<path d="M209.752 256.913H201.126V265.501H209.752V256.913Z" fill="#337CFB"/>
<path d="M201.126 256.913H192.5V265.501H201.126V256.913Z" fill="#337CFB"/>
<path d="M192.5 256.913H183.874V265.501H192.5V256.913Z" fill="#337CFB"/>
<path d="M183.877 256.913H175.251V265.501H183.877V256.913Z" fill="#337CFB"/>
<path d="M175.251 256.913H166.625V265.501H175.251V256.913Z" fill="#337CFB"/>
<path d="M166.625 256.913H157.999V265.501H166.625V256.913Z" fill="#337CFB"/>
<path d="M158.001 256.913H149.375V265.501H158.001V256.913Z" fill="#337CFB"/>
<path d="M149.376 256.913H140.75V265.501H149.376V256.913Z" fill="#337CFB"/>
<path d="M140.75 256.913H132.124V265.501H140.75V256.913Z" fill="#337CFB"/>
<path d="M132.127 256.913H123.501V265.501H132.127V256.913Z" fill="#337CFB"/>
<path d="M123.501 256.913H114.875V265.501H123.501V256.913Z" fill="#337CFB"/>
<path d="M114.875 256.913H106.249V265.501H114.875V256.913Z" fill="#337CFB"/>
<path d="M106.251 256.913H97.625V265.501H106.251V256.913Z" fill="#337CFB"/>
<path d="M97.6257 256.913H89V265.501H97.6257V256.913Z" fill="#337CFB"/>
<path d="M88.9997 256.913H80.374V265.501H88.9997V256.913Z" fill="#337CFB"/>
<path d="M80.3757 256.913H71.75V265.501H80.3757V256.913Z" fill="#337CFB"/>
<path d="M321.876 248.323H313.25V256.911H321.876V248.323Z" fill="#337CFB"/>
<path d="M313.252 248.323H304.626V256.911H313.252V248.323Z" fill="#337CFB"/>
<path d="M304.626 248.323H296V256.911H304.626V248.323Z" fill="#337CFB"/>
<path d="M296.001 248.323H287.375V256.911H296.001V248.323Z" fill="#337CFB"/>
<path d="M287.377 248.323H278.751V256.911H287.377V248.323Z" fill="#337CFB"/>
<path d="M278.751 248.323H270.125V256.911H278.751V248.323Z" fill="#337CFB"/>
<path d="M270.126 248.323H261.5V256.911H270.126V248.323Z" fill="#337CFB"/>
<path d="M261.502 248.323H252.876V256.911H261.502V248.323Z" fill="#337CFB"/>
<path d="M252.876 248.323H244.25V256.911H252.876V248.323Z" fill="#337CFB"/>
<path d="M244.251 248.323H235.625V256.911H244.251V248.323Z" fill="#337CFB"/>
<path d="M235.627 248.323H227.001V256.911H235.627V248.323Z" fill="#337CFB"/>
<path d="M227.001 248.323H218.375V256.911H227.001V248.323Z" fill="#337CFB"/>
<path d="M218.375 248.323H209.749V256.911H218.375V248.323Z" fill="#337CFB"/>
<path d="M209.752 248.323H201.126V256.911H209.752V248.323Z" fill="#337CFB"/>
<path d="M201.126 248.323H192.5V256.911H201.126V248.323Z" fill="#337CFB"/>
<path d="M192.5 248.323H183.874V256.911H192.5V248.323Z" fill="#337CFB"/>
<path d="M183.877 248.323H175.251V256.911H183.877V248.323Z" fill="#337CFB"/>
<path d="M175.251 248.323H166.625V256.911H175.251V248.323Z" fill="#337CFB"/>
<path d="M166.625 248.323H157.999V256.911H166.625V248.323Z" fill="#337CFB"/>
<path d="M158.001 248.323H149.375V256.911H158.001V248.323Z" fill="#337CFB"/>
<path d="M149.376 248.323H140.75V256.911H149.376V248.323Z" fill="#337CFB"/>
<path d="M140.75 248.323H132.124V256.911H140.75V248.323Z" fill="#337CFB"/>
<path d="M132.127 248.323H123.501V256.911H132.127V248.323Z" fill="#337CFB"/>
<path d="M123.501 248.323H114.875V256.911H123.501V248.323Z" fill="#337CFB"/>
<path d="M114.875 248.323H106.249V256.911H114.875V248.323Z" fill="#337CFB"/>
<path d="M106.251 248.323H97.625V256.911H106.251V248.323Z" fill="#337CFB"/>
<path d="M97.6257 248.323H89V256.911H97.6257V248.323Z" fill="#337CFB"/>
<path d="M88.9997 248.323H80.374V256.911H88.9997V248.323Z" fill="#337CFB"/>
<path d="M80.3757 248.323H71.75V256.911H80.3757V248.323Z" fill="#337CFB"/>
<path d="M71.7497 248.323H63.124V256.911H71.7497V248.323Z" fill="#337CFB"/>
<path d="M321.876 239.735H313.25V248.323H321.876V239.735Z" fill="#337CFB"/>
<path d="M313.252 239.735H304.626V248.323H313.252V239.735Z" fill="#337CFB"/>
<path d="M304.626 239.735H296V248.323H304.626V239.735Z" fill="#337CFB"/>
<path d="M296.001 239.735H287.375V248.323H296.001V239.735Z" fill="#337CFB"/>
<path d="M287.377 239.735H278.751V248.323H287.377V239.735Z" fill="#337CFB"/>
<path d="M278.751 239.735H270.125V248.323H278.751V239.735Z" fill="#337CFB"/>
<path d="M270.126 239.735H261.5V248.323H270.126V239.735Z" fill="#337CFB"/>
<path d="M261.502 239.735H252.876V248.323H261.502V239.735Z" fill="#337CFB"/>
<path d="M252.876 239.735H244.25V248.323H252.876V239.735Z" fill="#337CFB"/>
<path d="M244.251 239.735H235.625V248.323H244.251V239.735Z" fill="#337CFB"/>
<path d="M235.627 239.735H227.001V248.323H235.627V239.735Z" fill="#337CFB"/>
<path d="M227.001 239.735H218.375V248.323H227.001V239.735Z" fill="#337CFB"/>
<path d="M218.375 239.735H209.749V248.323H218.375V239.735Z" fill="#337CFB"/>
<path d="M209.752 239.735H201.126V248.323H209.752V239.735Z" fill="#337CFB"/>
<path d="M183.877 239.735H175.251V248.323H183.877V239.735Z" fill="#337CFB"/>
<path d="M175.251 239.735H166.625V248.323H175.251V239.735Z" fill="#337CFB"/>
<path d="M166.625 239.735H157.999V248.323H166.625V239.735Z" fill="#337CFB"/>
<path d="M158.001 239.735H149.375V248.323H158.001V239.735Z" fill="#337CFB"/>
<path d="M149.376 239.735H140.75V248.323H149.376V239.735Z" fill="#337CFB"/>
<path d="M140.75 239.735H132.124V248.323H140.75V239.735Z" fill="#337CFB"/>
<path d="M132.127 239.735H123.501V248.323H132.127V239.735Z" fill="#337CFB"/>
<path d="M123.501 239.735H114.875V248.323H123.501V239.735Z" fill="#337CFB"/>
<path d="M114.875 239.735H106.249V248.323H114.875V239.735Z" fill="#337CFB"/>
<path d="M106.251 239.735H97.625V248.323H106.251V239.735Z" fill="#337CFB"/>
<path d="M97.6257 239.735H89V248.323H97.6257V239.735Z" fill="#337CFB"/>
<path d="M88.9997 239.735H80.374V248.323H88.9997V239.735Z" fill="#337CFB"/>
<path d="M80.3757 239.735H71.75V248.323H80.3757V239.735Z" fill="#337CFB"/>
<path d="M71.7497 239.735H63.124V248.323H71.7497V239.735Z" fill="#337CFB"/>
<path d="M321.876 231.147H313.25V239.735H321.876V231.147Z" fill="#337CFB"/>
<path d="M313.252 231.147H304.626V239.735H313.252V231.147Z" fill="#337CFB"/>
<path d="M304.626 231.147H296V239.735H304.626V231.147Z" fill="#337CFB"/>
<path d="M296.001 231.147H287.375V239.735H296.001V231.147Z" fill="#337CFB"/>
<path d="M287.377 231.147H278.751V239.735H287.377V231.147Z" fill="#337CFB"/>
<path d="M278.751 231.147H270.125V239.735H278.751V231.147Z" fill="#337CFB"/>
<path d="M270.126 231.147H261.5V239.735H270.126V231.147Z" fill="#337CFB"/>
<path d="M261.502 231.147H252.876V239.735H261.502V231.147Z" fill="#337CFB"/>
<path d="M252.876 231.147H244.25V239.735H252.876V231.147Z" fill="#337CFB"/>
<path d="M244.251 231.147H235.625V239.735H244.251V231.147Z" fill="#337CFB"/>
<path d="M235.627 231.147H227.001V239.735H235.627V231.147Z" fill="#337CFB"/>
<path d="M227.001 231.147H218.375V239.735H227.001V231.147Z" fill="#337CFB"/>
<path d="M218.375 231.147H209.749V239.735H218.375V231.147Z" fill="#337CFB"/>
<path d="M209.752 231.147H201.126V239.735H209.752V231.147Z" fill="#337CFB"/>
<path d="M183.877 231.147H175.251V239.735H183.877V231.147Z" fill="#337CFB"/>
<path d="M175.251 231.147H166.625V239.735H175.251V231.147Z" fill="#337CFB"/>
<path d="M166.625 231.147H157.999V239.735H166.625V231.147Z" fill="#337CFB"/>
<path d="M158.001 231.147H149.375V239.735H158.001V231.147Z" fill="#337CFB"/>
<path d="M149.376 231.147H140.75V239.735H149.376V231.147Z" fill="#337CFB"/>
<path d="M140.75 231.147H132.124V239.735H140.75V231.147Z" fill="#337CFB"/>
<path d="M132.127 231.147H123.501V239.735H132.127V231.147Z" fill="#337CFB"/>
<path d="M123.501 231.147H114.875V239.735H123.501V231.147Z" fill="#337CFB"/>
<path d="M114.875 231.147H106.249V239.735H114.875V231.147Z" fill="#337CFB"/>
<path d="M106.251 231.147H97.625V239.735H106.251V231.147Z" fill="#337CFB"/>
<path d="M97.6257 231.147H89V239.735H97.6257V231.147Z" fill="#337CFB"/>
<path d="M88.9997 231.147H80.374V239.735H88.9997V231.147Z" fill="#337CFB"/>
<path d="M80.3757 231.147H71.75V239.735H80.3757V231.147Z" fill="#337CFB"/>
<path d="M71.7497 231.147H63.124V239.735H71.7497V231.147Z" fill="#337CFB"/>
<path d="M321.876 222.56H313.25V231.147H321.876V222.56Z" fill="#337CFB"/>
<path d="M313.252 222.56H304.626V231.147H313.252V222.56Z" fill="#337CFB"/>
<path d="M304.626 222.56H296V231.147H304.626V222.56Z" fill="#337CFB"/>
<path d="M296.001 222.56H287.375V231.147H296.001V222.56Z" fill="#337CFB"/>
<path d="M287.377 222.56H278.751V231.147H287.377V222.56Z" fill="#337CFB"/>
<path d="M278.751 222.56H270.125V231.147H278.751V222.56Z" fill="#337CFB"/>
<path d="M270.126 222.56H261.5V231.147H270.126V222.56Z" fill="#337CFB"/>
<path d="M261.502 222.56H252.876V231.147H261.502V222.56Z" fill="#337CFB"/>
<path d="M252.876 222.56H244.25V231.147H252.876V222.56Z" fill="#337CFB"/>
<path d="M244.251 222.56H235.625V231.147H244.251V222.56Z" fill="#337CFB"/>
<path d="M235.627 222.56H227.001V231.147H235.627V222.56Z" fill="#337CFB"/>
<path d="M227.001 222.56H218.375V231.147H227.001V222.56Z" fill="#337CFB"/>
<path d="M218.375 222.56H209.749V231.147H218.375V222.56Z" fill="#337CFB"/>
<path d="M209.752 222.56H201.126V231.147H209.752V222.56Z" fill="#337CFB"/>
<path d="M183.877 222.56H175.251V231.147H183.877V222.56Z" fill="#337CFB"/>
<path d="M175.251 222.56H166.625V231.147H175.251V222.56Z" fill="#337CFB"/>
<path d="M166.625 222.56H157.999V231.147H166.625V222.56Z" fill="#337CFB"/>
<path d="M158.001 222.56H149.375V231.147H158.001V222.56Z" fill="#337CFB"/>
<path d="M149.376 222.56H140.75V231.147H149.376V222.56Z" fill="#337CFB"/>
<path d="M140.75 222.56H132.124V231.147H140.75V222.56Z" fill="#337CFB"/>
<path d="M132.127 222.56H123.501V231.147H132.127V222.56Z" fill="#337CFB"/>
<path d="M123.501 222.56H114.875V231.147H123.501V222.56Z" fill="#337CFB"/>
<path d="M114.875 222.56H106.249V231.147H114.875V222.56Z" fill="#337CFB"/>
<path d="M106.251 222.56H97.625V231.147H106.251V222.56Z" fill="#337CFB"/>
<path d="M97.6257 222.56H89V231.147H97.6257V222.56Z" fill="#337CFB"/>
<path d="M88.9997 222.56H80.374V231.147H88.9997V222.56Z" fill="#337CFB"/>
<path d="M80.3757 222.56H71.75V231.147H80.3757V222.56Z" fill="#337CFB"/>
<path d="M71.7497 222.56H63.124V231.147H71.7497V222.56Z" fill="#337CFB"/>
<path d="M321.876 213.971H313.25V222.558H321.876V213.971Z" fill="#337CFB"/>
<path d="M313.252 213.971H304.626V222.558H313.252V213.971Z" fill="#337CFB"/>
<path d="M304.626 213.971H296V222.558H304.626V213.971Z" fill="#337CFB"/>
<path d="M296.001 213.971H287.375V222.558H296.001V213.971Z" fill="#337CFB"/>
<path d="M287.377 213.971H278.751V222.558H287.377V213.971Z" fill="#337CFB"/>
<path d="M278.751 213.971H270.125V222.558H278.751V213.971Z" fill="#337CFB"/>
<path d="M270.126 213.971H261.5V222.558H270.126V213.971Z" fill="#337CFB"/>
<path d="M261.502 213.971H252.876V222.558H261.502V213.971Z" fill="#337CFB"/>
<path d="M252.876 213.971H244.25V222.558H252.876V213.971Z" fill="#337CFB"/>
<path d="M244.251 213.971H235.625V222.558H244.251V213.971Z" fill="#337CFB"/>
<path d="M235.627 213.971H227.001V222.558H235.627V213.971Z" fill="#337CFB"/>
<path d="M227.001 213.971H218.375V222.558H227.001V213.971Z" fill="#337CFB"/>
<path d="M218.375 213.971H209.749V222.558H218.375V213.971Z" fill="#337CFB"/>
<path d="M175.251 213.971H166.625V222.558H175.251V213.971Z" fill="#337CFB"/>
<path d="M166.625 213.971H157.999V222.558H166.625V213.971Z" fill="#337CFB"/>
<path d="M158.001 213.971H149.375V222.558H158.001V213.971Z" fill="#337CFB"/>
<path d="M149.376 213.971H140.75V222.558H149.376V213.971Z" fill="#337CFB"/>
<path d="M140.75 213.971H132.124V222.558H140.75V213.971Z" fill="#337CFB"/>
<path d="M132.127 213.971H123.501V222.558H132.127V213.971Z" fill="#337CFB"/>
<path d="M123.501 213.971H114.875V222.558H123.501V213.971Z" fill="#337CFB"/>
<path d="M114.875 213.971H106.249V222.558H114.875V213.971Z" fill="#337CFB"/>
<path d="M106.251 213.971H97.625V222.558H106.251V213.971Z" fill="#337CFB"/>
<path d="M97.6257 213.971H89V222.558H97.6257V213.971Z" fill="#337CFB"/>
<path d="M88.9997 213.971H80.374V222.558H88.9997V213.971Z" fill="#337CFB"/>
<path d="M80.3757 213.971H71.75V222.558H80.3757V213.971Z" fill="#337CFB"/>
<path d="M71.7497 213.971H63.124V222.558H71.7497V213.971Z" fill="#337CFB"/>
<path d="M321.876 205.383H313.25V213.971H321.876V205.383Z" fill="#337CFB"/>
<path d="M313.252 205.383H304.626V213.971H313.252V205.383Z" fill="#337CFB"/>
<path d="M304.626 205.383H296V213.971H304.626V205.383Z" fill="#337CFB"/>
<path d="M296.001 205.383H287.375V213.971H296.001V205.383Z" fill="#337CFB"/>
<path d="M287.377 205.383H278.751V213.971H287.377V205.383Z" fill="#337CFB"/>
<path d="M278.751 205.383H270.125V213.971H278.751V205.383Z" fill="#337CFB"/>
<path d="M270.126 205.383H261.5V213.971H270.126V205.383Z" fill="#337CFB"/>
<path d="M261.502 205.383H252.876V213.971H261.502V205.383Z" fill="#337CFB"/>
<path d="M252.876 205.383H244.25V213.971H252.876V205.383Z" fill="#337CFB"/>
<path d="M244.251 205.383H235.625V213.971H244.251V205.383Z" fill="#337CFB"/>
<path d="M235.627 205.383H227.001V213.971H235.627V205.383Z" fill="#337CFB"/>
<path d="M227.001 205.383H218.375V213.971H227.001V205.383Z" fill="#337CFB"/>
<path d="M218.375 205.383H209.749V213.971H218.375V205.383Z" fill="#337CFB"/>
<path d="M175.251 205.383H166.625V213.971H175.251V205.383Z" fill="#337CFB"/>
<path d="M166.625 205.383H157.999V213.971H166.625V205.383Z" fill="#337CFB"/>
<path d="M158.001 205.383H149.375V213.971H158.001V205.383Z" fill="#337CFB"/>
<path d="M149.376 205.383H140.75V213.971H149.376V205.383Z" fill="#337CFB"/>
<path d="M140.75 205.383H132.124V213.971H140.75V205.383Z" fill="#337CFB"/>
<path d="M132.127 205.383H123.501V213.971H132.127V205.383Z" fill="#337CFB"/>
<path d="M123.501 205.383H114.875V213.971H123.501V205.383Z" fill="#337CFB"/>
<path d="M114.875 205.383H106.249V213.971H114.875V205.383Z" fill="#337CFB"/>
<path d="M106.251 205.383H97.625V213.971H106.251V205.383Z" fill="#337CFB"/>
<path d="M97.6257 205.383H89V213.971H97.6257V205.383Z" fill="#337CFB"/>
<path d="M88.9997 205.383H80.374V213.971H88.9997V205.383Z" fill="#337CFB"/>
<path d="M80.3757 205.383H71.75V213.971H80.3757V205.383Z" fill="#337CFB"/>
<path d="M71.7497 205.383H63.124V213.971H71.7497V205.383Z" fill="#337CFB"/>
<path d="M321.876 196.795H313.25V205.383H321.876V196.795Z" fill="#337CFB"/>
<path d="M313.252 196.795H304.626V205.383H313.252V196.795Z" fill="#337CFB"/>
<path d="M304.626 196.795H296V205.383H304.626V196.795Z" fill="#337CFB"/>
<path d="M296.001 196.795H287.375V205.383H296.001V196.795Z" fill="#337CFB"/>
<path d="M287.377 196.795H278.751V205.383H287.377V196.795Z" fill="#337CFB"/>
<path d="M278.751 196.795H270.125V205.383H278.751V196.795Z" fill="#337CFB"/>
<path d="M270.126 196.795H261.5V205.383H270.126V196.795Z" fill="#337CFB"/>
<path d="M261.502 196.795H252.876V205.383H261.502V196.795Z" fill="#337CFB"/>
<path d="M252.876 196.795H244.25V205.383H252.876V196.795Z" fill="#337CFB"/>
<path d="M244.251 196.795H235.625V205.383H244.251V196.795Z" fill="#337CFB"/>
<path d="M235.627 196.795H227.001V205.383H235.627V196.795Z" fill="#337CFB"/>
<path d="M227.001 196.795H218.375V205.383H227.001V196.795Z" fill="#337CFB"/>
<path d="M166.625 196.795H157.999V205.383H166.625V196.795Z" fill="#337CFB"/>
<path d="M158.001 196.795H149.375V205.383H158.001V196.795Z" fill="#337CFB"/>
<path d="M149.376 196.795H140.75V205.383H149.376V196.795Z" fill="#337CFB"/>
<path d="M140.75 196.795H132.124V205.383H140.75V196.795Z" fill="#337CFB"/>
<path d="M132.127 196.795H123.501V205.383H132.127V196.795Z" fill="#337CFB"/>
<path d="M123.501 196.795H114.875V205.383H123.501V196.795Z" fill="#337CFB"/>
<path d="M114.875 196.795H106.249V205.383H114.875V196.795Z" fill="#337CFB"/>
<path d="M106.251 196.795H97.625V205.383H106.251V196.795Z" fill="#337CFB"/>
<path d="M97.6257 196.795H89V205.383H97.6257V196.795Z" fill="#337CFB"/>
<path d="M88.9997 196.795H80.374V205.383H88.9997V196.795Z" fill="#337CFB"/>
<path d="M80.3757 196.795H71.75V205.383H80.3757V196.795Z" fill="#337CFB"/>
<path d="M71.7497 196.795H63.124V205.383H71.7497V196.795Z" fill="#337CFB"/>
<path d="M321.876 188.205H313.25V196.793H321.876V188.205Z" fill="#337CFB"/>
<path d="M313.252 188.205H304.626V196.793H313.252V188.205Z" fill="#337CFB"/>
<path d="M304.626 188.205H296V196.793H304.626V188.205Z" fill="#337CFB"/>
<path d="M296.001 188.205H287.375V196.793H296.001V188.205Z" fill="#337CFB"/>
<path d="M287.377 188.205H278.751V196.793H287.377V188.205Z" fill="#337CFB"/>
<path d="M278.751 188.205H270.125V196.793H278.751V188.205Z" fill="#337CFB"/>
<path d="M270.126 188.205H261.5V196.793H270.126V188.205Z" fill="#337CFB"/>
<path d="M261.502 188.205H252.876V196.793H261.502V188.205Z" fill="#337CFB"/>
<path d="M252.876 188.205H244.25V196.793H252.876V188.205Z" fill="#337CFB"/>
<path d="M244.251 188.205H235.625V196.793H244.251V188.205Z" fill="#337CFB"/>
<path d="M235.627 188.205H227.001V196.793H235.627V188.205Z" fill="#337CFB"/>
<path d="M227.001 188.205H218.375V196.793H227.001V188.205Z" fill="#337CFB"/>
<path d="M166.625 188.205H157.999V196.793H166.625V188.205Z" fill="#337CFB"/>
<path d="M158.001 188.205H149.375V196.793H158.001V188.205Z" fill="#337CFB"/>
<path d="M149.376 188.205H140.75V196.793H149.376V188.205Z" fill="#337CFB"/>
<path d="M140.75 188.205H132.124V196.793H140.75V188.205Z" fill="#337CFB"/>
<path d="M132.127 188.205H123.501V196.793H132.127V188.205Z" fill="#337CFB"/>
<path d="M123.501 188.205H114.875V196.793H123.501V188.205Z" fill="#337CFB"/>
<path d="M114.875 188.205H106.249V196.793H114.875V188.205Z" fill="#337CFB"/>
<path d="M106.251 188.205H97.625V196.793H106.251V188.205Z" fill="#337CFB"/>
<path d="M97.6257 188.205H89V196.793H97.6257V188.205Z" fill="#337CFB"/>
<path d="M88.9997 188.205H80.374V196.793H88.9997V188.205Z" fill="#337CFB"/>
<path d="M80.3757 188.205H71.75V196.793H80.3757V188.205Z" fill="#337CFB"/>
<path d="M71.7497 188.205H63.124V196.793H71.7497V188.205Z" fill="#337CFB"/>
<path d="M321.876 179.617H313.25V188.205H321.876V179.617Z" fill="#337CFB"/>
<path d="M313.252 179.617H304.626V188.205H313.252V179.617Z" fill="#337CFB"/>
<path d="M304.626 179.617H296V188.205H304.626V179.617Z" fill="#337CFB"/>
<path d="M296.001 179.617H287.375V188.205H296.001V179.617Z" fill="#337CFB"/>
<path d="M287.377 179.617H278.751V188.205H287.377V179.617Z" fill="#337CFB"/>
<path d="M278.751 179.617H270.125V188.205H278.751V179.617Z" fill="#337CFB"/>
<path d="M270.126 179.617H261.5V188.205H270.126V179.617Z" fill="#337CFB"/>
<path d="M261.502 179.617H252.876V188.205H261.502V179.617Z" fill="#337CFB"/>
<path d="M252.876 179.617H244.25V188.205H252.876V179.617Z" fill="#337CFB"/>
<path d="M244.251 179.617H235.625V188.205H244.251V179.617Z" fill="#337CFB"/>
<path d="M235.627 179.617H227.001V188.205H235.627V179.617Z" fill="#337CFB"/>
<path d="M158.001 179.617H149.375V188.205H158.001V179.617Z" fill="#337CFB"/>
<path d="M149.376 179.617H140.75V188.205H149.376V179.617Z" fill="#337CFB"/>
<path d="M140.75 179.617H132.124V188.205H140.75V179.617Z" fill="#337CFB"/>
<path d="M132.127 179.617H123.501V188.205H132.127V179.617Z" fill="#337CFB"/>
<path d="M123.501 179.617H114.875V188.205H123.501V179.617Z" fill="#337CFB"/>
<path d="M114.875 179.617H106.249V188.205H114.875V179.617Z" fill="#337CFB"/>
<path d="M106.251 179.617H97.625V188.205H106.251V179.617Z" fill="#337CFB"/>
<path d="M97.6257 179.617H89V188.205H97.6257V179.617Z" fill="#337CFB"/>
<path d="M88.9997 179.617H80.374V188.205H88.9997V179.617Z" fill="#337CFB"/>
<path d="M80.3757 179.617H71.75V188.205H80.3757V179.617Z" fill="#337CFB"/>
<path d="M71.7497 179.617H63.124V188.205H71.7497V179.617Z" fill="#337CFB"/>
<path d="M321.876 171.029H313.25V179.617H321.876V171.029Z" fill="#337CFB"/>
<path d="M313.252 171.029H304.626V179.617H313.252V171.029Z" fill="#337CFB"/>
<path d="M304.626 171.029H296V179.617H304.626V171.029Z" fill="#337CFB"/>
<path d="M296.001 171.029H287.375V179.617H296.001V171.029Z" fill="#337CFB"/>
<path d="M287.377 171.029H278.751V179.617H287.377V171.029Z" fill="#337CFB"/>
<path d="M278.751 171.029H270.125V179.617H278.751V171.029Z" fill="#337CFB"/>
<path d="M270.126 171.029H261.5V179.617H270.126V171.029Z" fill="#337CFB"/>
<path d="M261.502 171.029H252.876V179.617H261.502V171.029Z" fill="#337CFB"/>
<path d="M252.876 171.029H244.25V179.617H252.876V171.029Z" fill="#337CFB"/>
<path d="M244.251 171.029H235.625V179.617H244.251V171.029Z" fill="#337CFB"/>
<path d="M149.376 171.029H140.75V179.617H149.376V171.029Z" fill="#337CFB"/>
<path d="M140.75 171.029H132.124V179.617H140.75V171.029Z" fill="#337CFB"/>
<path d="M132.127 171.029H123.501V179.617H132.127V171.029Z" fill="#337CFB"/>
<path d="M123.501 171.029H114.875V179.617H123.501V171.029Z" fill="#337CFB"/>
<path d="M114.875 171.029H106.249V179.617H114.875V171.029Z" fill="#337CFB"/>
<path d="M106.251 171.029H97.625V179.617H106.251V171.029Z" fill="#337CFB"/>
<path d="M97.6257 171.029H89V179.617H97.6257V171.029Z" fill="#337CFB"/>
<path d="M88.9997 171.029H80.374V179.617H88.9997V171.029Z" fill="#337CFB"/>
<path d="M80.3757 171.029H71.75V179.617H80.3757V171.029Z" fill="#337CFB"/>
<path d="M71.7497 171.029H63.124V179.617H71.7497V171.029Z" fill="#337CFB"/>
<path d="M321.876 162.442H313.25V171.03H321.876V162.442Z" fill="#337CFB"/>
<path d="M313.252 162.442H304.626V171.03H313.252V162.442Z" fill="#337CFB"/>
<path d="M304.626 162.442H296V171.03H304.626V162.442Z" fill="#337CFB"/>
<path d="M296.001 162.442H287.375V171.03H296.001V162.442Z" fill="#337CFB"/>
<path d="M287.377 162.442H278.751V171.03H287.377V162.442Z" fill="#337CFB"/>
<path d="M278.751 162.442H270.125V171.03H278.751V162.442Z" fill="#337CFB"/>
<path d="M270.126 162.442H261.5V171.03H270.126V162.442Z" fill="#337CFB"/>
<path d="M261.502 162.442H252.876V171.03H261.502V162.442Z" fill="#337CFB"/>
<path d="M252.876 162.442H244.25V171.03H252.876V162.442Z" fill="#337CFB"/>
<path d="M140.75 162.442H132.124V171.03H140.75V162.442Z" fill="#337CFB"/>
<path d="M132.127 162.442H123.501V171.03H132.127V162.442Z" fill="#337CFB"/>
<path d="M123.501 162.442H114.875V171.03H123.501V162.442Z" fill="#337CFB"/>
<path d="M114.875 162.442H106.249V171.03H114.875V162.442Z" fill="#337CFB"/>
<path d="M106.251 162.442H97.625V171.03H106.251V162.442Z" fill="#337CFB"/>
<path d="M97.6257 162.442H89V171.03H97.6257V162.442Z" fill="#337CFB"/>
<path d="M88.9997 162.442H80.374V171.03H88.9997V162.442Z" fill="#337CFB"/>
<path d="M80.3757 162.442H71.75V171.03H80.3757V162.442Z" fill="#337CFB"/>
<path d="M71.7497 162.442H63.124V171.03H71.7497V162.442Z" fill="#337CFB"/>
<path d="M321.876 153.853H313.25V162.44H321.876V153.853Z" fill="#337CFB"/>
<path d="M313.252 153.853H304.626V162.44H313.252V153.853Z" fill="#337CFB"/>
<path d="M304.626 153.853H296V162.44H304.626V153.853Z" fill="#337CFB"/>
<path d="M296.001 153.853H287.375V162.44H296.001V153.853Z" fill="#337CFB"/>
<path d="M287.377 153.853H278.751V162.44H287.377V153.853Z" fill="#337CFB"/>
<path d="M278.751 153.853H270.125V162.44H278.751V153.853Z" fill="#337CFB"/>
<path d="M270.126 153.853H261.5V162.44H270.126V153.853Z" fill="#337CFB"/>
<path d="M261.502 153.853H252.876V162.44H261.502V153.853Z" fill="#337CFB"/>
<path d="M252.876 153.853H244.25V162.44H252.876V153.853Z" fill="#337CFB"/>
<path d="M244.251 153.853H235.625V162.44H244.251V153.853Z" fill="#337CFB"/>
<path d="M244.251 162.442H235.625V171.03H244.251V162.442Z" fill="#337CFB"/>
<path d="M235.627 153.853H227.001V162.44H235.627V153.853Z" fill="#337CFB"/>
<path d="M227.001 153.853H218.375V162.44H227.001V153.853Z" fill="#337CFB"/>
<path d="M218.375 153.853H209.749V162.44H218.375V153.853Z" fill="#337CFB"/>
<path d="M209.752 153.853H201.126V162.44H209.752V153.853Z" fill="#337CFB"/>
<path d="M201.126 153.853H192.5V162.44H201.126V153.853Z" fill="#337CFB"/>
<path d="M201.126 162.442H192.5V171.03H201.126V162.442Z" fill="#337CFB"/>
<path d="M192.5 153.853H183.874V162.44H192.5V153.853Z" fill="#337CFB"/>
<path d="M192.5 239.735H183.874V248.323H192.5V239.735Z" fill="#337CFB"/>
<path d="M201.126 239.735H192.5V248.323H201.126V239.735Z" fill="#337CFB"/>
<path d="M192.5 231.147H183.874V239.735H192.5V231.147Z" fill="#337CFB"/>
<path d="M201.126 231.147H192.5V239.735H201.126V231.147Z" fill="#337CFB"/>
<path d="M183.877 153.853H175.251V162.44H183.877V153.853Z" fill="#337CFB"/>
<path d="M175.251 153.853H166.625V162.44H175.251V153.853Z" fill="#337CFB"/>
<path d="M166.625 153.853H157.999V162.44H166.625V153.853Z" fill="#337CFB"/>
<path d="M227.001 162.442H218.375V171.03H227.001V162.442Z" fill="#337CFB"/>
<path d="M218.375 162.442H209.749V171.03H218.375V162.442Z" fill="#337CFB"/>
<path d="M209.752 162.442H201.126V171.03H209.752V162.442Z" fill="#337CFB"/>
<path d="M192.5 162.442H183.874V171.03H192.5V162.442Z" fill="#337CFB"/>
<path d="M183.877 162.442H175.251V171.03H183.877V162.442Z" fill="#337CFB"/>
<path d="M175.251 162.442H166.625V171.03H175.251V162.442Z" fill="#337CFB"/>
<path d="M166.625 162.442H157.999V171.03H166.625V162.442Z" fill="#337CFB"/>
<path d="M158.001 153.853H149.375V162.44H158.001V153.853Z" fill="#337CFB"/>
<path d="M149.376 153.853H140.75V162.44H149.376V153.853Z" fill="#337CFB"/>
<path d="M149.376 162.442H140.75V171.03H149.376V162.442Z" fill="#337CFB"/>
<path d="M140.75 153.853H132.124V162.44H140.75V153.853Z" fill="#337CFB"/>
<path d="M132.127 153.853H123.501V162.44H132.127V153.853Z" fill="#337CFB"/>
<path d="M123.501 153.853H114.875V162.44H123.501V153.853Z" fill="#337CFB"/>
<path d="M114.875 153.853H106.249V162.44H114.875V153.853Z" fill="#337CFB"/>
<path d="M106.251 153.853H97.625V162.44H106.251V153.853Z" fill="#337CFB"/>
<path d="M97.6257 153.853H89V162.44H97.6257V153.853Z" fill="#337CFB"/>
<path d="M88.9997 153.853H80.374V162.44H88.9997V153.853Z" fill="#337CFB"/>
<path d="M80.3757 153.853H71.75V162.44H80.3757V153.853Z" fill="#337CFB"/>
<path d="M71.7497 153.853H63.124V162.44H71.7497V153.853Z" fill="#337CFB"/>
<path d="M321.876 145.265H313.25V153.852H321.876V145.265Z" fill="#337CFB"/>
<path d="M313.252 145.265H304.626V153.852H313.252V145.265Z" fill="#337CFB"/>
<path d="M304.626 145.265H296V153.852H304.626V145.265Z" fill="#337CFB"/>
<path d="M296.001 145.265H287.375V153.852H296.001V145.265Z" fill="#337CFB"/>
<path d="M287.377 145.265H278.751V153.852H287.377V145.265Z" fill="#337CFB"/>
<path d="M278.751 145.265H270.125V153.852H278.751V145.265Z" fill="#337CFB"/>
<path d="M270.126 145.265H261.5V153.852H270.126V145.265Z" fill="#337CFB"/>
<path d="M261.502 145.265H252.876V153.852H261.502V145.265Z" fill="#337CFB"/>
<path d="M252.876 145.265H244.25V153.852H252.876V145.265Z" fill="#337CFB"/>
<path d="M244.251 145.265H235.625V153.852H244.251V145.265Z" fill="#337CFB"/>
<path d="M235.627 145.265H227.001V153.852H235.627V145.265Z" fill="#337CFB"/>
<path d="M227.001 145.265H218.375V153.852H227.001V145.265Z" fill="#337CFB"/>
<path d="M218.375 145.265H209.749V153.852H218.375V145.265Z" fill="#337CFB"/>
<path d="M209.752 145.265H201.126V153.852H209.752V145.265Z" fill="#337CFB"/>
<path d="M201.126 145.265H192.5V153.852H201.126V145.265Z" fill="#337CFB"/>
<path d="M192.5 145.265H183.874V153.852H192.5V145.265Z" fill="#337CFB"/>
<path d="M183.877 145.265H175.251V153.852H183.877V145.265Z" fill="#337CFB"/>
<path d="M175.251 145.265H166.625V153.852H175.251V145.265Z" fill="#337CFB"/>
<path d="M166.625 145.265H157.999V153.852H166.625V145.265Z" fill="#337CFB"/>
<path d="M158.001 145.265H149.375V153.852H158.001V145.265Z" fill="#337CFB"/>
<path d="M149.376 145.265H140.75V153.852H149.376V145.265Z" fill="#337CFB"/>
<path d="M140.75 145.265H132.124V153.852H140.75V145.265Z" fill="#337CFB"/>
<path d="M132.127 145.265H123.501V153.852H132.127V145.265Z" fill="#337CFB"/>
<path d="M123.501 145.265H114.875V153.852H123.501V145.265Z" fill="#337CFB"/>
<path d="M114.875 145.265H106.249V153.852H114.875V145.265Z" fill="#337CFB"/>
<path d="M106.251 145.265H97.625V153.852H106.251V145.265Z" fill="#337CFB"/>
<path d="M97.6257 145.265H89V153.852H97.6257V145.265Z" fill="#337CFB"/>
<path d="M88.9997 145.265H80.374V153.852H88.9997V145.265Z" fill="#337CFB"/>
<path d="M80.3757 145.265H71.75V153.852H80.3757V145.265Z" fill="#337CFB"/>
<path d="M71.7497 145.265H63.124V153.852H71.7497V145.265Z" fill="#337CFB"/>
<path d="M321.876 136.677H313.25V145.264H321.876V136.677Z" fill="#337CFB"/>
<path d="M313.252 136.677H304.626V145.264H313.252V136.677Z" fill="#337CFB"/>
<path d="M304.626 136.677H296V145.264H304.626V136.677Z" fill="#337CFB"/>
<path d="M296.001 136.677H287.375V145.264H296.001V136.677Z" fill="#337CFB"/>
<path d="M287.377 136.677H278.751V145.264H287.377V136.677Z" fill="#337CFB"/>
<path d="M278.751 136.677H270.125V145.264H278.751V136.677Z" fill="#337CFB"/>
<path d="M270.126 136.677H261.5V145.264H270.126V136.677Z" fill="#337CFB"/>
<path d="M261.502 136.677H252.876V145.264H261.502V136.677Z" fill="#337CFB"/>
<path d="M252.876 136.677H244.25V145.264H252.876V136.677Z" fill="#337CFB"/>
<path d="M244.251 136.677H235.625V145.264H244.251V136.677Z" fill="#337CFB"/>
<path d="M235.627 136.677H227.001V145.264H235.627V136.677Z" fill="#337CFB"/>
<path d="M227.001 136.677H218.375V145.264H227.001V136.677Z" fill="#337CFB"/>
<path d="M218.375 136.677H209.749V145.264H218.375V136.677Z" fill="#337CFB"/>
<path d="M209.752 136.677H201.126V145.264H209.752V136.677Z" fill="#337CFB"/>
<path d="M201.126 136.677H192.5V145.264H201.126V136.677Z" fill="#337CFB"/>
<path d="M192.5 136.677H183.874V145.264H192.5V136.677Z" fill="#337CFB"/>
<path d="M183.877 136.677H175.251V145.264H183.877V136.677Z" fill="#337CFB"/>
<path d="M175.251 136.677H166.625V145.264H175.251V136.677Z" fill="#337CFB"/>
<path d="M166.625 136.677H157.999V145.264H166.625V136.677Z" fill="#337CFB"/>
<path d="M158.001 136.677H149.375V145.264H158.001V136.677Z" fill="#337CFB"/>
<path d="M149.376 136.677H140.75V145.264H149.376V136.677Z" fill="#337CFB"/>
<path d="M140.75 136.677H132.124V145.264H140.75V136.677Z" fill="#337CFB"/>
<path d="M132.127 136.677H123.501V145.264H132.127V136.677Z" fill="#337CFB"/>
<path d="M123.501 136.677H114.875V145.264H123.501V136.677Z" fill="#337CFB"/>
<path d="M114.875 136.677H106.249V145.264H114.875V136.677Z" fill="#337CFB"/>
<path d="M106.251 136.677H97.625V145.264H106.251V136.677Z" fill="#337CFB"/>
<path d="M97.6257 136.677H89V145.264H97.6257V136.677Z" fill="#337CFB"/>
<path d="M88.9997 136.677H80.374V145.264H88.9997V136.677Z" fill="#337CFB"/>
<path d="M80.3757 136.677H71.75V145.264H80.3757V136.677Z" fill="#337CFB"/>
<path d="M71.7497 136.677H63.124V145.264H71.7497V136.677Z" fill="#337CFB"/>
<path d="M321.876 128.089H313.25V136.677H321.876V128.089Z" fill="#337CFB"/>
<path d="M313.252 128.089H304.626V136.677H313.252V128.089Z" fill="#337CFB"/>
<path d="M304.626 128.089H296V136.677H304.626V128.089Z" fill="#337CFB"/>
<path d="M296.001 128.089H287.375V136.677H296.001V128.089Z" fill="#337CFB"/>
<path d="M287.377 128.089H278.751V136.677H287.377V128.089Z" fill="#337CFB"/>
<path d="M278.751 128.089H270.125V136.677H278.751V128.089Z" fill="#337CFB"/>
<path d="M270.126 128.089H261.5V136.677H270.126V128.089Z" fill="#337CFB"/>
<path d="M261.502 128.089H252.876V136.677H261.502V128.089Z" fill="#337CFB"/>
<path d="M252.876 128.089H244.25V136.677H252.876V128.089Z" fill="#337CFB"/>
<path d="M244.251 128.089H235.625V136.677H244.251V128.089Z" fill="#337CFB"/>
<path d="M235.627 128.089H227.001V136.677H235.627V128.089Z" fill="#337CFB"/>
<path d="M227.001 128.089H218.375V136.677H227.001V128.089Z" fill="#337CFB"/>
<path d="M218.375 128.089H209.749V136.677H218.375V128.089Z" fill="#337CFB"/>
<path d="M209.752 128.089H201.126V136.677H209.752V128.089Z" fill="#337CFB"/>
<path d="M201.126 128.089H192.5V136.677H201.126V128.089Z" fill="#337CFB"/>
<path d="M192.5 128.089H183.874V136.677H192.5V128.089Z" fill="#337CFB"/>
<path d="M183.877 128.089H175.251V136.677H183.877V128.089Z" fill="#337CFB"/>
<path d="M175.251 128.089H166.625V136.677H175.251V128.089Z" fill="#337CFB"/>
<path d="M166.625 128.089H157.999V136.677H166.625V128.089Z" fill="#337CFB"/>
<path d="M158.001 128.089H149.375V136.677H158.001V128.089Z" fill="#337CFB"/>
<path d="M149.376 128.089H140.75V136.677H149.376V128.089Z" fill="#337CFB"/>
<path d="M140.75 128.089H132.124V136.677H140.75V128.089Z" fill="#337CFB"/>
<path d="M132.127 128.089H123.501V136.677H132.127V128.089Z" fill="#337CFB"/>
<path d="M123.501 128.089H114.875V136.677H123.501V128.089Z" fill="#337CFB"/>
<path d="M114.875 128.089H106.249V136.677H114.875V128.089Z" fill="#337CFB"/>
<path d="M106.251 128.089H97.625V136.677H106.251V128.089Z" fill="#337CFB"/>
<path d="M97.6257 128.089H89V136.677H97.6257V128.089Z" fill="#337CFB"/>
<path d="M88.9997 128.089H80.374V136.677H88.9997V128.089Z" fill="#337CFB"/>
<path d="M80.3757 128.089H71.75V136.677H80.3757V128.089Z" fill="#337CFB"/>
<path d="M71.7497 128.089H63.124V136.677H71.7497V128.089Z" fill="#337CFB"/>
<path d="M313.252 119.5H304.626V128.088H313.252V119.5Z" fill="#337CFB"/>
<path d="M304.626 119.5H296V128.088H304.626V119.5Z" fill="#337CFB"/>
<path d="M296.001 119.5H287.375V128.088H296.001V119.5Z" fill="#337CFB"/>
<path d="M287.377 119.5H278.751V128.088H287.377V119.5Z" fill="#337CFB"/>
<path d="M278.751 119.5H270.125V128.088H278.751V119.5Z" fill="#337CFB"/>
<path d="M270.126 119.5H261.5V128.088H270.126V119.5Z" fill="#337CFB"/>
<path d="M261.502 119.5H252.876V128.088H261.502V119.5Z" fill="#337CFB"/>
<path d="M252.876 119.5H244.25V128.088H252.876V119.5Z" fill="#337CFB"/>
<path d="M244.251 119.5H235.625V128.088H244.251V119.5Z" fill="#337CFB"/>
<path d="M235.627 119.5H227.001V128.088H235.627V119.5Z" fill="#337CFB"/>
<path d="M227.001 119.5H218.375V128.088H227.001V119.5Z" fill="#337CFB"/>
<path d="M218.375 119.5H209.749V128.088H218.375V119.5Z" fill="#337CFB"/>
<path d="M209.752 119.5H201.126V128.088H209.752V119.5Z" fill="#337CFB"/>
<path d="M201.126 119.5H192.5V128.088H201.126V119.5Z" fill="#337CFB"/>
<path d="M192.5 119.5H183.874V128.088H192.5V119.5Z" fill="#337CFB"/>
<path d="M183.877 119.5H175.251V128.088H183.877V119.5Z" fill="#337CFB"/>
<path d="M175.251 119.5H166.625V128.088H175.251V119.5Z" fill="#337CFB"/>
<path d="M166.625 119.5H157.999V128.088H166.625V119.5Z" fill="#337CFB"/>
<path d="M158.001 119.5H149.375V128.088H158.001V119.5Z" fill="#337CFB"/>
<path d="M149.376 119.5H140.75V128.088H149.376V119.5Z" fill="#337CFB"/>
<path d="M140.75 119.5H132.124V128.088H140.75V119.5Z" fill="#337CFB"/>
<path d="M132.127 119.5H123.501V128.088H132.127V119.5Z" fill="#337CFB"/>
<path d="M123.501 119.5H114.875V128.088H123.501V119.5Z" fill="#337CFB"/>
<path d="M114.875 119.5H106.249V128.088H114.875V119.5Z" fill="#337CFB"/>
<path d="M106.251 119.5H97.625V128.088H106.251V119.5Z" fill="#337CFB"/>
<path d="M97.6257 119.5H89V128.088H97.6257V119.5Z" fill="#337CFB"/>
<path d="M88.9997 119.5H80.374V128.088H88.9997V119.5Z" fill="#337CFB"/>
<path d="M80.3757 119.5H71.75V128.088H80.3757V119.5Z" fill="#337CFB"/>
<path d="M313.252 110.912H304.626V119.5H313.252V110.912Z" fill="#337CFB"/>
<path d="M304.626 110.912H296V119.5H304.626V110.912Z" fill="#337CFB"/>
<path d="M296.001 110.912H287.375V119.5H296.001V110.912Z" fill="#337CFB"/>
<path d="M287.377 110.912H278.751V119.5H287.377V110.912Z" fill="#337CFB"/>
<path d="M278.751 110.912H270.125V119.5H278.751V110.912Z" fill="#337CFB"/>
<path d="M270.126 110.912H261.5V119.5H270.126V110.912Z" fill="#337CFB"/>
<path d="M261.502 110.912H252.876V119.5H261.502V110.912Z" fill="#337CFB"/>
<path d="M252.876 110.912H244.25V119.5H252.876V110.912Z" fill="#337CFB"/>
<path d="M244.251 110.912H235.625V119.5H244.251V110.912Z" fill="#337CFB"/>
<path d="M235.627 110.912H227.001V119.5H235.627V110.912Z" fill="#337CFB"/>
<path d="M227.001 110.912H218.375V119.5H227.001V110.912Z" fill="#337CFB"/>
<path d="M218.375 110.912H209.749V119.5H218.375V110.912Z" fill="#337CFB"/>
<path d="M209.752 110.912H201.126V119.5H209.752V110.912Z" fill="#337CFB"/>
<path d="M201.126 110.912H192.5V119.5H201.126V110.912Z" fill="#337CFB"/>
<path d="M192.5 110.912H183.874V119.5H192.5V110.912Z" fill="#337CFB"/>
<path d="M183.877 110.912H175.251V119.5H183.877V110.912Z" fill="#337CFB"/>
<path d="M175.251 110.912H166.625V119.5H175.251V110.912Z" fill="#337CFB"/>
<path d="M166.625 110.912H157.999V119.5H166.625V110.912Z" fill="#337CFB"/>
<path d="M158.001 110.912H149.375V119.5H158.001V110.912Z" fill="#337CFB"/>
<path d="M149.376 110.912H140.75V119.5H149.376V110.912Z" fill="#337CFB"/>
<path d="M140.75 110.912H132.124V119.5H140.75V110.912Z" fill="#337CFB"/>
<path d="M132.127 110.912H123.501V119.5H132.127V110.912Z" fill="#337CFB"/>
<path d="M123.501 110.912H114.875V119.5H123.501V110.912Z" fill="#337CFB"/>
<path d="M114.875 110.912H106.249V119.5H114.875V110.912Z" fill="#337CFB"/>
<path d="M106.251 110.912H97.625V119.5H106.251V110.912Z" fill="#337CFB"/>
<path d="M97.6257 110.912H89V119.5H97.6257V110.912Z" fill="#337CFB"/>
<path d="M88.9997 110.912H80.374V119.5H88.9997V110.912Z" fill="#337CFB"/>
<path d="M80.3757 110.912H71.75V119.5H80.3757V110.912Z" fill="#337CFB"/>
<path d="M304.626 102.324H296V110.912H304.626V102.324Z" fill="#337CFB"/>
<path d="M296.001 102.324H287.375V110.912H296.001V102.324Z" fill="#337CFB"/>
<path d="M287.377 102.324H278.751V110.912H287.377V102.324Z" fill="#337CFB"/>
<path d="M278.751 102.324H270.125V110.912H278.751V102.324Z" fill="#337CFB"/>
<path d="M270.126 102.324H261.5V110.912H270.126V102.324Z" fill="#337CFB"/>
<path d="M261.502 102.324H252.876V110.912H261.502V102.324Z" fill="#337CFB"/>
<path d="M252.876 102.324H244.25V110.912H252.876V102.324Z" fill="#337CFB"/>
<path d="M244.251 102.324H235.625V110.912H244.251V102.324Z" fill="#337CFB"/>
<path d="M235.627 102.324H227.001V110.912H235.627V102.324Z" fill="#337CFB"/>
<path d="M227.001 102.324H218.375V110.912H227.001V102.324Z" fill="#337CFB"/>
<path d="M218.375 102.324H209.749V110.912H218.375V102.324Z" fill="#337CFB"/>
<path d="M209.752 102.324H201.126V110.912H209.752V102.324Z" fill="#337CFB"/>
<path d="M201.126 102.324H192.5V110.912H201.126V102.324Z" fill="#337CFB"/>
<path d="M192.5 102.324H183.874V110.912H192.5V102.324Z" fill="#337CFB"/>
<path d="M183.877 102.324H175.251V110.912H183.877V102.324Z" fill="#337CFB"/>
<path d="M175.251 102.324H166.625V110.912H175.251V102.324Z" fill="#337CFB"/>
<path d="M166.625 102.324H157.999V110.912H166.625V102.324Z" fill="#337CFB"/>
<path d="M158.001 102.324H149.375V110.912H158.001V102.324Z" fill="#337CFB"/>
<path d="M149.376 102.324H140.75V110.912H149.376V102.324Z" fill="#337CFB"/>
<path d="M140.75 102.324H132.124V110.912H140.75V102.324Z" fill="#337CFB"/>
<path d="M132.127 102.324H123.501V110.912H132.127V102.324Z" fill="#337CFB"/>
<path d="M123.501 102.324H114.875V110.912H123.501V102.324Z" fill="#337CFB"/>
<path d="M114.875 102.324H106.249V110.912H114.875V102.324Z" fill="#337CFB"/>
<path d="M106.251 102.324H97.625V110.912H106.251V102.324Z" fill="#337CFB"/>
<path d="M97.6257 102.324H89V110.912H97.6257V102.324Z" fill="#337CFB"/>
<path d="M287.377 93.7344H278.751V102.322H287.377V93.7344Z" fill="#337CFB"/>
<path d="M278.751 93.7344H270.125V102.322H278.751V93.7344Z" fill="#337CFB"/>
<path d="M270.126 93.7344H261.5V102.322H270.126V93.7344Z" fill="#337CFB"/>
<path d="M261.502 93.7344H252.876V102.322H261.502V93.7344Z" fill="#337CFB"/>
<path d="M252.876 93.7344H244.25V102.322H252.876V93.7344Z" fill="#337CFB"/>
<path d="M244.251 93.7344H235.625V102.322H244.251V93.7344Z" fill="#337CFB"/>
<path d="M235.627 93.7344H227.001V102.322H235.627V93.7344Z" fill="#337CFB"/>
<path d="M227.001 93.7344H218.375V102.322H227.001V93.7344Z" fill="#337CFB"/>
<path d="M218.375 93.7344H209.749V102.322H218.375V93.7344Z" fill="#337CFB"/>
<path d="M209.752 93.7344H201.126V102.322H209.752V93.7344Z" fill="#337CFB"/>
<path d="M201.126 93.7344H192.5V102.322H201.126V93.7344Z" fill="#337CFB"/>
<path d="M192.5 93.7344H183.874V102.322H192.5V93.7344Z" fill="#337CFB"/>
<path d="M183.877 93.7344H175.251V102.322H183.877V93.7344Z" fill="#337CFB"/>
<path d="M175.251 93.7344H166.625V102.322H175.251V93.7344Z" fill="#337CFB"/>
<path d="M166.625 93.7344H157.999V102.322H166.625V93.7344Z" fill="#337CFB"/>
<path d="M158.001 93.7344H149.375V102.322H158.001V93.7344Z" fill="#337CFB"/>
<path d="M149.376 93.7344H140.75V102.322H149.376V93.7344Z" fill="#337CFB"/>
<path d="M140.75 93.7344H132.124V102.322H140.75V93.7344Z" fill="#337CFB"/>
<path d="M132.127 93.7344H123.501V102.322H132.127V93.7344Z" fill="#337CFB"/>
<path d="M123.501 93.7344H114.875V102.322H123.501V93.7344Z" fill="#337CFB"/>
<path d="M114.875 93.7344H106.249V102.322H114.875V93.7344Z" fill="#337CFB"/>
<path d="M106.251 93.7344H97.625V102.322H106.251V93.7344Z" fill="#337CFB"/>
<path d="M270.126 85.1465H261.5V93.7342H270.126V85.1465Z" fill="#337CFB"/>
<path d="M261.502 85.1465H252.876V93.7342H261.502V85.1465Z" fill="#337CFB"/>
<path d="M252.876 85.1465H244.25V93.7342H252.876V85.1465Z" fill="#337CFB"/>
<path d="M244.251 85.1465H235.625V93.7342H244.251V85.1465Z" fill="#337CFB"/>
<path d="M235.627 85.1465H227.001V93.7342H235.627V85.1465Z" fill="#337CFB"/>
<path d="M227.001 85.1465H218.375V93.7342H227.001V85.1465Z" fill="#337CFB"/>
<path d="M218.375 85.1465H209.749V93.7342H218.375V85.1465Z" fill="#337CFB"/>
<path d="M209.752 85.1465H201.126V93.7342H209.752V85.1465Z" fill="#337CFB"/>
<path d="M201.126 85.1465H192.5V93.7342H201.126V85.1465Z" fill="#337CFB"/>
<path d="M192.5 85.1465H183.874V93.7342H192.5V85.1465Z" fill="#337CFB"/>
<path d="M183.877 85.1465H175.251V93.7342H183.877V85.1465Z" fill="#337CFB"/>
<path d="M175.251 85.1465H166.625V93.7342H175.251V85.1465Z" fill="#337CFB"/>
<path d="M166.625 85.1465H157.999V93.7342H166.625V85.1465Z" fill="#337CFB"/>
<path d="M158.001 85.1465H149.375V93.7342H158.001V85.1465Z" fill="#337CFB"/>
<path d="M149.376 85.1465H140.75V93.7342H149.376V85.1465Z" fill="#337CFB"/>
<path d="M140.75 85.1465H132.124V93.7342H140.75V85.1465Z" fill="#337CFB"/>
<path d="M132.127 85.1465H123.501V93.7342H132.127V85.1465Z" fill="#337CFB"/>
<path d="M123.501 85.1465H114.875V93.7342H123.501V85.1465Z" fill="#337CFB"/>
<path d="M261.502 76.5596H252.876V85.1473H261.502V76.5596Z" fill="#337CFB"/>
<path d="M252.876 76.5596H244.25V85.1473H252.876V76.5596Z" fill="#337CFB"/>
<path d="M244.251 76.5596H235.625V85.1473H244.251V76.5596Z" fill="#337CFB"/>
<path d="M235.627 76.5596H227.001V85.1473H235.627V76.5596Z" fill="#337CFB"/>
<path d="M227.001 76.5596H218.375V85.1473H227.001V76.5596Z" fill="#337CFB"/>
<path d="M218.375 76.5596H209.749V85.1473H218.375V76.5596Z" fill="#337CFB"/>
<path d="M209.752 76.5596H201.126V85.1473H209.752V76.5596Z" fill="#337CFB"/>
<path d="M201.126 76.5596H192.5V85.1473H201.126V76.5596Z" fill="#337CFB"/>
<path d="M192.5 76.5596H183.874V85.1473H192.5V76.5596Z" fill="#337CFB"/>
<path d="M183.877 76.5596H175.251V85.1473H183.877V76.5596Z" fill="#337CFB"/>
<path d="M175.251 76.5596H166.625V85.1473H175.251V76.5596Z" fill="#337CFB"/>
<path d="M166.625 76.5596H157.999V85.1473H166.625V76.5596Z" fill="#337CFB"/>
<path d="M158.001 76.5596H149.375V85.1473H158.001V76.5596Z" fill="#337CFB"/>
<path d="M149.376 76.5596H140.75V85.1473H149.376V76.5596Z" fill="#337CFB"/>
<path d="M140.75 76.5596H132.124V85.1473H140.75V76.5596Z" fill="#337CFB"/>
<path d="M244.251 67.9717H235.625V76.5594H244.251V67.9717Z" fill="#337CFB"/>
<path d="M235.627 67.9717H227.001V76.5594H235.627V67.9717Z" fill="#337CFB"/>
<path d="M227.001 67.9717H218.375V76.5594H227.001V67.9717Z" fill="#337CFB"/>
<path d="M218.375 67.9717H209.749V76.5594H218.375V67.9717Z" fill="#337CFB"/>
<path d="M209.752 67.9717H201.126V76.5594H209.752V67.9717Z" fill="#337CFB"/>
<path d="M201.126 67.9717H192.5V76.5594H201.126V67.9717Z" fill="#337CFB"/>
<path d="M192.5 67.9717H183.874V76.5594H192.5V67.9717Z" fill="#337CFB"/>
<path d="M183.877 67.9717H175.251V76.5594H183.877V67.9717Z" fill="#337CFB"/>
<path d="M175.251 67.9717H166.625V76.5594H175.251V67.9717Z" fill="#337CFB"/>
<path d="M166.625 67.9717H157.999V76.5594H166.625V67.9717Z" fill="#337CFB"/>
<path d="M158.001 67.9717H149.375V76.5594H158.001V67.9717Z" fill="#337CFB"/>
<path d="M149.376 67.9717H140.75V76.5594H149.376V67.9717Z" fill="#337CFB"/>
<path d="M227.001 59.3818H218.375V67.9696H227.001V59.3818Z" fill="#337CFB"/>
<path d="M218.375 59.3818H209.749V67.9696H218.375V59.3818Z" fill="#337CFB"/>
<path d="M209.752 59.3818H201.126V67.9696H209.752V59.3818Z" fill="#337CFB"/>
<path d="M201.126 59.3818H192.5V67.9696H201.126V59.3818Z" fill="#337CFB"/>
<path d="M192.5 59.3818H183.874V67.9696H192.5V59.3818Z" fill="#337CFB"/>
<path d="M183.877 59.3818H175.251V67.9696H183.877V59.3818Z" fill="#337CFB"/>
<path d="M175.251 59.3818H166.625V67.9696H175.251V59.3818Z" fill="#337CFB"/>
<path d="M166.625 59.3818H157.999V67.9696H166.625V59.3818Z" fill="#337CFB"/>
<path d="M209.752 50.7939H201.126V59.3817H209.752V50.7939Z" fill="#337CFB"/>
<path d="M201.126 50.7939H192.5V59.3817H201.126V50.7939Z" fill="#337CFB"/>
<path d="M192.5 50.7939H183.874V59.3817H192.5V50.7939Z" fill="#337CFB"/>
<path d="M183.877 50.7939H175.251V59.3817H183.877V50.7939Z" fill="#337CFB"/>
</svg>
