<svg width="394" height="838" viewBox="0 0 394 838" fill="none" xmlns="http://www.w3.org/2000/svg">
<g filter="url(#filter0_d_238_14727)">
<path d="M349 828C370.539 828 388 810.539 388 789V41C388 19.4609 370.539 2 349 2C327.461 2 310 19.4609 310 41V789C310 810.539 327.461 828 349 828Z" stroke="#337CFB" stroke-width="4" shape-rendering="crispEdges"/>
</g>
<g filter="url(#filter1_d_238_14727)">
<path d="M6 398C6 419.539 23.4609 437 45 437H307V359H45C23.4609 359 6 376.461 6 398Z" stroke="#337CFB" stroke-width="4" shape-rendering="crispEdges"/>
</g>
<path d="M304 434.5H317V362H304V434.5Z" fill="#030418" stroke="black"/>
<defs>
<filter id="filter0_d_238_14727" x="304" y="0" width="90" height="838" filterUnits="userSpaceOnUse" color-interpolation-filters="sRGB">
<feFlood flood-opacity="0" result="BackgroundImageFix"/>
<feColorMatrix in="SourceAlpha" type="matrix" values="0 0 0 0 0 0 0 0 0 0 0 0 0 0 0 0 0 0 127 0" result="hardAlpha"/>
<feOffset dy="4"/>
<feGaussianBlur stdDeviation="2"/>
<feComposite in2="hardAlpha" operator="out"/>
<feColorMatrix type="matrix" values="0 0 0 0 0 0 0 0 0 0 0 0 0 0 0 0 0 0 0.25 0"/>
<feBlend mode="normal" in2="BackgroundImageFix" result="effect1_dropShadow_238_14727"/>
<feBlend mode="normal" in="SourceGraphic" in2="effect1_dropShadow_238_14727" result="shape"/>
</filter>
<filter id="filter1_d_238_14727" x="0" y="357" width="313" height="90" filterUnits="userSpaceOnUse" color-interpolation-filters="sRGB">
<feFlood flood-opacity="0" result="BackgroundImageFix"/>
<feColorMatrix in="SourceAlpha" type="matrix" values="0 0 0 0 0 0 0 0 0 0 0 0 0 0 0 0 0 0 127 0" result="hardAlpha"/>
<feOffset dy="4"/>
<feGaussianBlur stdDeviation="2"/>
<feComposite in2="hardAlpha" operator="out"/>
<feColorMatrix type="matrix" values="0 0 0 0 0 0 0 0 0 0 0 0 0 0 0 0 0 0 0.25 0"/>
<feBlend mode="normal" in2="BackgroundImageFix" result="effect1_dropShadow_238_14727"/>
<feBlend mode="normal" in="SourceGraphic" in2="effect1_dropShadow_238_14727" result="shape"/>
</filter>
</defs>
</svg>
