<svg width="99" height="295" viewBox="0 0 99 295" fill="none" xmlns="http://www.w3.org/2000/svg">
<g filter="url(#filter0_d_704_43533)">
<path d="M88 292.502C93.2478 292.502 97.502 288.248 97.502 283V10C97.502 4.75217 93.2478 0.497986 88 0.497986C82.7522 0.497986 78.498 4.75217 78.498 10V283C78.498 288.248 82.7522 292.502 88 292.502Z" stroke="#337CFB" stroke-width="0.995996" shape-rendering="crispEdges"/>
</g>
<g filter="url(#filter1_d_704_43533)">
<path d="M2.38472 99.1015C2.38472 104.465 6.73246 108.813 12.0957 108.813H77.3334V89.3906H12.0957C6.73247 89.3906 2.38472 93.7383 2.38472 99.1015Z" stroke="#337CFB" stroke-width="0.995996" shape-rendering="crispEdges"/>
</g>
<path d="M76.5867 108.19H79.8237V90.1376H76.5867V108.19Z" fill="#030418" stroke="black" stroke-width="0.248999"/>
<defs>
<filter id="filter0_d_704_43533" x="77.004" y="0" width="21.992" height="294.992" filterUnits="userSpaceOnUse" color-interpolation-filters="sRGB">
<feFlood flood-opacity="0" result="BackgroundImageFix"/>
<feColorMatrix in="SourceAlpha" type="matrix" values="0 0 0 0 0 0 0 0 0 0 0 0 0 0 0 0 0 0 127 0" result="hardAlpha"/>
<feOffset dy="0.995996"/>
<feGaussianBlur stdDeviation="0.497998"/>
<feComposite in2="hardAlpha" operator="out"/>
<feColorMatrix type="matrix" values="0 0 0 0 0 0 0 0 0 0 0 0 0 0 0 0 0 0 0.25 0"/>
<feBlend mode="normal" in2="BackgroundImageFix" result="effect1_dropShadow_704_43533"/>
<feBlend mode="normal" in="SourceGraphic" in2="effect1_dropShadow_704_43533" result="shape"/>
</filter>
<filter id="filter1_d_704_43533" x="0.890723" y="88.8926" width="77.9368" height="22.4099" filterUnits="userSpaceOnUse" color-interpolation-filters="sRGB">
<feFlood flood-opacity="0" result="BackgroundImageFix"/>
<feColorMatrix in="SourceAlpha" type="matrix" values="0 0 0 0 0 0 0 0 0 0 0 0 0 0 0 0 0 0 127 0" result="hardAlpha"/>
<feOffset dy="0.995996"/>
<feGaussianBlur stdDeviation="0.497998"/>
<feComposite in2="hardAlpha" operator="out"/>
<feColorMatrix type="matrix" values="0 0 0 0 0 0 0 0 0 0 0 0 0 0 0 0 0 0 0.25 0"/>
<feBlend mode="normal" in2="BackgroundImageFix" result="effect1_dropShadow_704_43533"/>
<feBlend mode="normal" in="SourceGraphic" in2="effect1_dropShadow_704_43533" result="shape"/>
</filter>
</defs>
</svg>
