<svg width="947" height="336" viewBox="0 0 947 336" fill="none" xmlns="http://www.w3.org/2000/svg">
<g filter="url(#filter0_d_238_14718)">
<path d="M6 41C6 19.4609 23.4609 2 45 2H902C923.539 2 941 19.4609 941 41C941 62.5391 923.539 80 902 80H45C23.4609 80 6 62.5391 6 41Z" stroke="#337CFB" stroke-width="4" shape-rendering="crispEdges"/>
</g>
<g filter="url(#filter1_d_238_14718)">
<path d="M471 326C449.461 326 432 308.539 432 287V82H510V287C510 308.539 492.539 326 471 326Z" stroke="#337CFB" stroke-width="4" shape-rendering="crispEdges"/>
</g>
<path d="M434.5 86V73H507V86H434.5Z" fill="#030418" stroke="black"/>
<defs>
<filter id="filter0_d_238_14718" x="0" y="0" width="947" height="90" filterUnits="userSpaceOnUse" color-interpolation-filters="sRGB">
<feFlood flood-opacity="0" result="BackgroundImageFix"/>
<feColorMatrix in="SourceAlpha" type="matrix" values="0 0 0 0 0 0 0 0 0 0 0 0 0 0 0 0 0 0 127 0" result="hardAlpha"/>
<feOffset dy="4"/>
<feGaussianBlur stdDeviation="2"/>
<feComposite in2="hardAlpha" operator="out"/>
<feColorMatrix type="matrix" values="0 0 0 0 0 0 0 0 0 0 0 0 0 0 0 0 0 0 0.25 0"/>
<feBlend mode="normal" in2="BackgroundImageFix" result="effect1_dropShadow_238_14718"/>
<feBlend mode="normal" in="SourceGraphic" in2="effect1_dropShadow_238_14718" result="shape"/>
</filter>
<filter id="filter1_d_238_14718" x="426" y="80" width="90" height="256" filterUnits="userSpaceOnUse" color-interpolation-filters="sRGB">
<feFlood flood-opacity="0" result="BackgroundImageFix"/>
<feColorMatrix in="SourceAlpha" type="matrix" values="0 0 0 0 0 0 0 0 0 0 0 0 0 0 0 0 0 0 127 0" result="hardAlpha"/>
<feOffset dy="4"/>
<feGaussianBlur stdDeviation="2"/>
<feComposite in2="hardAlpha" operator="out"/>
<feColorMatrix type="matrix" values="0 0 0 0 0 0 0 0 0 0 0 0 0 0 0 0 0 0 0.25 0"/>
<feBlend mode="normal" in2="BackgroundImageFix" result="effect1_dropShadow_238_14718"/>
<feBlend mode="normal" in="SourceGraphic" in2="effect1_dropShadow_238_14718" result="shape"/>
</filter>
</defs>
</svg>
