<svg width="987" height="22" viewBox="0 0 987 22" fill="none" xmlns="http://www.w3.org/2000/svg">
<circle cx="10.9756" cy="10.9756" r="10.9756" transform="matrix(1 0 0 -1 0 21.9512)" fill="#F8E461"/>
<circle cx="10.9756" cy="10.9756" r="10.9756" transform="matrix(1 0 0 -1 62.3594 21.9512)" fill="#F8E461"/>
<circle cx="10.9756" cy="10.9756" r="10.9756" transform="matrix(1 0 0 -1 124.719 21.9512)" fill="#F8E461"/>
<circle cx="10.9756" cy="10.9756" r="10.9756" transform="matrix(1 0 0 -1 187.078 21.9512)" fill="#F8E461"/>
<circle cx="10.9756" cy="10.9756" r="10.9756" transform="matrix(1 0 0 -1 249.438 21.9512)" fill="#F8E461"/>
<circle cx="10.9756" cy="10.9756" r="10.9756" transform="matrix(1 0 0 -1 311.797 21.9512)" fill="#F8E461"/>
<circle cx="10.9756" cy="10.9756" r="10.9756" transform="matrix(1 0 0 -1 374.156 21.9512)" fill="#F8E461"/>
<circle cx="10.9756" cy="10.9756" r="10.9756" transform="matrix(1 0 0 -1 590 21.9512)" fill="#F8E461"/>
<circle cx="10.9756" cy="10.9756" r="10.9756" transform="matrix(1 0 0 -1 652.359 21.9512)" fill="#F8E461"/>
<circle cx="10.9756" cy="10.9756" r="10.9756" transform="matrix(1 0 0 -1 714.719 21.9512)" fill="#F8E461"/>
<circle cx="10.9756" cy="10.9756" r="10.9756" transform="matrix(1 0 0 -1 777.078 21.9512)" fill="#F8E461"/>
<circle cx="10.9756" cy="10.9756" r="10.9756" transform="matrix(1 0 0 -1 839.438 21.9512)" fill="#F8E461"/>
<circle cx="10.9756" cy="10.9756" r="10.9756" transform="matrix(1 0 0 -1 901.797 21.9512)" fill="#F8E461"/>
<circle cx="10.9756" cy="10.9756" r="10.9756" transform="matrix(1 0 0 -1 964.156 21.9512)" fill="#F8E461"/>
</svg>
