<svg width="248" height="88" viewBox="0 0 248 88" fill="none" xmlns="http://www.w3.org/2000/svg">
<g filter="url(#filter0_d_704_43524)">
<path d="M2.52055 10.8098C2.52055 5.20364 7.06522 0.658981 12.6713 0.658981H235.728C241.335 0.658981 245.879 5.20364 245.879 10.8098C245.879 16.4159 241.335 20.9606 235.728 20.9606H12.6713C7.06521 20.9606 2.52055 16.4159 2.52055 10.8098Z" stroke="#337CFB" stroke-width="1.04111" shape-rendering="crispEdges"/>
</g>
<g filter="url(#filter1_d_704_43524)">
<path d="M123.55 84.9887C117.944 84.9887 113.399 80.444 113.399 74.8379V21.4812H133.701V74.8379C133.701 80.444 129.156 84.9887 123.55 84.9887Z" stroke="#337CFB" stroke-width="1.04111" shape-rendering="crispEdges"/>
</g>
<path d="M114.048 22.5224V19.1388H132.918V22.5224H114.048Z" fill="#030418" stroke="black" stroke-width="0.260277"/>
<defs>
<filter id="filter0_d_704_43524" x="0.958893" y="0.138428" width="246.482" height="23.4249" filterUnits="userSpaceOnUse" color-interpolation-filters="sRGB">
<feFlood flood-opacity="0" result="BackgroundImageFix"/>
<feColorMatrix in="SourceAlpha" type="matrix" values="0 0 0 0 0 0 0 0 0 0 0 0 0 0 0 0 0 0 127 0" result="hardAlpha"/>
<feOffset dy="1.04111"/>
<feGaussianBlur stdDeviation="0.520553"/>
<feComposite in2="hardAlpha" operator="out"/>
<feColorMatrix type="matrix" values="0 0 0 0 0 0 0 0 0 0 0 0 0 0 0 0 0 0 0.25 0"/>
<feBlend mode="normal" in2="BackgroundImageFix" result="effect1_dropShadow_704_43524"/>
<feBlend mode="normal" in="SourceGraphic" in2="effect1_dropShadow_704_43524" result="shape"/>
</filter>
<filter id="filter1_d_704_43524" x="111.837" y="20.9606" width="23.425" height="66.6308" filterUnits="userSpaceOnUse" color-interpolation-filters="sRGB">
<feFlood flood-opacity="0" result="BackgroundImageFix"/>
<feColorMatrix in="SourceAlpha" type="matrix" values="0 0 0 0 0 0 0 0 0 0 0 0 0 0 0 0 0 0 127 0" result="hardAlpha"/>
<feOffset dy="1.04111"/>
<feGaussianBlur stdDeviation="0.520553"/>
<feComposite in2="hardAlpha" operator="out"/>
<feColorMatrix type="matrix" values="0 0 0 0 0 0 0 0 0 0 0 0 0 0 0 0 0 0 0.25 0"/>
<feBlend mode="normal" in2="BackgroundImageFix" result="effect1_dropShadow_704_43524"/>
<feBlend mode="normal" in="SourceGraphic" in2="effect1_dropShadow_704_43524" result="shape"/>
</filter>
</defs>
</svg>
