<svg width="445" height="445" viewBox="0 0 445 445" fill="none" xmlns="http://www.w3.org/2000/svg">
<g clip-path="url(#clip0_328_40032)" transform="scale(-1,1) translate(-445,0)">
<path d="M324.22 400.5H317.86V445H324.22V400.5Z" fill="#020202"/>
<path d="M317.86 400.5H311.5V445H317.86V400.5Z" fill="black"/>
<path d="M311.5 400.5H305.14V445H311.5V400.5Z" fill="black"/>
<path d="M305.15 400.5H298.79V445H305.15V400.5Z" fill="black"/>
<path d="M298.79 400.5H292.43V445H298.79V400.5Z" fill="black"/>
<path d="M292.43 400.5H286.07V445H292.43V400.5Z" fill="black"/>
<path d="M286.07 400.5H279.71V445H286.07V400.5Z" fill="black"/>
<path d="M279.72 400.5H273.36V445H279.72V400.5Z" fill="black"/>
<path d="M273.36 400.5H267V445H273.36V400.5Z" fill="black"/>
<path d="M267 400.5H260.64V445H267V400.5Z" fill="black"/>
<path d="M260.65 400.5H254.29V445H260.65V400.5Z" fill="black"/>
<path d="M254.29 400.5H247.93V445H254.29V400.5Z" fill="black"/>
<path d="M247.93 400.5H241.57V445H247.93V400.5Z" fill="black"/>
<path d="M241.57 400.5H235.21V445H241.57V400.5Z" fill="black"/>
<path d="M235.22 400.5H228.86V445H235.22V400.5Z" fill="black"/>
<path d="M228.86 400.5H222.5V445H228.86V400.5Z" fill="black"/>
<path d="M222.5 400.5H216.14V445H222.5V400.5Z" fill="black"/>
<path d="M216.15 400.5H209.79V445H216.15V400.5Z" fill="black"/>
<path d="M209.79 400.5H203.43V445H209.79V400.5Z" fill="black"/>
<path d="M203.43 400.5H197.07V445H203.43V400.5Z" fill="black"/>
<path d="M197.07 400.5H190.71V445H197.07V400.5Z" fill="black"/>
<path d="M190.72 400.5H184.36V445H190.72V400.5Z" fill="black"/>
<path d="M184.36 400.5H178V445H184.36V400.5Z" fill="black"/>
<path d="M178 400.5H171.64V445H178V400.5Z" fill="black"/>
<path d="M171.65 400.5H165.29V445H171.65V400.5Z" fill="black"/>
<path d="M165.29 400.5H158.93V445H165.29V400.5Z" fill="black"/>
<path d="M158.93 400.5H152.57V445H158.93V400.5Z" fill="black"/>
<path d="M152.57 400.5H146.21V445H152.57V400.5Z" fill="black"/>
<path d="M146.22 400.5H139.86V445H146.22V400.5Z" fill="black"/>
<path d="M139.86 400.5H133.5V445H139.86V400.5Z" fill="black"/>
<path d="M133.5 400.5H127.14V445H133.5V400.5Z" fill="black"/>
<path d="M127.15 400.5H120.79V445H127.15V400.5Z" fill="black"/>
<path d="M387.79 356H381.43V400.5H387.79V356Z" fill="black"/>
<path d="M381.43 356H375.07V400.5H381.43V356Z" fill="black"/>
<path d="M375.07 356H368.71V400.5H375.07V356Z" fill="black"/>
<path d="M368.72 356H362.36V400.5H368.72V356Z" fill="black"/>
<path d="M362.36 356H356V400.5H362.36V356Z" fill="black"/>
<path d="M356 356H349.64V400.5H356V356Z" fill="black"/>
<path d="M349.65 356H343.29V400.5H349.65V356Z" fill="#FFFF01"/>
<path d="M343.29 356H336.93V400.5H343.29V356Z" fill="#FFFF01"/>
<path d="M336.93 356H330.57V400.5H336.93V356Z" fill="#FFFF01"/>
<path d="M330.57 356H324.21V400.5H330.57V356Z" fill="#FFFF01"/>
<path d="M324.22 356H317.86V400.5H324.22V356Z" fill="#FFFF01"/>
<path d="M317.86 356H311.5V400.5H317.86V356Z" fill="#FFFF01"/>
<path d="M311.5 356H305.14V400.5H311.5V356Z" fill="#FFFF01"/>
<path d="M305.15 356H298.79V400.5H305.15V356Z" fill="#FFFF01"/>
<path d="M298.79 356H292.43V400.5H298.79V356Z" fill="#FFFF01"/>
<path d="M292.43 356H286.07V400.5H292.43V356Z" fill="#FFFF01"/>
<path d="M286.07 356H279.71V400.5H286.07V356Z" fill="#FFFF01"/>
<path d="M279.72 356H273.36V400.5H279.72V356Z" fill="#FFFF01"/>
<path d="M273.36 356H267V400.5H273.36V356Z" fill="#FFFF01"/>
<path d="M267 356H260.64V400.5H267V356Z" fill="#FFFF01"/>
<path d="M260.65 356H254.29V400.5H260.65V356Z" fill="#FFFF01"/>
<path d="M254.29 356H247.93V400.5H254.29V356Z" fill="#FFFF01"/>
<path d="M247.93 356H241.57V400.5H247.93V356Z" fill="#FFFF01"/>
<path d="M241.57 356H235.21V400.5H241.57V356Z" fill="#FFFF01"/>
<path d="M235.22 356H228.86V400.5H235.22V356Z" fill="#FFFF01"/>
<path d="M228.86 356H222.5V400.5H228.86V356Z" fill="#FFFF01"/>
<path d="M222.5 356H216.14V400.5H222.5V356Z" fill="#FFFF01"/>
<path d="M216.15 356H209.79V400.5H216.15V356Z" fill="#FFFF01"/>
<path d="M209.79 356H203.43V400.5H209.79V356Z" fill="#FFFF01"/>
<path d="M203.43 356H197.07V400.5H203.43V356Z" fill="#FFFF01"/>
<path d="M197.07 356H190.71V400.5H197.07V356Z" fill="#FFFF01"/>
<path d="M190.72 356H184.36V400.5H190.72V356Z" fill="#FFFF01"/>
<path d="M184.36 356H178V400.5H184.36V356Z" fill="#FFFF01"/>
<path d="M178 356H171.64V400.5H178V356Z" fill="#FFFF01"/>
<path d="M171.65 356H165.29V400.5H171.65V356Z" fill="#FFFF01"/>
<path d="M165.29 356H158.93V400.5H165.29V356Z" fill="#FFFF01"/>
<path d="M158.93 356H152.57V400.5H158.93V356Z" fill="#FFFF01"/>
<path d="M152.57 356H146.21V400.5H152.57V356Z" fill="#FFFF01"/>
<path d="M146.22 356H139.86V400.5H146.22V356Z" fill="#FFFF01"/>
<path d="M139.86 356H133.5V400.5H139.86V356Z" fill="#FFFF01"/>
<path d="M133.5 356H127.14V400.5H133.5V356Z" fill="#FFFF01"/>
<path d="M127.15 356H120.79V400.5H127.15V356Z" fill="#FFFF01"/>
<path d="M120.79 356H114.43V400.5H120.79V356Z" fill="#FFFF01"/>
<path d="M114.43 356H108.07V400.5H114.43V356Z" fill="#FFFF01"/>
<path d="M108.07 356H101.71V400.5H108.07V356Z" fill="#FFFF01"/>
<path d="M101.72 356H95.3604V400.5H101.72V356Z" fill="#FFFF01"/>
<path d="M95.36 356H89V400.5H95.36V356Z" fill="black"/>
<path d="M88.9996 356H82.6396V400.5H88.9996V356Z" fill="black"/>
<path d="M82.65 356H76.29V400.5H82.65V356Z" fill="black"/>
<path d="M76.2897 356H69.9297V400.5H76.2897V356Z" fill="black"/>
<path d="M69.9303 356H63.5703V400.5H69.9303V356Z" fill="black"/>
<path d="M419.57 311.5H413.21V356H419.57V311.5Z" fill="black"/>
<path d="M413.22 311.5H406.86V356H413.22V311.5Z" fill="black"/>
<path d="M406.86 311.5H400.5V356H406.86V311.5Z" fill="black"/>
<path d="M400.5 311.5H394.14V356H400.5V311.5Z" fill="black"/>
<path d="M394.15 311.5H387.79V356H394.15V311.5Z" fill="#FFFF01"/>
<path d="M387.79 311.5H381.43V356H387.79V311.5Z" fill="#FFFF01"/>
<path d="M381.43 311.5H375.07V356H381.43V311.5Z" fill="#FFFF01"/>
<path d="M375.07 311.5H368.71V356H375.07V311.5Z" fill="#FFFF01"/>
<path d="M368.72 311.5H362.36V356H368.72V311.5Z" fill="#FFFF01"/>
<path d="M362.36 311.5H356V356H362.36V311.5Z" fill="#FFFF01"/>
<path d="M356 311.5H349.64V356H356V311.5Z" fill="#FFFF01"/>
<path d="M349.65 311.5H343.29V356H349.65V311.5Z" fill="#FFFF01"/>
<path d="M343.29 311.5H336.93V356H343.29V311.5Z" fill="#FFFF01"/>
<path d="M336.93 311.5H330.57V356H336.93V311.5Z" fill="#FFFF01"/>
<path d="M330.57 311.5H324.21V356H330.57V311.5Z" fill="#FFFF01"/>
<path d="M324.22 311.5H317.86V356H324.22V311.5Z" fill="#FFFF01"/>
<path d="M317.86 311.5H311.5V356H317.86V311.5Z" fill="#FFFF01"/>
<path d="M311.5 311.5H305.14V356H311.5V311.5Z" fill="#FFFF01"/>
<path d="M305.15 311.5H298.79V356H305.15V311.5Z" fill="#FFFF01"/>
<path d="M298.79 311.5H292.43V356H298.79V311.5Z" fill="#FFFF01"/>
<path d="M292.43 311.5H286.07V356H292.43V311.5Z" fill="#FFFF01"/>
<path d="M286.07 311.5H279.71V356H286.07V311.5Z" fill="#FFFF01"/>
<path d="M279.72 311.5H273.36V356H279.72V311.5Z" fill="#FFFF01"/>
<path d="M273.36 311.5H267V356H273.36V311.5Z" fill="#FFFF01"/>
<path d="M267 311.5H260.64V356H267V311.5Z" fill="#FFFF01"/>
<path d="M260.65 311.5H254.29V356H260.65V311.5Z" fill="#FFFF01"/>
<path d="M254.29 311.5H247.93V356H254.29V311.5Z" fill="#FFFF01"/>
<path d="M247.93 311.5H241.57V356H247.93V311.5Z" fill="#FFFF01"/>
<path d="M241.57 311.5H235.21V356H241.57V311.5Z" fill="#FFFF01"/>
<path d="M235.22 311.5H228.86V356H235.22V311.5Z" fill="#FFFF01"/>
<path d="M228.86 311.5H222.5V356H228.86V311.5Z" fill="#FFFF01"/>
<path d="M222.5 311.5H216.14V356H222.5V311.5Z" fill="#FFFF01"/>
<path d="M216.15 311.5H209.79V356H216.15V311.5Z" fill="#FFFF01"/>
<path d="M209.79 311.5H203.43V356H209.79V311.5Z" fill="#FFFF01"/>
<path d="M203.43 311.5H197.07V356H203.43V311.5Z" fill="#FFFF01"/>
<path d="M197.07 311.5H190.71V356H197.07V311.5Z" fill="#FFFF01"/>
<path d="M190.72 311.5H184.36V356H190.72V311.5Z" fill="#FFFF01"/>
<path d="M184.36 311.5H178V356H184.36V311.5Z" fill="#FFFF01"/>
<path d="M178 311.5H171.64V356H178V311.5Z" fill="#FFFF01"/>
<path d="M171.65 311.5H165.29V356H171.65V311.5Z" fill="#FFFF01"/>
<path d="M165.29 311.5H158.93V356H165.29V311.5Z" fill="#FFFF01"/>
<path d="M158.93 311.5H152.57V356H158.93V311.5Z" fill="#FFFF01"/>
<path d="M152.57 311.5H146.21V356H152.57V311.5Z" fill="#FFFF01"/>
<path d="M146.22 311.5H139.86V356H146.22V311.5Z" fill="#FFFF01"/>
<path d="M139.86 311.5H133.5V356H139.86V311.5Z" fill="#FFFF01"/>
<path d="M133.5 311.5H127.14V356H133.5V311.5Z" fill="#FFFF01"/>
<path d="M127.15 311.5H120.79V356H127.15V311.5Z" fill="#FFFF01"/>
<path d="M120.79 311.5H114.43V356H120.79V311.5Z" fill="#FFFF01"/>
<path d="M114.43 311.5H108.07V356H114.43V311.5Z" fill="#FFFF01"/>
<path d="M108.07 311.5H101.71V356H108.07V311.5Z" fill="#FFFF01"/>
<path d="M101.72 311.5H95.3604V356H101.72V311.5Z" fill="#FFFF01"/>
<path d="M95.36 311.5H89V356H95.36V311.5Z" fill="#FFFF01"/>
<path d="M88.9996 311.5H82.6396V356H88.9996V311.5Z" fill="#FFFF01"/>
<path d="M82.65 311.5H76.29V356H82.65V311.5Z" fill="#FFFF01"/>
<path d="M76.2897 311.5H69.9297V356H76.2897V311.5Z" fill="#FFFF01"/>
<path d="M69.9303 311.5H63.5703V356H69.9303V311.5Z" fill="#FFFF01"/>
<path d="M63.57 311.5H57.21V356H63.57V311.5Z" fill="#FFFF01"/>
<path d="M57.2204 311.5H50.8604V356H57.2204V311.5Z" fill="black"/>
<path d="M50.86 311.5H44.5V356H50.86V311.5Z" fill="black"/>
<path d="M44.4996 311.5H38.1396V356H44.4996V311.5Z" fill="black"/>
<path d="M38.15 311.5H31.79V356H38.15V311.5Z" fill="black"/>
<path d="M438.65 267H432.29V311.5H438.65V267Z" fill="black"/>
<path d="M432.29 267H425.93V311.5H432.29V267Z" fill="black"/>
<path d="M425.93 267H419.57V311.5H425.93V267Z" fill="black"/>
<path d="M419.57 267H413.21V311.5H419.57V267Z" fill="black"/>
<path d="M413.22 267H406.86V311.5H413.22V267Z" fill="#FFFF01"/>
<path d="M406.86 267H400.5V311.5H406.86V267Z" fill="#FFFF01"/>
<path d="M400.5 267H394.14V311.5H400.5V267Z" fill="#FFFF01"/>
<path d="M394.15 267H387.79V311.5H394.15V267Z" fill="#FFFF01"/>
<path d="M387.79 267H381.43V311.5H387.79V267Z" fill="#FFFF01"/>
<path d="M381.43 267H375.07V311.5H381.43V267Z" fill="#FFFF01"/>
<path d="M375.07 267H368.71V311.5H375.07V267Z" fill="#FFFF01"/>
<path d="M368.72 267H362.36V311.5H368.72V267Z" fill="#FFFF01"/>
<path d="M362.36 267H356V311.5H362.36V267Z" fill="#FFFF01"/>
<path d="M356 267H349.64V311.5H356V267Z" fill="#FFFF01"/>
<path d="M349.65 267H343.29V311.5H349.65V267Z" fill="#FFFF01"/>
<path d="M343.29 267H336.93V311.5H343.29V267Z" fill="#FFFF01"/>
<path d="M336.93 267H330.57V311.5H336.93V267Z" fill="#FFFF01"/>
<path d="M330.57 267H324.21V311.5H330.57V267Z" fill="#FFFF01"/>
<path d="M324.22 267H317.86V311.5H324.22V267Z" fill="#FFFF01"/>
<path d="M317.86 267H311.5V311.5H317.86V267Z" fill="#FFFF01"/>
<path d="M311.5 267H305.14V311.5H311.5V267Z" fill="#FFFF01"/>
<path d="M305.15 267H298.79V311.5H305.15V267Z" fill="#FFFF01"/>
<path d="M298.79 267H292.43V311.5H298.79V267Z" fill="#FFFF01"/>
<path d="M292.43 267H286.07V311.5H292.43V267Z" fill="#FFFF01"/>
<path d="M286.07 267H279.71V311.5H286.07V267Z" fill="#FFFF01"/>
<path d="M279.72 267H273.36V311.5H279.72V267Z" fill="#FFFF01"/>
<path d="M273.36 267H267V311.5H273.36V267Z" fill="#FFFF01"/>
<path d="M267 267H260.64V311.5H267V267Z" fill="#FFFF01"/>
<path d="M260.65 267H254.29V311.5H260.65V267Z" fill="#FFFF01"/>
<path d="M254.29 267H247.93V311.5H254.29V267Z" fill="#FFFF01"/>
<path d="M247.93 267H241.57V311.5H247.93V267Z" fill="#FFFF01"/>
<path d="M241.57 267H235.21V311.5H241.57V267Z" fill="#FFFF01"/>
<path d="M235.22 267H228.86V311.5H235.22V267Z" fill="#FFFF01"/>
<path d="M228.86 267H222.5V311.5H228.86V267Z" fill="#FFFF01"/>
<path d="M222.5 267H216.14V311.5H222.5V267Z" fill="#FFFF01"/>
<path d="M216.15 267H209.79V311.5H216.15V267Z" fill="#FFFF01"/>
<path d="M209.79 267H203.43V311.5H209.79V267Z" fill="#FFFF01"/>
<path d="M203.43 267H197.07V311.5H203.43V267Z" fill="#FFFF01"/>
<path d="M197.07 267H190.71V311.5H197.07V267Z" fill="#FFFF01"/>
<path d="M190.72 267H184.36V311.5H190.72V267Z" fill="#FFFF01"/>
<path d="M184.36 267H178V311.5H184.36V267Z" fill="#FFFF01"/>
<path d="M178 267H171.64V311.5H178V267Z" fill="#FFFF01"/>
<path d="M171.65 267H165.29V311.5H171.65V267Z" fill="#FFFF01"/>
<path d="M165.29 267H158.93V311.5H165.29V267Z" fill="#FFFF01"/>
<path d="M158.93 267H152.57V311.5H158.93V267Z" fill="#FFFF01"/>
<path d="M152.57 267H146.21V311.5H152.57V267Z" fill="#FFFF01"/>
<path d="M146.22 267H139.86V311.5H146.22V267Z" fill="#FFFF01"/>
<path d="M139.86 267H133.5V311.5H139.86V267Z" fill="#FFFF01"/>
<path d="M133.5 267H127.14V311.5H133.5V267Z" fill="#FFFF01"/>
<path d="M127.15 267H120.79V311.5H127.15V267Z" fill="#FFFF01"/>
<path d="M120.79 267H114.43V311.5H120.79V267Z" fill="#FFFF01"/>
<path d="M114.43 267H108.07V311.5H114.43V267Z" fill="#FFFF01"/>
<path d="M108.07 267H101.71V311.5H108.07V267Z" fill="#FFFF01"/>
<path d="M101.72 267H95.3604V311.5H101.72V267Z" fill="#FFFF01"/>
<path d="M95.36 267H89V311.5H95.36V267Z" fill="#FFFF01"/>
<path d="M88.9996 267H82.6396V311.5H88.9996V267Z" fill="#FFFF01"/>
<path d="M82.65 267H76.29V311.5H82.65V267Z" fill="#FFFF01"/>
<path d="M76.2897 267H69.9297V311.5H76.2897V267Z" fill="#FFFF01"/>
<path d="M69.9303 267H63.5703V311.5H69.9303V267Z" fill="#FFFF01"/>
<path d="M63.57 267H57.21V311.5H63.57V267Z" fill="#FFFF01"/>
<path d="M57.2204 267H50.8604V311.5H57.2204V267Z" fill="#FFFF01"/>
<path d="M50.86 267H44.5V311.5H50.86V267Z" fill="#FFFF01"/>
<path d="M44.4996 267H38.1396V311.5H44.4996V267Z" fill="#FFFF01"/>
<path d="M38.15 267H31.79V311.5H38.15V267Z" fill="#FFFF01"/>
<path d="M31.7897 267H25.4297V311.5H31.7897V267Z" fill="black"/>
<path d="M25.4303 267H19.0703V311.5H25.4303V267Z" fill="black"/>
<path d="M445 222.5H438.64V267H445V222.5Z" fill="black"/>
<path d="M438.65 222.5H432.29V267H438.65V222.5Z" fill="black"/>
<path d="M432.29 222.5H425.93V267H432.29V222.5Z" fill="black"/>
<path d="M425.93 222.5H419.57V267H425.93V222.5Z" fill="black"/>
<path d="M419.57 222.5H413.21V267H419.57V222.5Z" fill="#FFFF01"/>
<path d="M413.22 222.5H406.86V267H413.22V222.5Z" fill="#FFFF01"/>
<path d="M406.86 222.5H400.5V267H406.86V222.5Z" fill="#FFFF01"/>
<path d="M400.5 222.5H394.14V267H400.5V222.5Z" fill="#FFFF01"/>
<path d="M394.15 222.5H387.79V267H394.15V222.5Z" fill="#FFFF01"/>
<path d="M387.79 222.5H381.43V267H387.79V222.5Z" fill="#FFFF01"/>
<path d="M381.43 222.5H375.07V267H381.43V222.5Z" fill="#FFFF01"/>
<path d="M375.07 222.5H368.71V267H375.07V222.5Z" fill="#FFFF01"/>
<path d="M368.72 222.5H362.36V267H368.72V222.5Z" fill="#FFFF01"/>
<path d="M362.36 222.5H356V267H362.36V222.5Z" fill="#FFFF01"/>
<path d="M356 222.5H349.64V267H356V222.5Z" fill="#FFFF01"/>
<path d="M349.65 222.5H343.29V267H349.65V222.5Z" fill="#FFFF01"/>
<path d="M343.29 222.5H336.93V267H343.29V222.5Z" fill="#FFFF01"/>
<path d="M336.93 222.5H330.57V267H336.93V222.5Z" fill="#FFFF01"/>
<path d="M330.57 222.5H324.21V267H330.57V222.5Z" fill="#FFFF01"/>
<path d="M324.22 222.5H317.86V267H324.22V222.5Z" fill="#FFFF01"/>
<path d="M317.86 222.5H311.5V267H317.86V222.5Z" fill="#FFFF01"/>
<path d="M311.5 222.5H305.14V267H311.5V222.5Z" fill="#FFFF01"/>
<path d="M305.15 222.5H298.79V267H305.15V222.5Z" fill="#FFFF01"/>
<path d="M298.79 222.5H292.43V267H298.79V222.5Z" fill="#FFFF01"/>
<path d="M292.43 222.5H286.07V267H292.43V222.5Z" fill="#FFFF01"/>
<path d="M286.07 222.5H279.71V267H286.07V222.5Z" fill="#FFFF01"/>
<path d="M279.72 222.5H273.36V267H279.72V222.5Z" fill="#FFFF01"/>
<path d="M273.36 222.5H267V267H273.36V222.5Z" fill="#FFFF01"/>
<path d="M267 222.5H260.64V267H267V222.5Z" fill="#FFFF01"/>
<path d="M260.65 222.5H254.29V267H260.65V222.5Z" fill="#FFFF01"/>
<path d="M254.29 222.5H247.93V267H254.29V222.5Z" fill="#FFFF01"/>
<path d="M247.93 222.5H241.57V267H247.93V222.5Z" fill="#FFFF01"/>
<path d="M241.57 222.5H235.21V267H241.57V222.5Z" fill="#FFFF01"/>
<path d="M235.22 222.5H228.86V267H235.22V222.5Z" fill="#FFFF01"/>
<path d="M228.86 222.5H222.5V267H228.86V222.5Z" fill="#FFFF01"/>
<path d="M222.5 222.5H216.14V267H222.5V222.5Z" fill="#FFFF01"/>
<path d="M216.15 222.5H209.79V267H216.15V222.5Z" fill="#FFFF01"/>
<path d="M209.79 222.5H203.43V267H209.79V222.5Z" fill="#FFFF01"/>
<path d="M203.43 222.5H197.07V267H203.43V222.5Z" fill="#FFFF01"/>
<path d="M197.07 222.5H190.71V267H197.07V222.5Z" fill="#FFFF01"/>
<path d="M190.72 222.5H184.36V267H190.72V222.5Z" fill="#FFFF01"/>
<path d="M184.36 222.5H178V267H184.36V222.5Z" fill="#FFFF01"/>
<path d="M178 222.5H171.64V267H178V222.5Z" fill="#FFFF01"/>
<path d="M171.65 222.5H165.29V267H171.65V222.5Z" fill="#FFFF01"/>
<path d="M165.29 222.5H158.93V267H165.29V222.5Z" fill="#FFFF01"/>
<path d="M158.93 222.5H152.57V267H158.93V222.5Z" fill="#FFFF01"/>
<path d="M152.57 222.5H146.21V267H152.57V222.5Z" fill="#FFFF01"/>
<path d="M146.22 222.5H139.86V267H146.22V222.5Z" fill="#FFFF01"/>
<path d="M139.86 222.5H133.5V267H139.86V222.5Z" fill="#FFFF01"/>
<path d="M133.5 222.5H127.14V267H133.5V222.5Z" fill="#FFFF01"/>
<path d="M127.15 222.5H120.79V267H127.15V222.5Z" fill="#FFFF01"/>
<path d="M120.79 222.5H114.43V267H120.79V222.5Z" fill="#FFFF01"/>
<path d="M114.43 222.5H108.07V267H114.43V222.5Z" fill="#FFFF01"/>
<path d="M108.07 222.5H101.71V267H108.07V222.5Z" fill="#FFFF01"/>
<path d="M101.72 222.5H95.3604V267H101.72V222.5Z" fill="#FFFF01"/>
<path d="M95.36 222.5H89V267H95.36V222.5Z" fill="#FFFF01"/>
<path d="M88.9996 222.5H82.6396V267H88.9996V222.5Z" fill="#FFFF01"/>
<path d="M82.65 222.5H76.29V267H82.65V222.5Z" fill="#FFFF01"/>
<path d="M76.2897 222.5H69.9297V267H76.2897V222.5Z" fill="#FFFF01"/>
<path d="M69.9303 222.5H63.5703V267H69.9303V222.5Z" fill="#FFFF01"/>
<path d="M63.57 222.5H57.21V267H63.57V222.5Z" fill="#FFFF01"/>
<path d="M57.2204 222.5H50.8604V267H57.2204V222.5Z" fill="#FFFF01"/>
<path d="M50.86 222.5H44.5V267H50.86V222.5Z" fill="#FFFF01"/>
<path d="M44.4996 222.5H38.1396V267H44.4996V222.5Z" fill="#FFFF01"/>
<path d="M38.15 222.5H31.79V267H38.15V222.5Z" fill="#FFFF01"/>
<path d="M31.7897 222.5H25.4297V267H31.7897V222.5Z" fill="#FFFF01"/>
<path d="M25.4303 222.5H19.0703V267H25.4303V222.5Z" fill="#030300"/>
<path d="M19.07 222.5H12.71V267H19.07V222.5Z" fill="black"/>
<path d="M12.7204 222.5H6.36035V267H12.7204V222.5Z" fill="black"/>
<path d="M6.36 222.5H0V267H6.36V222.5Z" fill="black"/>
<path d="M445 178H438.64V222.5H445V178Z" fill="black"/>
<path d="M438.65 178H432.29V222.5H438.65V178Z" fill="black"/>
<path d="M432.29 178H425.93V222.5H432.29V178Z" fill="black"/>
<path d="M425.93 178H419.57V222.5H425.93V178Z" fill="black"/>
<path d="M419.57 178H413.21V222.5H419.57V178Z" fill="#FFFF01"/>
<path d="M413.22 178H406.86V222.5H413.22V178Z" fill="#FFFF01"/>
<path d="M406.86 178H400.5V222.5H406.86V178Z" fill="#FFFF01"/>
<path d="M400.5 178H394.14V222.5H400.5V178Z" fill="#FFFF01"/>
<path d="M394.15 178H387.79V222.5H394.15V178Z" fill="#FFFF01"/>
<path d="M387.79 178H381.43V222.5H387.79V178Z" fill="#FFFF01"/>
<path d="M381.43 178H375.07V222.5H381.43V178Z" fill="#FFFF01"/>
<path d="M375.07 178H368.71V222.5H375.07V178Z" fill="#FFFF01"/>
<path d="M368.72 178H362.36V222.5H368.72V178Z" fill="#FFFF01"/>
<path d="M362.36 178H356V222.5H362.36V178Z" fill="#FFFF01"/>
<path d="M356 178H349.64V222.5H356V178Z" fill="#FFFF01"/>
<path d="M349.65 178H343.29V222.5H349.65V178Z" fill="#FFFF01"/>
<path d="M343.29 178H336.93V222.5H343.29V178Z" fill="#FFFF01"/>
<path d="M336.93 178H330.57V222.5H336.93V178Z" fill="#FFFF01"/>
<path d="M330.57 178H324.21V222.5H330.57V178Z" fill="#FFFF01"/>
<path d="M324.22 178H317.86V222.5H324.22V178Z" fill="#FFFF01"/>
<path d="M317.86 178H311.5V222.5H317.86V178Z" fill="#FFFF01"/>
<path d="M311.5 178H305.14V222.5H311.5V178Z" fill="#FFFF01"/>
<path d="M305.15 178H298.79V222.5H305.15V178Z" fill="#FFFF01"/>
<path d="M298.79 178H292.43V222.5H298.79V178Z" fill="#FFFF01"/>
<path d="M292.43 178H286.07V222.5H292.43V178Z" fill="#FFFF01"/>
<path d="M286.07 178H279.71V222.5H286.07V178Z" fill="#FFFF01"/>
<path d="M279.72 178H273.36V222.5H279.72V178Z" fill="#FFFF01"/>
<path d="M273.36 178H267V222.5H273.36V178Z" fill="#FFFF01"/>
<path d="M267 178H260.64V222.5H267V178Z" fill="#FFFF01"/>
<path d="M260.65 178H254.29V222.5H260.65V178Z" fill="#FFFF01"/>
<path d="M254.29 178H247.93V222.5H254.29V178Z" fill="#FFFF01"/>
<path d="M247.93 178H241.57V222.5H247.93V178Z" fill="#FFFF01"/>
<path d="M241.57 178H235.21V222.5H241.57V178Z" fill="#FFFF01"/>
<path d="M235.22 178H228.86V222.5H235.22V178Z" fill="#FFFF01"/>
<path d="M228.86 178H222.5V222.5H228.86V178Z" fill="#FFFF01"/>
<path d="M222.5 178H216.14V222.5H222.5V178Z" fill="#FFFF01"/>
<path d="M216.15 178H209.79V222.5H216.15V178Z" fill="#FFFF01"/>
<path d="M209.79 178H203.43V222.5H209.79V178Z" fill="#FFFF01"/>
<path d="M203.43 178H197.07V222.5H203.43V178Z" fill="#FFFF01"/>
<path d="M197.07 178H190.71V222.5H197.07V178Z" fill="#FFFF01"/>
<path d="M190.72 178H184.36V222.5H190.72V178Z" fill="#FFFF01"/>
<path d="M184.36 178H178V222.5H184.36V178Z" fill="#FFFF01"/>
<path d="M178 178H171.64V222.5H178V178Z" fill="#FFFF01"/>
<path d="M171.65 178H165.29V222.5H171.65V178Z" fill="#FFFF01"/>
<path d="M165.29 178H158.93V222.5H165.29V178Z" fill="#FFFF01"/>
<path d="M158.93 178H152.57V222.5H158.93V178Z" fill="#FFFF01"/>
<path d="M152.57 178H146.21V222.5H152.57V178Z" fill="#FFFF01"/>
<path d="M146.22 178H139.86V222.5H146.22V178Z" fill="#FFFF01"/>
<path d="M139.86 178H133.5V222.5H139.86V178Z" fill="#FFFF01"/>
<path d="M133.5 178H127.14V222.5H133.5V178Z" fill="#FFFF01"/>
<path d="M127.15 178H120.79V222.5H127.15V178Z" fill="#FFFF01"/>
<path d="M120.79 178H114.43V222.5H120.79V178Z" fill="#FFFF01"/>
<path d="M114.43 178H108.07V222.5H114.43V178Z" fill="#FFFF01"/>
<path d="M108.07 178H101.71V222.5H108.07V178Z" fill="#FFFF01"/>
<path d="M101.72 178H95.3604V222.5H101.72V178Z" fill="#FFFF01"/>
<path d="M95.36 178H89V222.5H95.36V178Z" fill="#FFFF01"/>
<path d="M88.9996 178H82.6396V222.5H88.9996V178Z" fill="#FFFF01"/>
<path d="M82.65 178H76.29V222.5H82.65V178Z" fill="#FFFF01"/>
<path d="M76.2897 178H69.9297V222.5H76.2897V178Z" fill="#FFFF01"/>
<path d="M69.9303 178H63.5703V222.5H69.9303V178Z" fill="#FFFF01"/>
<path d="M63.57 178H57.21V222.5H63.57V178Z" fill="#FFFF01"/>
<path d="M57.2204 178H50.8604V222.5H57.2204V178Z" fill="#FFFF01"/>
<path d="M50.86 178H44.5V222.5H50.86V178Z" fill="#FFFF01"/>
<path d="M44.4996 178H38.1396V222.5H44.4996V178Z" fill="#FFFF01"/>
<path d="M38.15 178H31.79V222.5H38.15V178Z" fill="#FFFF01"/>
<path d="M31.7897 178H25.4297V222.5H31.7897V178Z" fill="#FFFF01"/>
<path d="M25.4303 178H19.0703V222.5H25.4303V178Z" fill="black"/>
<path d="M19.07 178H12.71V222.5H19.07V178Z" fill="black"/>
<path d="M12.7204 178H6.36035V222.5H12.7204V178Z" fill="black"/>
<path d="M6.36 178H0V222.5H6.36V178Z" fill="black"/>
<path d="M438.65 133.5H432.29V178H438.65V133.5Z" fill="black"/>
<path d="M432.29 133.5H425.93V178H432.29V133.5Z" fill="black"/>
<path d="M425.93 133.5H419.57V178H425.93V133.5Z" fill="black"/>
<path d="M419.57 133.5H413.21V178H419.57V133.5Z" fill="black"/>
<path d="M413.22 133.5H406.86V178H413.22V133.5Z" fill="#FFFF01"/>
<path d="M406.86 133.5H400.5V178H406.86V133.5Z" fill="#FFFF01"/>
<path d="M400.5 133.5H394.14V178H400.5V133.5Z" fill="#FFFF01"/>
<path d="M394.15 133.5H387.79V178H394.15V133.5Z" fill="#FFFF01"/>
<path d="M387.79 133.5H381.43V178H387.79V133.5Z" fill="#FFFF01"/>
<path d="M381.43 133.5H375.07V178H381.43V133.5Z" fill="#FFFF01"/>
<path d="M375.07 133.5H368.71V178H375.07V133.5Z" fill="#FFFF01"/>
<path d="M368.72 133.5H362.36V178H368.72V133.5Z" fill="#FFFF01"/>
<path d="M362.36 133.5H356V178H362.36V133.5Z" fill="#FFFF01"/>
<path d="M356 133.5H349.64V178H356V133.5Z" fill="#FFFF01"/>
<path d="M349.65 133.5H343.29V178H349.65V133.5Z" fill="#FFFF01"/>
<path d="M343.29 133.5H336.93V178H343.29V133.5Z" fill="#FFFF01"/>
<path d="M336.93 133.5H330.57V178H336.93V133.5Z" fill="#FFFF01"/>
<path d="M330.57 133.5H324.21V178H330.57V133.5Z" fill="#FFFF01"/>
<path d="M324.22 133.5H317.86V178H324.22V133.5Z" fill="#FFFF01"/>
<path d="M317.86 133.5H311.5V178H317.86V133.5Z" fill="#FFFF01"/>
<path d="M311.5 133.5H305.14V178H311.5V133.5Z" fill="#FFFF01"/>
<path d="M305.15 133.5H298.79V178H305.15V133.5Z" fill="#FFFF01"/>
<path d="M298.79 133.5H292.43V178H298.79V133.5Z" fill="#FFFF01"/>
<path d="M292.43 133.5H286.07V178H292.43V133.5Z" fill="#FFFF01"/>
<path d="M286.07 133.5H279.71V178H286.07V133.5Z" fill="#FFFF01"/>
<path d="M279.72 133.5H273.36V178H279.72V133.5Z" fill="#FFFF01"/>
<path d="M273.36 133.5H267V178H273.36V133.5Z" fill="#FFFF01"/>
<path d="M267 133.5H260.64V178H267V133.5Z" fill="#FFFF01"/>
<path d="M260.65 133.5H254.29V178H260.65V133.5Z" fill="#FFFF01"/>
<path d="M254.29 133.5H247.93V178H254.29V133.5Z" fill="#FFFF01"/>
<path d="M247.93 133.5H241.57V178H247.93V133.5Z" fill="#FFFF01"/>
<path d="M241.57 133.5H235.21V178H241.57V133.5Z" fill="#FFFF01"/>
<path d="M235.22 133.5H228.86V178H235.22V133.5Z" fill="#FFFF01"/>
<path d="M228.86 133.5H222.5V178H228.86V133.5Z" fill="#FFFF01"/>
<path d="M222.5 133.5H216.14V178H222.5V133.5Z" fill="#FFFF01"/>
<path d="M216.15 133.5H209.79V178H216.15V133.5Z" fill="#FFFF01"/>
<path d="M209.79 133.5H203.43V178H209.79V133.5Z" fill="#FFFF01"/>
<path d="M203.43 133.5H197.07V178H203.43V133.5Z" fill="#FFFF01"/>
<path d="M197.07 133.5H190.71V178H197.07V133.5Z" fill="#FFFF01"/>
<path d="M190.72 133.5H184.36V178H190.72V133.5Z" fill="#FFFF01"/>
<path d="M184.36 133.5H178V178H184.36V133.5Z" fill="#FFFF01"/>
<path d="M178 133.5H171.64V178H178V133.5Z" fill="#FFFF01"/>
<path d="M171.65 133.5H165.29V178H171.65V133.5Z" fill="#FFFF01"/>
<path d="M165.29 133.5H158.93V178H165.29V133.5Z" fill="#FFFF01"/>
<path d="M158.93 133.5H152.57V178H158.93V133.5Z" fill="#FFFF01"/>
<path d="M152.57 133.5H146.21V178H152.57V133.5Z" fill="#FFFF01"/>
<path d="M146.22 133.5H139.86V178H146.22V133.5Z" fill="#FFFF01"/>
<path d="M139.86 133.5H133.5V178H139.86V133.5Z" fill="#FFFF01"/>
<path d="M133.5 133.5H127.14V178H133.5V133.5Z" fill="#FFFF01"/>
<path d="M127.15 133.5H120.79V178H127.15V133.5Z" fill="#FFFF01"/>
<path d="M120.79 133.5H114.43V178H120.79V133.5Z" fill="#FFFF01"/>
<path d="M114.43 133.5H108.07V178H114.43V133.5Z" fill="#FFFF01"/>
<path d="M108.07 133.5H101.71V178H108.07V133.5Z" fill="#FFFF01"/>
<path d="M101.72 133.5H95.3604V178H101.72V133.5Z" fill="#FFFF01"/>
<path d="M95.36 133.5H89V178H95.36V133.5Z" fill="#FFFF01"/>
<path d="M88.9996 133.5H82.6396V178H88.9996V133.5Z" fill="#FFFF01"/>
<path d="M82.65 133.5H76.29V178H82.65V133.5Z" fill="#FFFF01"/>
<path d="M76.2897 133.5H69.9297V178H76.2897V133.5Z" fill="#FFFF01"/>
<path d="M69.9303 133.5H63.5703V178H69.9303V133.5Z" fill="#FFFF01"/>
<path d="M63.57 133.5H57.21V178H63.57V133.5Z" fill="#FFFF01"/>
<path d="M57.2204 133.5H50.8604V178H57.2204V133.5Z" fill="#FFFF01"/>
<path d="M50.86 133.5H44.5V178H50.86V133.5Z" fill="#FFFF01"/>
<path d="M44.4996 133.5H38.1396V178H44.4996V133.5Z" fill="#FFFF01"/>
<path d="M38.15 133.5H31.79V178H38.15V133.5Z" fill="#FFFF01"/>
<path d="M31.7897 133.5H25.4297V178H31.7897V133.5Z" fill="black"/>
<path d="M25.4303 133.5H19.0703V178H25.4303V133.5Z" fill="black"/>
<path d="M19.07 133.5H12.71V178H19.07V133.5Z" fill="black"/>
<path d="M419.57 89H413.21V133.5H419.57V89Z" fill="black"/>
<path d="M413.22 89H406.86V133.5H413.22V89Z" fill="black"/>
<path d="M406.86 89H400.5V133.5H406.86V89Z" fill="black"/>
<path d="M400.5 89H394.14V133.5H400.5V89Z" fill="black"/>
<path d="M394.15 89H387.79V133.5H394.15V89Z" fill="black"/>
<path d="M387.79 89H381.43V133.5H387.79V89Z" fill="#FFFF01"/>
<path d="M381.43 89H375.07V133.5H381.43V89Z" fill="#FFFF01"/>
<path d="M375.07 89H368.71V133.5H375.07V89Z" fill="#FFFF01"/>
<path d="M368.72 89H362.36V133.5H368.72V89Z" fill="#FFFF01"/>
<path d="M362.36 89H356V133.5H362.36V89Z" fill="#FFFF01"/>
<path d="M356 89H349.64V133.5H356V89Z" fill="#FFFF01"/>
<path d="M349.65 89H343.29V133.5H349.65V89Z" fill="#FFFF01"/>
<path d="M343.29 89H336.93V133.5H343.29V89Z" fill="#FFFF01"/>
<path d="M336.93 89H330.57V133.5H336.93V89Z" fill="#FFFF01"/>
<path d="M330.57 89H324.21V133.5H330.57V89Z" fill="#FFFF01"/>
<path d="M324.22 89H317.86V133.5H324.22V89Z" fill="#FFFF01"/>
<path d="M317.86 89H311.5V133.5H317.86V89Z" fill="#FFFF01"/>
<path d="M311.5 89H305.14V133.5H311.5V89Z" fill="#FFFF01"/>
<path d="M305.15 89H298.79V133.5H305.15V89Z" fill="#FFFF01"/>
<path d="M298.79 89H292.43V133.5H298.79V89Z" fill="#FFFF01"/>
<path d="M292.43 89H286.07V133.5H292.43V89Z" fill="#FFFF01"/>
<path d="M286.07 89H279.71V133.5H286.07V89Z" fill="#FFFF01"/>
<path d="M279.72 89H273.36V133.5H279.72V89Z" fill="#FFFF01"/>
<path d="M273.36 89H267V133.5H273.36V89Z" fill="#FFFF01"/>
<path d="M267 89H260.64V133.5H267V89Z" fill="#FFFF01"/>
<path d="M260.65 89H254.29V133.5H260.65V89Z" fill="#FFFF01"/>
<path d="M254.29 89H247.93V133.5H254.29V89Z" fill="#FFFF01"/>
<path d="M247.93 89H241.57V133.5H247.93V89Z" fill="#FFFF01"/>
<path d="M241.57 89H235.21V133.5H241.57V89Z" fill="#FFFF01"/>
<path d="M235.22 89H228.86V133.5H235.22V89Z" fill="#FFFF01"/>
<path d="M228.86 89H222.5V133.5H228.86V89Z" fill="#FFFF01"/>
<path d="M222.5 89H216.14V133.5H222.5V89Z" fill="#FFFF01"/>
<path d="M216.15 89H209.79V133.5H216.15V89Z" fill="#FFFF01"/>
<path d="M209.79 89H203.43V133.5H209.79V89Z" fill="#FFFF01"/>
<path d="M203.43 89H197.07V133.5H203.43V89Z" fill="#FFFF01"/>
<path d="M197.07 89H190.71V133.5H197.07V89Z" fill="#FFFF01"/>
<path d="M190.72 89H184.36V133.5H190.72V89Z" fill="#FFFF01"/>
<path d="M184.36 89H178V133.5H184.36V89Z" fill="#FFFF01"/>
<path d="M178 89H171.64V133.5H178V89Z" fill="#FFFF01"/>
<path d="M171.65 89H165.29V133.5H171.65V89Z" fill="#FFFF01"/>
<path d="M165.29 89H158.93V133.5H165.29V89Z" fill="#FFFF01"/>
<path d="M158.93 89H152.57V133.5H158.93V89Z" fill="#FFFF01"/>
<path d="M152.57 89H146.21V133.5H152.57V89Z" fill="#FFFF01"/>
<path d="M146.22 89H139.86V133.5H146.22V89Z" fill="#FFFF01"/>
<path d="M139.86 89H133.5V133.5H139.86V89Z" fill="#FFFF01"/>
<path d="M133.5 89H127.14V133.5H133.5V89Z" fill="#FFFF01"/>
<path d="M127.15 89H120.79V133.5H127.15V89Z" fill="#FFFF01"/>
<path d="M120.79 89H114.43V133.5H120.79V89Z" fill="#FFFF01"/>
<path d="M114.43 89H108.07V133.5H114.43V89Z" fill="#FFFF01"/>
<path d="M108.07 89H101.71V133.5H108.07V89Z" fill="#FFFF01"/>
<path d="M101.72 89H95.3604V133.5H101.72V89Z" fill="#FFFF01"/>
<path d="M95.36 89H89V133.5H95.36V89Z" fill="#FFFF01"/>
<path d="M88.9996 89H82.6396V133.5H88.9996V89Z" fill="#FFFF01"/>
<path d="M82.65 89H76.29V133.5H82.65V89Z" fill="#FFFF01"/>
<path d="M76.2897 89H69.9297V133.5H76.2897V89Z" fill="#FFFF01"/>
<path d="M69.9303 89H63.5703V133.5H69.9303V89Z" fill="#FFFF01"/>
<path d="M63.57 89H57.21V133.5H63.57V89Z" fill="#FFFF01"/>
<path d="M57.2204 89H50.8604V133.5H57.2204V89Z" fill="black"/>
<path d="M50.86 89H44.5V133.5H50.86V89Z" fill="black"/>
<path d="M44.4996 89H38.1396V133.5H44.4996V89Z" fill="black"/>
<path d="M38.15 89H31.79V133.5H38.15V89Z" fill="black"/>
<path d="M381.43 44.5H375.07V89H381.43V44.5Z" fill="black"/>
<path d="M375.07 44.5H368.71V89H375.07V44.5Z" fill="black"/>
<path d="M368.72 44.5H362.36V89H368.72V44.5Z" fill="black"/>
<path d="M362.36 44.5H356V89H362.36V44.5Z" fill="black"/>
<path d="M356 44.5H349.64V89H356V44.5Z" fill="black"/>
<path d="M349.65 44.5H343.29V89H349.65V44.5Z" fill="#FFFF01"/>
<path d="M343.29 44.5H336.93V89H343.29V44.5Z" fill="#FFFF01"/>
<path d="M336.93 44.5H330.57V89H336.93V44.5Z" fill="#FFFF01"/>
<path d="M330.57 44.5H324.21V89H330.57V44.5Z" fill="#FFFF01"/>
<path d="M324.22 44.5H317.86V89H324.22V44.5Z" fill="#FFFF01"/>
<path d="M317.86 44.5H311.5V89H317.86V44.5Z" fill="#FFFF01"/>
<path d="M311.5 44.5H305.14V89H311.5V44.5Z" fill="#FFFF01"/>
<path d="M305.15 44.5H298.79V89H305.15V44.5Z" fill="#FFFF01"/>
<path d="M298.79 44.5H292.43V89H298.79V44.5Z" fill="#FFFF01"/>
<path d="M292.43 44.5H286.07V89H292.43V44.5Z" fill="#FFFF01"/>
<path d="M286.07 44.5H279.71V89H286.07V44.5Z" fill="#FFFF01"/>
<path d="M279.72 44.5H273.36V89H279.72V44.5Z" fill="#FFFF01"/>
<path d="M273.36 44.5H267V89H273.36V44.5Z" fill="#FFFF01"/>
<path d="M267 44.5H260.64V89H267V44.5Z" fill="#FFFF01"/>
<path d="M260.65 44.5H254.29V89H260.65V44.5Z" fill="#FFFF01"/>
<path d="M254.29 44.5H247.93V89H254.29V44.5Z" fill="#FFFF01"/>
<path d="M247.93 44.5H241.57V89H247.93V44.5Z" fill="#FFFF01"/>
<path d="M241.57 44.5H235.21V89H241.57V44.5Z" fill="#FFFF01"/>
<path d="M235.22 44.5H228.86V89H235.22V44.5Z" fill="#FFFF01"/>
<path d="M228.86 44.5H222.5V89H228.86V44.5Z" fill="#FFFF01"/>
<path d="M222.5 44.5H216.14V89H222.5V44.5Z" fill="#FFFF01"/>
<path d="M216.15 44.5H209.79V89H216.15V44.5Z" fill="#FFFF01"/>
<path d="M209.79 44.5H203.43V89H209.79V44.5Z" fill="#FFFF01"/>
<path d="M203.43 44.5H197.07V89H203.43V44.5Z" fill="#FFFF01"/>
<path d="M197.07 44.5H190.71V89H197.07V44.5Z" fill="#FFFF01"/>
<path d="M190.72 44.5H184.36V89H190.72V44.5Z" fill="#FFFF01"/>
<path d="M184.36 44.5H178V89H184.36V44.5Z" fill="#FFFF01"/>
<path d="M178 44.5H171.64V89H178V44.5Z" fill="#FFFF01"/>
<path d="M171.65 44.5H165.29V89H171.65V44.5Z" fill="#FFFF01"/>
<path d="M165.29 44.5H158.93V89H165.29V44.5Z" fill="#FFFF01"/>
<path d="M158.93 44.5H152.57V89H158.93V44.5Z" fill="#FFFF01"/>
<path d="M152.57 44.5H146.21V89H152.57V44.5Z" fill="#FFFF01"/>
<path d="M146.22 44.5H139.86V89H146.22V44.5Z" fill="#FFFF01"/>
<path d="M139.86 44.5H133.5V89H139.86V44.5Z" fill="#FFFF01"/>
<path d="M133.5 44.5H127.14V89H133.5V44.5Z" fill="#FFFF01"/>
<path d="M127.15 44.5H120.79V89H127.15V44.5Z" fill="#FFFF01"/>
<path d="M120.79 44.5H114.43V89H120.79V44.5Z" fill="#FFFF01"/>
<path d="M114.43 44.5H108.07V89H114.43V44.5Z" fill="#FFFF01"/>
<path d="M108.07 44.5H101.71V89H108.07V44.5Z" fill="#FFFF01"/>
<path d="M101.72 44.5H95.3604V89H101.72V44.5Z" fill="#FEFE01"/>
<path d="M95.36 44.5H89V89H95.36V44.5Z" fill="black"/>
<path d="M88.9996 44.5H82.6396V89H88.9996V44.5Z" fill="black"/>
<path d="M82.65 44.5H76.29V89H82.65V44.5Z" fill="black"/>
<path d="M76.2897 44.5H69.9297V89H76.2897V44.5Z" fill="black"/>
<path d="M69.9303 44.5H63.5703V89H69.9303V44.5Z" fill="black"/>
<path d="M317.86 0H311.5V44.5H317.86V0Z" fill="black"/>
<path d="M311.5 0H305.14V44.5H311.5V0Z" fill="black"/>
<path d="M305.15 0H298.79V44.5H305.15V0Z" fill="black"/>
<path d="M298.79 0H292.43V44.5H298.79V0Z" fill="black"/>
<path d="M292.43 0H286.07V44.5H292.43V0Z" fill="black"/>
<path d="M286.07 0H279.71V44.5H286.07V0Z" fill="black"/>
<path d="M279.72 0H273.36V44.5H279.72V0Z" fill="black"/>
<path d="M273.36 0H267V44.5H273.36V0Z" fill="black"/>
<path d="M267 0H260.64V44.5H267V0Z" fill="black"/>
<path d="M260.65 0H254.29V44.5H260.65V0Z" fill="black"/>
<path d="M254.29 0H247.93V44.5H254.29V0Z" fill="black"/>
<path d="M247.93 0H241.57V44.5H247.93V0Z" fill="black"/>
<path d="M241.57 0H235.21V44.5H241.57V0Z" fill="black"/>
<path d="M235.22 0H228.86V44.5H235.22V0Z" fill="black"/>
<path d="M228.86 0H222.5V44.5H228.86V0Z" fill="black"/>
<path d="M222.5 0H216.14V44.5H222.5V0Z" fill="black"/>
<path d="M216.15 0H209.79V44.5H216.15V0Z" fill="black"/>
<path d="M209.79 0H203.43V44.5H209.79V0Z" fill="black"/>
<path d="M203.43 0H197.07V44.5H203.43V0Z" fill="black"/>
<path d="M197.07 0H190.71V44.5H197.07V0Z" fill="black"/>
<path d="M190.72 0H184.36V44.5H190.72V0Z" fill="black"/>
<path d="M184.36 0H178V44.5H184.36V0Z" fill="black"/>
<path d="M178 0H171.64V44.5H178V0Z" fill="black"/>
<path d="M171.65 0H165.29V44.5H171.65V0Z" fill="black"/>
<path d="M165.29 0H158.93V44.5H165.29V0Z" fill="black"/>
<path d="M158.93 0H152.57V44.5H158.93V0Z" fill="black"/>
<path d="M152.57 0H146.21V44.5H152.57V0Z" fill="black"/>
<path d="M146.22 0H139.86V44.5H146.22V0Z" fill="black"/>
<path d="M139.86 0H133.5V44.5H139.86V0Z" fill="black"/>
<path d="M133.5 0H127.14V44.5H133.5V0Z" fill="black"/>
<path d="M127.15 0H120.79V44.5H127.15V0Z" fill="black"/>
<path d="M219.32 210.96H212.96V231.22H219.32V210.96Z" fill="black"/>
<path d="M212.97 210.96H206.61V231.22H212.97V210.96Z" fill="black"/>
<path d="M206.61 210.96H200.25V231.22H206.61V210.96Z" fill="black"/>
<path d="M200.25 210.96H193.89V231.22H200.25V210.96Z" fill="black"/>
<path d="M193.9 210.96H187.54V231.22H193.9V210.96Z" fill="black"/>
<path d="M187.54 210.96H181.18V231.22H187.54V210.96Z" fill="black"/>
<path d="M181.18 210.96H174.82V231.22H181.18V210.96Z" fill="black"/>
<path d="M174.82 210.96H168.46V231.22H174.82V210.96Z" fill="black"/>
<path d="M168.47 210.96H162.11V231.22H168.47V210.96Z" fill="black"/>
<path d="M162.11 210.96H155.75V231.22H162.11V210.96Z" fill="black"/>
<path d="M155.75 210.96H149.39V231.22H155.75V210.96Z" fill="black"/>
<path d="M149.4 210.96H143.04V231.22H149.4V210.96Z" fill="black"/>
<path d="M143.04 210.96H136.68V231.22H143.04V210.96Z" fill="black"/>
<path d="M136.68 210.96H130.32V231.22H136.68V210.96Z" fill="black"/>
<path d="M130.32 210.96H123.96V231.22H130.32V210.96Z" fill="black"/>
<path d="M123.97 210.96H117.61V231.22H123.97V210.96Z" fill="black"/>
<path d="M117.61 210.96H111.25V231.22H117.61V210.96Z" fill="black"/>
<path d="M111.25 210.96H104.89V231.22H111.25V210.96Z" fill="black"/>
<path d="M104.9 210.96H98.54V231.22H104.9V210.96Z" fill="black"/>
<path d="M98.5397 210.96H92.1797V231.22H98.5397V210.96Z" fill="black"/>
<path d="M92.1803 210.96H85.8203V231.22H92.1803V210.96Z" fill="black"/>
<path d="M85.82 210.96H79.46V231.22H85.82V210.96Z" fill="black"/>
<path d="M79.4704 210.96H73.1104V231.22H79.4704V210.96Z" fill="black"/>
<path d="M73.11 210.96H66.75V231.22H73.11V210.96Z" fill="black"/>
<path d="M66.7496 210.96H60.3896V231.22H66.7496V210.96Z" fill="black"/>
<path d="M60.4 210.96H54.04V231.22H60.4V210.96Z" fill="black"/>
<path d="M54.0397 210.96H47.6797V231.22H54.0397V210.96Z" fill="black"/>
<path d="M47.6803 210.96H41.3203V231.22H47.6803V210.96Z" fill="black"/>
<path d="M41.32 210.96H34.96V231.22H41.32V210.96Z" fill="black"/>
<path d="M34.9704 210.96H28.6104V231.22H34.9704V210.96Z" fill="black"/>
<path d="M28.61 210.96H22.25V231.22H28.61V210.96Z" fill="black"/>
<path d="M195.87 102.91H134.7V164.08H195.87V102.91Z" fill="black"/>
</g>
<defs>
<clipPath id="clip0_328_40032">
<rect width="445" height="445" fill="white"/>
</clipPath>
</defs>
</svg>
